<svg xmlns="http://www.w3.org/2000/svg" width="51.13" height="87.986" viewBox="0 0 51.13 87.986">
    <defs>
        <style>
            .cls-1{fill:#a8fabb}
        </style>
    </defs>
    <g id="noun_Tree_898851">
        <path id="Path_14" d="M27.4 82.468h23.9v15.417a1.1 1.1 0 0 0 2.2 0V82.468h22.9a1.359 1.359 0 0 0 .881-.44 1.07 1.07 0 0 0 .11-.991L54.267 11.771a1.058 1.058 0 0 0-.991-.771 1.46 1.46 0 0 0-1.1.661L26.407 80.926a1.035 1.035 0 0 0 .11.991 1.123 1.123 0 0 0 .883.551zM53.166 15.4l21.693 64.865h-45.92z" class="cls-1" data-name="Path 14" transform="translate(-26.334 -11)"/>
    </g>
</svg>
