<svg xmlns="http://www.w3.org/2000/svg" width="48.453" height="85.673" viewBox="0 0 48.453 85.673">
    <defs>
        <style>
            .cls-1{fill:#a8fabb}
        </style>
    </defs>
    <g id="noun_Tree_898844">
        <path id="Path_18" d="M51.125 59.353v36.119a1.1 1.1 0 0 0 2.2 0V59.353a24.226 24.226 0 1 0-2.2 0zm1.1-46.14a21.982 21.982 0 0 1 1.1 43.938v-7.379l10.354-10.351a1.09 1.09 0 0 0-1.542-1.542l-8.81 8.81V31.052a1.1 1.1 0 0 0-2.2 0v15.527l-8.81-8.81a1.09 1.09 0 1 0-1.542 1.542l10.35 10.351v7.378a21.925 21.925 0 0 1 1.1-43.828z" class="cls-1" data-name="Path 18" transform="translate(-28 -10.9)"/>
    </g>
</svg>
