<svg xmlns="http://www.w3.org/2000/svg" width="38.542" height="87.986" viewBox="0 0 38.542 87.986">
    <defs>
        <style>
            .cls-1{fill:#a8fabb}
        </style>
    </defs>
    <g id="noun_Tree_898847">
        <path id="Path_17" d="M50.67 82.358v15.527a1.1 1.1 0 0 0 2.2 0V82.358c10.241-.991 18.17-16.3 18.17-35.679C71.042 26.637 62.563 11 51.771 11S32.5 26.637 32.5 46.679c0 19.381 7.929 34.688 18.17 35.679zm1.1-69.155c9.36 0 17.069 15.086 17.069 33.476 0 17.729-7.048 32.265-15.967 33.476V53.837a1.1 1.1 0 1 0-2.2 0v26.318C41.75 79.054 34.7 64.518 34.7 46.679c0-18.5 7.711-33.479 17.071-33.479z" class="cls-1" data-name="Path 17" transform="translate(-32.5 -11)"/>
    </g>
</svg>
