<svg xmlns="http://www.w3.org/2000/svg" width="88.046" height="88.029" viewBox="0 0 88.046 88.029">
    <defs>
        <style>
            .cls-1{fill:#a8fabb}
        </style>
    </defs>
    <g id="noun_palm_trees_1191385" data-name="noun_palm trees_1191385">
        <path id="Path_8" d="M31.665 26.982a14.6 14.6 0 0 1 17.947 4.69 9.649 9.649 0 0 0-15.4 7.761 1.1 1.1 0 1 0 2.2 0 7.464 7.464 0 0 1 14.929 0v56.492h-2.826a1.1 1.1 0 1 0 0 2.2h7.848a1.1 1.1 0 1 0 0-2.2h-2.821V39.434a7.464 7.464 0 0 1 14.929 0 1.1 1.1 0 1 0 2.2 0 9.65 9.65 0 0 0-15.391-7.772 14.622 14.622 0 0 1 17.933-4.68 1.1 1.1 0 1 0 .925-2 16.772 16.772 0 0 0-20.393 5.059 14.6 14.6 0 0 1 14.388-12.26 1.1 1.1 0 1 0 0-2.2 16.8 16.8 0 0 0-14.593 8.513V11.2a1.1 1.1 0 1 0-2.2 0v12.9a16.8 16.8 0 0 0-14.593-8.513 1.1 1.1 0 0 0 0 2.2 14.6 14.6 0 0 1 14.388 12.26 16.773 16.773 0 0 0-20.394-5.06 1.1 1.1 0 0 0 .924 2z" class="cls-1" data-name="Path 8" transform="translate(-8.105 -10.1)"/>
        <path id="Path_9" d="M11.689 50.656a12.945 12.945 0 0 1 15.5 3.6 8.765 8.765 0 0 0-13.381 7.471 1.1 1.1 0 1 0 2.2 0 6.581 6.581 0 1 1 13.163 0V93.24H26.35a1.1 1.1 0 1 0 0 2.2h7.85a1.1 1.1 0 0 0 0-2.2h-2.824V61.721a6.581 6.581 0 1 1 13.163 0 1.1 1.1 0 0 0 2.2 0 8.765 8.765 0 0 0-13.372-7.476 12.988 12.988 0 0 1 15.489-3.589 1.1 1.1 0 0 0 .925-2 15.19 15.19 0 0 0-18.163 4.25 12.991 12.991 0 0 1 12.731-10.487 1.1 1.1 0 1 0 0-2.2 15.167 15.167 0 0 0-12.973 7.343v-9.817a1.1 1.1 0 0 0-2.2 0v9.814A15.167 15.167 0 0 0 16.2 40.216a1.1 1.1 0 0 0 0 2.2 12.992 12.992 0 0 1 12.729 10.49 15.187 15.187 0 0 0-18.163-4.251 1.1 1.1 0 0 0 .923 2z" class="cls-1" data-name="Path 9" transform="translate(-10.127 -7.414)"/>
        <path id="Path_10" d="M59.561 40.216a1.1 1.1 0 1 0 0 2.2A12.991 12.991 0 0 1 72.29 52.908a15.184 15.184 0 0 0-18.162-4.25 1.1 1.1 0 1 0 .925 2 12.986 12.986 0 0 1 15.488 3.589 8.764 8.764 0 0 0-13.371 7.474 1.1 1.1 0 0 0 2.2 0 6.581 6.581 0 1 1 13.162 0v31.518h-2.82a1.1 1.1 0 0 0 0 2.2h7.848a1.1 1.1 0 1 0 0-2.2h-2.822V61.721a6.581 6.581 0 1 1 13.163 0 1.1 1.1 0 1 0 2.2 0 8.765 8.765 0 0 0-13.379-7.471 12.945 12.945 0 0 1 15.5-3.6 1.1 1.1 0 1 0 .925-2 15.189 15.189 0 0 0-18.163 4.25 12.991 12.991 0 0 1 12.728-10.482 1.1 1.1 0 0 0 0-2.2 15.167 15.167 0 0 0-12.973 7.343v-9.817a1.1 1.1 0 1 0-2.2 0v9.814a15.175 15.175 0 0 0-12.978-7.342z" class="cls-1" data-name="Path 10" transform="translate(-5.739 -7.414)"/>
    </g>
</svg>
