<svg xmlns="http://www.w3.org/2000/svg" width="87.986" height="88.142" viewBox="0 0 87.986 88.142">
    <defs>
        <style>
            .cls-1{fill:#a8fabb}
        </style>
    </defs>
    <g id="noun_trees_1191392">
        <path id="Path_6" d="M71.2 10a23.138 23.138 0 0 0-1.058 46.258v39.683h-2.45a1.1 1.1 0 0 0 0 2.2h7.016a1.1 1.1 0 1 0 0-2.2h-2.361V56.255A23.138 23.138 0 0 0 71.2 10zm1.145 44.051V35.6l7.286-7.052a1.1 1.1 0 1 0-1.531-1.586l-5.754 5.57v-7.8a1.1 1.1 0 1 0-2.2 0v14.115l-5.84-5.654a1.1 1.1 0 0 0-1.533 1.584l7.371 7.137v12.143a21.1 21.1 0 1 1 2.2 0z" class="cls-1" data-name="Path 6" transform="translate(-6.517 -10.001)"/>
        <path id="Path_7" d="M10.641 66.06a1.1 1.1 0 1 0 1.559 1.553l16-16.08v44.4h-2.819a1.1 1.1 0 0 0 0 2.2h7.848a1.1 1.1 0 1 0 0-2.2h-2.821v-44.4l16 16.08a1.1 1.1 0 1 0 1.562-1.553L30.408 48.411v-9.463l16 16.081a1.1 1.1 0 1 0 1.562-1.553l-17.562-17.65v-9.464l16 16.081a1.1 1.1 0 1 0 1.562-1.553L30.408 23.239v-9.464l16 16.081a1.1 1.1 0 1 0 1.563-1.556L30.088 10.332a1.1 1.1 0 0 0-1.559 0L10.643 28.3a1.1 1.1 0 1 0 1.557 1.556l16-16.081v9.464l-17.559 17.65a1.1 1.1 0 1 0 1.559 1.553l16-16.081v9.464l-17.559 17.65a1.1 1.1 0 1 0 1.559 1.552l16-16.081v9.464z" class="cls-1" data-name="Path 7" transform="translate(-10.321 -10)"/>
    </g>
</svg>
