<svg xmlns="http://www.w3.org/2000/svg" width="88.099" height="88.039" viewBox="0 0 88.099 88.039">
    <defs>
        <style>
            .cls-1{fill:#a8fabb}
        </style>
    </defs>
    <path id="noun_trees_1227592" d="M97.125 95.858H78.139V30.773c8.1-.315 10.171 8.034 10.257 8.4a1.1 1.1 0 0 0 1.957.41 8.793 8.793 0 0 0-3.263-13.2 17.245 17.245 0 0 1 9.316 3.752 1.1 1.1 0 0 0 1.814-.835 11.2 11.2 0 0 0-14.309-10.792c4.367-2.6 9.578-1.533 9.9-1.466a1.1 1.1 0 0 0 1.207-1.592 10.21 10.21 0 0 0-18.154.217 10.215 10.215 0 0 0-18.153-.217 1.1 1.1 0 0 0 1.208 1.592 16.443 16.443 0 0 1 6.158.062 12.088 12.088 0 0 1 3.695 1.408A11.139 11.139 0 0 0 55.61 29.27a1.1 1.1 0 0 0 1.816.839 18.313 18.313 0 0 1 6.074-3.156 14 14 0 0 1 3.443-.578 8.8 8.8 0 0 0-3.283 13.212 1.1 1.1 0 0 0 .883.443 1.1 1.1 0 0 0 1.074-.852c.087-.37 2.158-8.762 10.319-8.4v65.08H55.387v-17.45a15.415 15.415 0 1 0-2.2 0v17.45H32.658V30.773c8.107-.307 10.171 8.033 10.257 8.4a1.1 1.1 0 0 0 1.957.41 8.793 8.793 0 0 0-3.263-13.2 17.245 17.245 0 0 1 9.316 3.752 1.1 1.1 0 0 0 1.814-.839 11.2 11.2 0 0 0-14.31-10.791c4.367-2.6 9.579-1.533 9.9-1.466a1.1 1.1 0 0 0 1.207-1.592 10.216 10.216 0 0 0-18.157.211 10.21 10.21 0 0 0-18.152-.211 1.1 1.1 0 0 0 1.208 1.592 16.445 16.445 0 0 1 6.158.062 12.088 12.088 0 0 1 3.695 1.408A11.139 11.139 0 0 0 10.127 29.27a1.1 1.1 0 0 0 1.816.839 18.313 18.313 0 0 1 6.076-3.156 13.945 13.945 0 0 1 3.443-.578 8.8 8.8 0 0 0-3.286 13.212 1.1 1.1 0 0 0 .883.444 1.141 1.141 0 0 0 .227-.023 1.1 1.1 0 0 0 .847-.831 13.751 13.751 0 0 1 2.244-4.615 9.09 9.09 0 0 1 8.075-3.79v65.086h-19.22a1.1 1.1 0 0 0 0 2.2h85.893a1.1 1.1 0 0 0 0-2.2zm-7.5-59.682c-1.283-2.786-4.111-6.976-9.649-7.576a6.609 6.609 0 0 1 9.651 7.572zm6.1-9.17a18.8 18.8 0 0 0-9.389-2.818 14.008 14.008 0 0 0-7.991 2.5 9.029 9.029 0 0 1 17.38.314zm-17.411-9.1a8.021 8.021 0 0 1 7.66-5.679 8.064 8.064 0 0 1 5.726 2.386c-3.617-.116-10.135.6-13.638 6.9a7.989 7.989 0 0 1 .251-3.607zM62.756 14.6c-.258 0-.5.006-.739.014a8.025 8.025 0 0 1 13.639 6.9c-3.276-5.892-9.192-6.914-12.9-6.914zM58.11 26.979a8.973 8.973 0 0 1 17.264-.314c-6.88-4.646-13.874-1.712-17.264.314zm6.276 9.2a6.611 6.611 0 0 1 9.65-7.579c-5.536.6-8.366 4.791-9.651 7.577zM41.1 63.133a13.22 13.22 0 1 1 14.29 13.072v-3.247l5.244-5.078A1.1 1.1 0 0 0 59.1 66.3l-3.712 3.593v-9.5a1.1 1.1 0 1 0-2.2 0v4.927l-3.649-3.533A1.1 1.1 0 0 0 48 63.37l5.182 5.017V76.2A13.177 13.177 0 0 1 41.1 63.133zm3.048-26.957C42.861 33.39 40.033 29.2 34.5 28.6a6.609 6.609 0 0 1 9.651 7.571zm6.1-9.169a18.8 18.8 0 0 0-9.389-2.818 14.01 14.01 0 0 0-7.991 2.5 9.029 9.029 0 0 1 17.38.314zm-17.411-9.1a8.021 8.021 0 0 1 7.659-5.679 8.064 8.064 0 0 1 5.725 2.386c-3.621-.116-10.137.6-13.638 6.9a7.989 7.989 0 0 1 .25-3.608zM17.275 14.6c-.255 0-.5.006-.735.013a8.029 8.029 0 0 1 13.638 6.9C26.9 15.622 20.985 14.6 17.275 14.6zm-4.646 12.379a8.974 8.974 0 0 1 17.265-.314c-6.883-4.646-13.871-1.712-17.265.314zm6.276 9.2a6.611 6.611 0 0 1 9.651-7.579c-5.538.6-8.366 4.791-9.656 7.577z" class="cls-1" transform="translate(-10.127 -10.021)"/>
</svg>
