<svg xmlns="http://www.w3.org/2000/svg" width="66.733" height="80.167" viewBox="0 0 66.733 80.167">
    <defs>
        <style>
            .cls-1{fill:#a8fabb}
        </style>
    </defs>
    <g id="noun_Tree_898848">
        <path id="Path_16" d="M33.235 64.012a13.6 13.6 0 0 0 8.92-3.414l9.911 9.911v24.557a1.1 1.1 0 0 0 2.2 0V70.4l9.911-9.911a13.414 13.414 0 0 0 22.356-10.021 13.253 13.253 0 0 0-4.295-9.8 10.749 10.749 0 0 0 1.1-4.845A11.044 11.044 0 0 0 72.327 24.81a12.7 12.7 0 0 0-2.863.33A19.368 19.368 0 0 0 53.166 16 19.163 19.163 0 0 0 39.4 21.836a13.124 13.124 0 0 0-6.167-1.542A13.488 13.488 0 0 0 19.8 33.729a12.979 12.979 0 0 0 2.973 8.371 13.617 13.617 0 0 0-2.973 8.368 13.442 13.442 0 0 0 13.435 13.544zm10.351-5.066a13.848 13.848 0 0 0 2.753-5.726 20.539 20.539 0 0 0 5.616 1.211v12.885zm10.572-4.515a16.57 16.57 0 0 0 5.616-1.211 13.223 13.223 0 0 0 2.753 5.726l-8.369 8.369zM24.976 41.438a11.222 11.222 0 0 1 8.259-18.831 10.788 10.788 0 0 1 5.726 1.652 1.191 1.191 0 0 0 1.432-.22 16.879 16.879 0 0 1 12.664-5.726 17.051 17.051 0 0 1 14.866 8.81 1.192 1.192 0 0 0 1.321.551 9.441 9.441 0 0 1 2.973-.551 8.835 8.835 0 0 1 8.81 8.81 8.037 8.037 0 0 1-1.321 4.515 1.044 1.044 0 0 0 .22 1.432 11.068 11.068 0 0 1 4.185 8.7 11.2 11.2 0 0 1-22.354.991 1.123 1.123 0 0 0-.551-.881.993.993 0 0 0-.551-.11.662.662 0 0 0-.44.11 17.166 17.166 0 0 1-6.938 1.542h-.44a16.773 16.773 0 0 1-6.937-1.544 1.528 1.528 0 0 0-.991 0 1.123 1.123 0 0 0-.551.881 11.2 11.2 0 1 1-19.381-8.589 1.323 1.323 0 0 0-.001-1.542z" class="cls-1" data-name="Path 16" transform="translate(-19.8 -16)"/>
    </g>
</svg>
