<svg xmlns="http://www.w3.org/2000/svg" width="88.096" height="88.131" viewBox="0 0 88.096 88.131">
    <defs>
        <style>
            .cls-1{fill:#a8fabb}
        </style>
    </defs>
    <g id="noun_forest_1191384">
        <path id="Path_11" d="M10.445 49.623a1.1 1.1 0 1 0 1.561 1.553L22.734 40.4v55.535H19.91a1.1 1.1 0 0 0 0 2.2h7.848a1.1 1.1 0 0 0 0-2.2h-2.821V40.4l10.727 10.775a1.1 1.1 0 0 0 1.562-1.553l-12.29-12.347v-5.752L35.663 42.3a1.1 1.1 0 0 0 1.562-1.553L24.936 28.4v-5.751l10.727 10.78a1.1 1.1 0 0 0 1.562-1.553L24.936 19.527v-5.752l10.727 10.78A1.1 1.1 0 0 0 37.224 23L24.616 10.331a1.1 1.1 0 0 0-1.562 0L10.445 23a1.1 1.1 0 1 0 1.562 1.553l10.727-10.78v5.752L10.445 31.876a1.1 1.1 0 0 0 1.561 1.553l10.727-10.78V28.4L10.445 40.75a1.1 1.1 0 1 0 1.562 1.55l10.727-10.78v5.752z" class="cls-1" data-name="Path 11" transform="translate(-10.125 -10.006)"/>
        <path id="Path_12" d="M38 67.464a1.1 1.1 0 0 0 1.562 1.553l10.727-10.78v35.891H47.46a1.1 1.1 0 1 0 0 2.2h7.848a1.1 1.1 0 1 0 0-2.2h-2.821V58.237l10.727 10.78a1.1 1.1 0 1 0 1.562-1.553l-12.29-12.349v-5.752l10.727 10.78a1.1 1.1 0 0 0 1.562-1.553L52.486 46.24v-5.751l10.727 10.78a1.1 1.1 0 0 0 1.562-1.553L52.486 37.367v-5.752l10.727 10.78a1.1 1.1 0 0 0 1.562-1.553L52.166 28.171a1.135 1.135 0 0 0-1.562 0L38 40.842a1.1 1.1 0 0 0 1.562 1.553l10.727-10.78v5.752L38 49.716a1.1 1.1 0 0 0 1.562 1.553l10.727-10.78v5.751L38 58.59a1.1 1.1 0 1 0 1.562 1.553l10.727-10.78v5.752z" class="cls-1" data-name="Path 12" transform="translate(-7.337 -8.199)"/>
        <path id="Path_13" d="M65.545 49.623a1.1 1.1 0 1 0 1.562 1.553L77.834 40.4v55.535h-2.825a1.1 1.1 0 0 0 0 2.2h7.848a1.1 1.1 0 1 0 0-2.2h-2.821V40.4l10.727 10.775a1.1 1.1 0 0 0 1.562-1.553L80.036 37.275v-5.752L90.763 42.3a1.1 1.1 0 0 0 1.562-1.553L80.036 28.4v-5.751l10.727 10.78a1.1 1.1 0 0 0 1.562-1.553L80.036 19.527v-5.752l10.727 10.78A1.1 1.1 0 1 0 92.324 23L79.716 10.331a1.1 1.1 0 0 0-1.562 0L65.545 23a1.1 1.1 0 1 0 1.562 1.553l10.727-10.78v5.752L65.545 31.876a1.1 1.1 0 0 0 1.562 1.553l10.727-10.78V28.4L65.545 40.75a1.1 1.1 0 1 0 1.562 1.55l10.727-10.78v5.752z" class="cls-1" data-name="Path 13" transform="translate(-4.549 -10.006)"/>
    </g>
</svg>
