<svg xmlns="http://www.w3.org/2000/svg" width="66.623" height="85.673" viewBox="0 0 66.623 85.673">
    <defs>
        <style>
            .cls-1{fill:#a8fabb}
        </style>
    </defs>
    <g id="noun_Tree_898849">
        <path id="Path_15" d="M33.535 64.518a13.6 13.6 0 0 0 8.92-3.414l9.911 9.911v24.557a1.1 1.1 0 0 0 2.2 0V70.905l9.8-9.8a13.417 13.417 0 1 0-4.515-10.021 13.153 13.153 0 0 0 2.973 8.369l-8.369 8.369V43.265a16.188 16.188 0 1 0-2.2 0v24.557L44 59.453a13.153 13.153 0 0 0 2.973-8.369 13.435 13.435 0 1 0-13.438 13.434zm39.753-24.667a11.233 11.233 0 1 1-11.122 11.233 11.28 11.28 0 0 1 11.122-11.233zM39.481 27.188a13.985 13.985 0 1 1 13.985 13.985 14.005 14.005 0 0 1-13.985-13.985zm-5.946 12.663a11.233 11.233 0 1 1-11.122 11.233 11.28 11.28 0 0 1 11.122-11.233z" class="cls-1" data-name="Path 15" transform="translate(-20.1 -11)"/>
    </g>
</svg>
