<?xml version="1.0" encoding="utf-8"?>
<!-- Generator: Adobe Illustrator 19.0.0, SVG Export Plug-In . SVG Version: 6.00 Build 0)  -->
<svg version="1.1" id="Layer_1" xmlns="http://www.w3.org/2000/svg" xmlns:xlink="http://www.w3.org/1999/xlink" x="0px" y="0px"
	 viewBox="0 0 83.5 66.1" style="enable-background:new 0 0 83.5 66.1;" xml:space="preserve">
<style type="text/css">
	.st0{fill:#3C2D7A;}
	.st1{fill:#2B2460;}
	.st2{fill:#FFD246;}
	.st3{fill:#2491D0;}
	.st4{fill:#F9F9FA;}
	.st5{fill:#73C046;}
</style>
<g id="XMLID_20_">
	<rect id="XMLID_4_" x="33.7" y="52.3" class="st0" width="15" height="5.4"/>
	<g id="XMLID_3_">
		<path id="XMLID_2_" class="st0" d="M66.3,53H15.9c-1,0-1.8-0.8-1.8-1.8V8.5c0-1,0.8-1.8,1.8-1.8h50.4c1,0,1.8,0.8,1.8,1.8v42.7
			C68.1,52.2,67.3,53,66.3,53z"/>
		<path id="XMLID_6_" class="st1" d="M14.1,45.8v3.1c0,2.3,1.9,4.1,4.1,4.1H64c2.3,0,4.1-1.9,4.1-4.1v-3.1H14.1z"/>
	</g>
	<path id="XMLID_9_" class="st1" d="M56.1,60.6V59c0-1.1-0.9-2-2-2H28.3c-1.1,0-2,0.9-2,2v1.5H56.1z"/>
	<g id="XMLID_10_">
		<polygon id="XMLID_7_" class="st2" points="20.6,14.1 26.2,10.4 31.8,14.1 31.8,27 20.6,27 		"/>
		<path id="XMLID_8_" class="st3" d="M17.8,16.4l0.6,0.8c0.1,0.2,0.4,0.2,0.6,0.1l7.8-5.8c0.2-0.1,0.2-0.4,0.1-0.6l-0.6-0.8
			c-0.1-0.2-0.4-0.2-0.6-0.1l-7.8,5.8C17.7,15.9,17.6,16.2,17.8,16.4z"/>
		<path id="XMLID_11_" class="st3" d="M34.5,16l-0.6,0.8c-0.1,0.2-0.4,0.2-0.6,0.1l-7.8-5.8c-0.2-0.1-0.2-0.4-0.1-0.6L26,9.8
			c0.1-0.2,0.4-0.2,0.6-0.1l7.8,5.8C34.6,15.6,34.6,15.9,34.5,16z"/>
	</g>
	<path id="XMLID_12_" class="st4" d="M41,24h-1.1c-0.2,0-0.4-0.2-0.4-0.4V10c0-0.2,0.2-0.4,0.4-0.4H41c0.2,0,0.4,0.2,0.4,0.4v13.5
		C41.4,23.8,41.2,24,41,24z"/>
	<path id="XMLID_13_" class="st4" d="M39.9,24.3h24c0.2,0,0.4-0.2,0.4-0.4v-1.1c0-0.2-0.2-0.4-0.4-0.4h-24c-0.2,0-0.4,0.2-0.4,0.4
		v1.1C39.5,24.1,39.7,24.3,39.9,24.3z"/>
	<path id="XMLID_19_" class="st4" d="M41,42.8h-1.1c-0.2,0-0.4-0.2-0.4-0.4V28.8c0-0.2,0.2-0.4,0.4-0.4H41c0.2,0,0.4,0.2,0.4,0.4
		v13.5C41.4,42.6,41.2,42.8,41,42.8z"/>
	<path id="XMLID_18_" class="st4" d="M39.9,43h24c0.2,0,0.4-0.2,0.4-0.4v-1.1c0-0.2-0.2-0.4-0.4-0.4h-24c-0.2,0-0.4,0.2-0.4,0.4v1.1
		C39.5,42.9,39.7,43,39.9,43z"/>
	<rect id="XMLID_14_" x="44.1" y="11.2" class="st2" width="3.7" height="11.1"/>
	<rect id="XMLID_15_" x="51.5" y="15.8" class="st3" width="3.7" height="6.5"/>
	<rect id="XMLID_16_" x="59" y="18.7" class="st2" width="3.8" height="3.6"/>
	<path id="XMLID_17_" class="st3" d="M42.1,35.2c0,0,2.6-3.4,5.2-0.6s3.6-0.7,3.6-0.7s2.6-5.3,6.1-2.8c0,0,2.1,2.4,3.3,1l2.9-2.9
		c0,0,0.5-0.6,1.3,0c0,0,0.6,0.4,0.2,1.1c-0.4,0.7-3.6,3.8-3.6,3.8s-1.9,1.5-3.8,0c0,0-1.3-1.3-1.6-1.5c-0.2-0.2-1.5,0-2.5,1.5
		l-2.4,2.8c0,0-1.4,1.5-3,0.5l-1.9-1.6c0,0-0.5-1.1-2.1,0.6s-2.2,2.2-2.2,2.2v-2.8L42.1,35.2z"/>
	<g id="XMLID_5_">
		<circle id="XMLID_1_" class="st3" cx="27.1" cy="36" r="7.1"/>
		<path id="XMLID_23_" class="st5" d="M27.1,36h7.1c0-3.9-3.2-7.1-7.1-7.1V36z"/>
		<path id="XMLID_21_" class="st4" d="M27.1,36c0,0-6.3,3.3-6.4,3.1c-1.8-3.7-0.1-9.9,6.4-10.2V36z"/>
	</g>
</g>
</svg>
