<?xml version="1.0" encoding="utf-8"?>
<!-- Generator: Adobe Illustrator 19.0.0, SVG Export Plug-In . SVG Version: 6.00 Build 0)  -->
<svg version="1.1" id="Layer_1" xmlns="http://www.w3.org/2000/svg" xmlns:xlink="http://www.w3.org/1999/xlink" x="0px" y="0px"
	 viewBox="-497 507.9 83.5 66.1" style="enable-background:new -497 507.9 83.5 66.1;" xml:space="preserve">
<style type="text/css">
	.st0{fill:#FFD347;}
	.st1{fill:#3C2D7A;}
	.st2{fill:#FFD246;}
	.st3{fill:#EDB288;}
	.st4{fill:#E2B740;}
	.st5{fill:#3C277A;}
	.st6{opacity:0.13;fill:#FFFFFF;}
</style>
<g id="XMLID_44_">
	<g id="XMLID_45_">
		<g id="XMLID_46_">
			<polygon id="XMLID_13_" class="st0" points="-433.5,522.1 -434.8,522.1 -434.8,549.4 -436.1,549.4 -436.1,522.1 -437.3,522.1 
				-437.3,549.4 -438.6,549.4 -438.6,536.7 -439.9,536.7 -439.9,549.4 -441.1,549.4 -441.1,536.7 -442.4,536.7 -442.4,549.4 
				-443.7,549.4 -443.7,533.5 -445,533.5 -445,549.4 -446.2,549.4 -446.2,533.5 -447.5,533.5 -447.5,549.4 -448.6,549.4 
				-448.6,534.8 -449.9,534.8 -449.9,549.4 -451.3,549.4 -451.3,534.8 -452.6,534.8 -452.6,549.4 -453.7,549.4 -453.7,525.9 
				-455.1,525.9 -455.1,549.4 -456.4,549.4 -456.4,525.9 -457.5,525.9 -457.5,549.4 -458.8,549.4 -458.8,538 -460.2,538 
				-460.2,549.4 -461.3,549.4 -461.3,538 -462.6,538 -462.6,549.4 -464,549.4 -464,535.4 -465.1,535.4 -465.1,549.4 -466.4,549.4 
				-466.4,535.4 -467.7,535.4 -467.7,549.4 -470.2,549.4 -470.2,550.6 -431,550.6 -431,549.4 -433.5,549.4 			"/>
			<path id="XMLID_56_" class="st1" d="M-465.9,533.5c2.5,0,4.4-2,4.4-4.4s-2-4.4-4.4-4.4c-2.5,0-4.4,2-4.4,4.4
				S-468.2,533.5-465.9,533.5z M-465.9,525.9c1.8,0,3.2,1.4,3.2,3.2c0,0.7-0.2,1.4-0.7,2c-0.1-0.6-0.5-1.1-0.9-1.4
				c0.2-0.4,0.4-0.7,0.4-1.2c0-1.1-0.8-1.9-1.9-1.9s-1.9,0.8-1.9,1.9c0,0.5,0.1,0.8,0.4,1.2c-0.5,0.4-0.8,0.8-0.9,1.4
				c-0.5-0.6-0.7-1.2-0.7-2C-468.9,527.3-467.5,525.9-465.9,525.9z"/>
			<path id="XMLID_53_" class="st1" d="M-455.6,524c2.5,0,4.4-2,4.4-4.4s-2-4.4-4.4-4.4c-2.5,0-4.4,2-4.4,4.4S-458.1,524-455.6,524z
				 M-455.6,516.4c1.8,0,3.2,1.4,3.2,3.2c0,0.7-0.2,1.4-0.7,2c-0.1-0.6-0.5-1.1-0.9-1.4c0.2-0.4,0.4-0.7,0.4-1.2
				c0-1.1-0.8-1.9-1.9-1.9s-1.9,0.8-1.9,1.9c0,0.5,0.1,0.8,0.4,1.2c-0.5,0.4-0.8,0.8-0.9,1.4c-0.5-0.6-0.7-1.2-0.7-2
				C-458.8,517.9-457.4,516.4-455.6,516.4z"/>
			<path id="XMLID_50_" class="st1" d="M-445.6,531.6c2.5,0,4.4-2,4.4-4.4s-2-4.4-4.4-4.4c-2.5,0-4.4,2-4.4,4.4
				S-447.9,531.6-445.6,531.6z M-445.6,524c1.8,0,3.2,1.4,3.2,3.2c0,0.7-0.2,1.4-0.7,2c-0.1-0.6-0.5-1.1-0.9-1.4
				c0.2-0.4,0.4-0.7,0.4-1.2c0-1.1-0.8-1.9-1.9-1.9s-1.9,0.8-1.9,1.9c0,0.5,0.1,0.8,0.4,1.2c-0.5,0.4-0.8,0.8-0.9,1.4
				c-0.5-0.6-0.7-1.2-0.7-2C-448.6,525.4-447.3,524-445.6,524z"/>
			<path id="XMLID_47_" class="st1" d="M-435.4,520.5c2.5,0,4.4-2,4.4-4.4s-2-4.5-4.4-4.5c-2.5,0-4.4,2-4.4,4.4
				S-437.8,520.5-435.4,520.5z M-435.4,512.9c1.8,0,3.2,1.4,3.2,3.2c0,0.7-0.2,1.4-0.7,2c-0.1-0.6-0.5-1.1-0.9-1.4
				c0.2-0.4,0.4-0.7,0.4-1.2c0-1.1-0.8-1.9-1.9-1.9s-1.9,0.8-1.9,1.9c0,0.5,0.1,0.8,0.4,1.2c-0.5,0.4-0.8,0.8-0.9,1.4
				c-0.5-0.6-0.7-1.2-0.7-2C-438.6,514.3-437.1,512.9-435.4,512.9z"/>
		</g>
	</g>
</g>
<path class="st2" d="M-444.2,560.8l8.2-3.9c1.8-0.9,4-0.2,5,1.5l-16.8,10.8c-2.2,1-4.8,1.3-7.2,0.8l-11.6-3.2
	c-1.1-0.3-2.2-0.2-3.2,0.3l-2.4,1.3l0.3-11.8l0.1,0c3.5-2.5,8-2.8,11.7-0.8l0.7,0.4c1.1,0.6,2.3,0.9,3.5,0.9l6.8,0.2
	C-446.8,557.4-444.9,558.8-444.2,560.8L-444.2,560.8z M-444.2,560.8"/>
<path class="st3" d="M-455.1,561.3l10.1,0.3"/>
<path class="st4" d="M-443.7,563.1L-443.7,563.1l-11.2-0.3c-0.5,0-0.9-0.4-0.9-1c0-0.5,0.4-0.9,1-0.9l10.1,0.3
	c0-0.2-0.1-0.3-0.1-0.5c-0.5-1.6-2.1-2.8-3.8-2.8l-6.8-0.2c-1.4,0-2.7-0.4-3.9-1l-0.7-0.4c-3.4-1.8-7.6-1.5-10.8,0.8
	c-0.4,0.3-1,0.2-1.3-0.2c-0.3-0.4-0.2-1,0.2-1.3c3.7-2.7,8.7-3,12.7-0.9l0.7,0.4c1,0.5,2,0.8,3.1,0.8l6.8,0.2c1.6,0,3.1,0.7,4.2,1.9
	c1.1,1.2,1.7,2.7,1.6,4.3C-442.7,562.7-443.1,563.1-443.7,563.1L-443.7,563.1z M-443.7,563.1"/>
<path class="st5" d="M-472.1,568.5l0,1.3l-7.4-0.2l0.4-16.3l7.4,0.2l-0.1,3.2L-472.1,568.5z M-472.1,568.5"/>
<path class="st6" d="M-479.1,553.8l-0.4,15.8l7.4,0.2l0-0.1C-476.3,567.3-478.5,557.3-479.1,553.8z"/>
</svg>
