<?xml version="1.0" encoding="utf-8"?>
<!-- Generator: Adobe Illustrator 19.0.0, SVG Export Plug-In . SVG Version: 6.00 Build 0)  -->
<svg version="1.1" id="Layer_1" xmlns="http://www.w3.org/2000/svg" xmlns:xlink="http://www.w3.org/1999/xlink" x="0px" y="0px"
	 viewBox="0 0 83.5 66.1" style="enable-background:new 0 0 83.5 66.1;" xml:space="preserve">
<style type="text/css">
	.st0{fill:#3C2D7A;}
	.st1{fill:#44318D;}
	.st2{fill:#FFD347;}
	.st3{clip-path:url(#XMLID_29_);fill:#FFD347;}
	.st4{clip-path:url(#XMLID_30_);fill:#44318D;}
	.st5{fill:#E5E8E9;}
	.st6{fill:#2691D0;}
	.st7{fill:#D6DCEC;}
</style>
<g>
	<path id="XMLID_27_" class="st0" d="M76.1,46.4H53.2L35.1,15.7h-7.2v-4.4h9.7L55.7,42h20.4V46.4z"/>
	<rect id="XMLID_26_" x="10.3" y="11.3" class="st1" width="4.4" height="4.4"/>
	<rect id="XMLID_25_" x="19.1" y="11.3" class="st1" width="4.4" height="4.4"/>
	<path id="XMLID_24_" class="st2" d="M78.3,15.7H47.6c-1.2,0-2.2-1-2.2-2.2s1-2.2,2.2-2.2h30.7c1.2,0,2.2,1,2.2,2.2
		S79.5,15.7,78.3,15.7L78.3,15.7z"/>
	<g>
		<g>
			<defs>
				<rect id="XMLID_23_" x="10.3" y="11.3" width="70.2" height="42.4"/>
			</defs>
			<clipPath id="XMLID_29_">
				<use xlink:href="#XMLID_23_"  style="overflow:visible;"/>
			</clipPath>
			<path id="XMLID_22_" class="st3" d="M43.2,46.4H12.5c-1.2,0-2.2-1-2.2-2.2c0-1.2,1-2.2,2.2-2.2h30.7c1.2,0,2.2,1,2.2,2.2
				C45.4,45.4,44.4,46.4,43.2,46.4L43.2,46.4z"/>
		</g>
		<g>
			<defs>
				<rect id="XMLID_21_" x="10.3" y="11.3" width="70.2" height="42.4"/>
			</defs>
			<clipPath id="XMLID_30_">
				<use xlink:href="#XMLID_21_"  style="overflow:visible;"/>
			</clipPath>
			<path id="XMLID_20_" class="st4" d="M67.3,53c-0.9-0.9-0.9-2.2,0-3.1l5.7-5.7l-5.7-5.7c-0.9-0.9-0.9-2.2,0-3.1s2.2-0.9,3.1,0
				l8.8,8.8L70.4,53C69.6,53.8,68.2,53.8,67.3,53L67.3,53z"/>
		</g>
	</g>
</g>
<path id="XMLID_19_" class="st2" d="M31.1,39.8H4.1c-0.9,0-1.6-0.7-1.6-1.6V19.5c0-0.9,0.7-1.6,1.6-1.6h27.1c0.9,0,1.6,0.7,1.6,1.6
	v18.7C32.7,39.1,32,39.8,31.1,39.8z"/>
<path id="XMLID_18_" class="st0" d="M4.1,39.8h5.7V17.9H4.1c-0.9,0-1.6,0.7-1.6,1.6v18.7C2.5,39.1,3.2,39.8,4.1,39.8z"/>
<path id="XMLID_17_" class="st5" d="M14,20.5h-2.1c-0.3,0-0.5-0.2-0.5-0.5c0-0.3,0.2-0.5,0.5-0.5H14c0.3,0,0.5,0.2,0.5,0.5
	C14.5,20.3,14.2,20.5,14,20.5z"/>
<path id="XMLID_16_" class="st6" d="M7.7,20.5H4.6c-0.3,0-0.5-0.2-0.5-0.5c0-0.3,0.2-0.5,0.5-0.5h3.1c0.3,0,0.5,0.2,0.5,0.5
	C8.2,20.3,8,20.5,7.7,20.5z"/>
<g>
	<path id="XMLID_15_" class="st7" d="M7.7,25.7H4.6c-0.3,0-0.5-0.2-0.5-0.5c0-0.3,0.2-0.5,0.5-0.5h3.1c0.3,0,0.5,0.2,0.5,0.5
		C8.2,25.5,8,25.7,7.7,25.7z"/>
	<path id="XMLID_14_" class="st7" d="M7.7,29.9H4.6c-0.3,0-0.5-0.2-0.5-0.5c0-0.3,0.2-0.5,0.5-0.5h3.1c0.3,0,0.5,0.2,0.5,0.5
		C8.2,29.7,8,29.9,7.7,29.9z"/>
	<path id="XMLID_13_" class="st7" d="M7.7,34.1H4.6c-0.3,0-0.5-0.2-0.5-0.5c0-0.3,0.2-0.5,0.5-0.5h3.1c0.3,0,0.5,0.2,0.5,0.5
		C8.2,33.8,8,34.1,7.7,34.1z"/>
	<path id="XMLID_12_" class="st7" d="M7.7,27.8H4.6c-0.3,0-0.5-0.2-0.5-0.5c0-0.3,0.2-0.5,0.5-0.5h3.1c0.3,0,0.5,0.2,0.5,0.5
		C8.2,27.6,8,27.8,7.7,27.8z"/>
	<path id="XMLID_11_" class="st7" d="M7.7,32H4.6c-0.3,0-0.5-0.2-0.5-0.5c0-0.3,0.2-0.5,0.5-0.5h3.1c0.3,0,0.5,0.2,0.5,0.5
		C8.2,31.8,8,32,7.7,32z"/>
</g>
<g>
	<path id="XMLID_10_" class="st5" d="M6.7,37.2H4.6c-0.3,0-0.5-0.2-0.5-0.5c0-0.3,0.2-0.5,0.5-0.5h2.1c0.3,0,0.5,0.2,0.5,0.5
		C7.2,37,7,37.2,6.7,37.2z"/>
	<path id="XMLID_9_" class="st5" d="M6.7,22.6H4.6c-0.3,0-0.5-0.2-0.5-0.5s0.2-0.5,0.5-0.5h2.1c0.3,0,0.5,0.2,0.5,0.5
		S7,22.6,6.7,22.6z"/>
</g>
<path id="XMLID_8_" class="st6" d="M18.1,20.5H16c-0.3,0-0.5-0.2-0.5-0.5c0-0.3,0.2-0.5,0.5-0.5h2.1c0.3,0,0.5,0.2,0.5,0.5
	C18.6,20.3,18.4,20.5,18.1,20.5z"/>
<g>
	<path id="XMLID_7_" class="st5" d="M22.3,20.5h-2.1c-0.3,0-0.5-0.2-0.5-0.5c0-0.3,0.2-0.5,0.5-0.5h2.1c0.3,0,0.5,0.2,0.5,0.5
		C22.8,20.3,22.6,20.5,22.3,20.5z"/>
	<path id="XMLID_6_" class="st5" d="M26.4,20.5h-2.1c-0.3,0-0.5-0.2-0.5-0.5c0-0.3,0.2-0.5,0.5-0.5h2.1c0.3,0,0.5,0.2,0.5,0.5
		C27,20.3,26.7,20.5,26.4,20.5z"/>
	<path id="XMLID_5_" class="st5" d="M30.6,20.5h-2.1c-0.3,0-0.5-0.2-0.5-0.5c0-0.3,0.2-0.5,0.5-0.5h2.1c0.3,0,0.5,0.2,0.5,0.5
		C31.1,20.3,30.9,20.5,30.6,20.5z"/>
</g>
<g>
	<path id="XMLID_4_" class="st6" d="M15,27.3c0.7,0,1.3,0.3,1.7,0.8c0.2,0.2,0.5,0.3,0.7,0.1c0.2-0.2,0.3-0.5,0.1-0.7
		c-0.6-0.8-1.5-1.3-2.5-1.3c-1.7,0-3.1,1.4-3.1,3.1c0,1.7,1.4,3.1,3.1,3.1c1,0,1.9-0.5,2.5-1.2c0.2-0.2,0.1-0.6-0.1-0.7
		c-0.2-0.2-0.6-0.1-0.7,0.1c-0.4,0.5-1,0.8-1.7,0.8c-1.1,0-2.1-0.9-2.1-2.1C12.9,28.2,13.8,27.3,15,27.3z"/>
	<path class="st6" d="M23.8,28.3c0-1.1-0.9-2.1-2.1-2.1h-2.6c-0.3,0-0.5,0.2-0.5,0.5V32c0,0.3,0.2,0.5,0.5,0.5
		c0.3,0,0.5-0.2,0.5-0.5v-1.6H21l1.4,1.9c0.1,0.1,0.3,0.2,0.4,0.2c0.1,0,0.2,0,0.3-0.1c0.2-0.2,0.3-0.5,0.1-0.7l-1-1.3
		C23.2,30.2,23.8,29.3,23.8,28.3z M21.8,29.4h-2.1v-2.1h2.1c0.6,0,1,0.5,1,1C22.8,28.9,22.3,29.4,21.8,29.4z"/>
	<path id="XMLID_1_" class="st6" d="M30.1,26.7c0-0.2-0.2-0.4-0.4-0.5c-0.2,0-0.5,0.1-0.6,0.3l-1.6,4l-1.6-4
		c-0.1-0.2-0.3-0.4-0.6-0.3c-0.2,0-0.4,0.2-0.4,0.5l-0.5,5.2c0,0.3,0.2,0.5,0.5,0.6c0.3,0,0.5-0.2,0.6-0.5l0.3-3.1l1.3,3.2
		c0.1,0.2,0.3,0.3,0.5,0.3s0.4-0.1,0.5-0.3l1.3-3.2l0.3,3.1c0,0.3,0.3,0.5,0.5,0.5c0,0,0,0,0.1,0c0.3,0,0.5-0.3,0.5-0.6L30.1,26.7z"
		/>
</g>
</svg>
