<?xml version="1.0" encoding="utf-8"?>
<!-- Generator: Adobe Illustrator 19.0.0, SVG Export Plug-In . SVG Version: 6.00 Build 0)  -->
<svg version="1.1" id="Layer_1" xmlns="http://www.w3.org/2000/svg" xmlns:xlink="http://www.w3.org/1999/xlink" x="0px" y="0px"
	 viewBox="0 0 83.5 66.1" style="enable-background:new 0 0 83.5 66.1;" xml:space="preserve">
<style type="text/css">
	.st0{fill:#2691D0;}
	.st1{fill:#FFD347;}
	.st2{fill:#3C2D7A;}
	.st3{fill:#2C2460;}
	.st4{fill:#949A9B;}
	.st5{fill:#D1D8DA;}
	.st6{fill:#FABC15;}
	.st7{fill:#666C77;}
	.st8{fill:#09719C;}
	.st9{clip-path:url(#XMLID_63_);fill:#FABC15;}
	.st10{fill:#FFFFFF;}
	.st11{opacity:0.56;}
	.st12{fill:none;stroke:#000000;stroke-width:0.5;stroke-miterlimit:10;}
	.st13{fill:none;stroke:#000000;stroke-width:0.5;stroke-miterlimit:10;stroke-dasharray:0.8921,0.8921;}
</style>
<g id="XMLID_49_">
	<path id="XMLID_99_" class="st0" d="M38.6,61.5h-9.6c0.3-0.9,0.2-1.9-0.2-2.7c-0.5-0.8-1.3-1.4-2.2-1.5c-0.9-0.2-1.9,0.1-2.6,0.7
		c-0.7,0.6-1.1,1.5-1.1,2.4c0,0.3,0.1,0.6,0.1,0.9c-1.3-0.4-2.2-1.6-2.2-3v-3.2c0-0.6-0.5-1.1-1.1-1.1c-0.6,0-1.1,0.5-1.1,1.1v3.2
		c0,2.9,2.3,5.3,5.3,5.3h14.7c0.6,0,1.1-0.5,1.1-1.1C39.6,61.9,39.2,61.5,38.6,61.5L38.6,61.5z M26,59.4c0.4,0,0.8,0.3,1,0.6
		c0.2,0.4,0.1,0.8-0.2,1.1c-0.3,0.3-0.8,0.4-1.1,0.2s-0.6-0.5-0.6-1C24.9,59.8,25.4,59.4,26,59.4L26,59.4z"/>
	<path id="XMLID_45_" class="st1" d="M26,30.7v-2.5c0-0.6-0.3-1.3-0.7-1.7c-0.5-0.5-1.1-0.7-1.7-0.7h-2.5c-5.4,0-9.8,4.4-9.8,9.8
		v9.8c0,5.4,4.4,9.8,9.8,9.8h2.5c0.6,0,1.3-0.3,1.7-0.7s0.7-1.1,0.7-1.7v-2.5c0-1.3-1.1-2.5-2.5-2.5h-2.5c-0.6,0-1.3-0.3-1.7-0.7
		c-0.5-0.5-0.7-1.1-0.7-1.7v-9.8c0-1.3,1.1-2.5,2.5-2.5h2.5c0.6,0,1.3-0.3,1.7-0.7C25.7,31.9,26,31.3,26,30.7L26,30.7z"/>
	<rect id="XMLID_44_" x="38.6" y="27.9" class="st2" width="33.6" height="23.1"/>
	<path id="XMLID_43_" class="st3" d="M44.9,28.9v-1.1h-6.3V51h33.6v-5.3H61.7C52.4,45.7,44.9,38.2,44.9,28.9L44.9,28.9z"/>
	<rect id="XMLID_42_" x="38.6" y="51" class="st4" width="33.6" height="12.6"/>
	<path id="XMLID_41_" class="st5" d="M39.6,55.2h3.2v3.2C41.1,58.3,39.6,56.9,39.6,55.2L39.6,55.2z"/>
	<path id="XMLID_40_" class="st5" d="M39.6,59.4h3.2v3.2C41.1,62.5,39.6,61.1,39.6,59.4L39.6,59.4z"/>
	<path id="XMLID_39_" class="st5" d="M39.6,51h3.2v3.2C41.1,54.1,39.6,52.7,39.6,51L39.6,51z"/>
	<path id="XMLID_38_" class="st5" d="M43.8,55.2H47v3.2C45.3,58.3,43.8,56.9,43.8,55.2L43.8,55.2z"/>
	<path id="XMLID_37_" class="st5" d="M43.8,59.4H47v3.2C45.3,62.5,43.8,61.1,43.8,59.4L43.8,59.4z"/>
	<path id="XMLID_36_" class="st5" d="M43.8,51H47v3.2C45.3,54.1,43.8,52.7,43.8,51L43.8,51z"/>
	<path id="XMLID_35_" class="st5" d="M48,59.4h15.8v3.2H51.2C49.5,62.5,48,61.1,48,59.4L48,59.4z"/>
	<path id="XMLID_34_" class="st5" d="M48,55.2h3.2v3.2C49.5,58.3,48,56.9,48,55.2L48,55.2z"/>
	<path id="XMLID_33_" class="st5" d="M48,51h3.2v3.2C49.5,54.1,48,52.7,48,51L48,51z"/>
	<path id="XMLID_32_" class="st5" d="M52.2,55.2h3.2v3.2C53.7,58.3,52.2,56.9,52.2,55.2L52.2,55.2z"/>
	<path id="XMLID_31_" class="st5" d="M52.2,51h3.2v3.2C53.7,54.1,52.2,52.7,52.2,51L52.2,51z"/>
	<path id="XMLID_30_" class="st5" d="M56.4,55.2h3.2v3.2C57.9,58.3,56.4,56.9,56.4,55.2L56.4,55.2z"/>
	<path id="XMLID_29_" class="st5" d="M56.4,51h3.2v3.2C57.9,54.1,56.4,52.7,56.4,51L56.4,51z"/>
	<path id="XMLID_28_" class="st5" d="M60.6,55.2h3.2v3.2C62.1,58.3,60.6,56.9,60.6,55.2L60.6,55.2z"/>
	<path id="XMLID_27_" class="st5" d="M60.6,51h3.2v3.2C62.1,54.1,60.6,52.7,60.6,51L60.6,51z"/>
	<path id="XMLID_26_" class="st5" d="M64.8,55.2H68v3.2C66.3,58.3,64.8,56.9,64.8,55.2L64.8,55.2z"/>
	<path id="XMLID_25_" class="st5" d="M64.8,59.4H68v3.2C66.3,62.5,64.8,61.1,64.8,59.4L64.8,59.4z"/>
	<path id="XMLID_24_" class="st5" d="M64.8,51H68v3.2C66.3,54.1,64.8,52.7,64.8,51L64.8,51z"/>
	<path id="XMLID_23_" class="st5" d="M69,55.2h3.2v3.2C70.5,58.3,69,56.9,69,55.2L69,55.2z"/>
	<path id="XMLID_22_" class="st5" d="M69,59.4h3.2v3.2C70.5,62.5,69,61.1,69,59.4L69,59.4z"/>
	<path id="XMLID_21_" class="st5" d="M69,51h3.2v3.2C70.5,54.1,69,52.7,69,51L69,51z"/>
	<path id="XMLID_20_" class="st1" d="M58.9,34.2c-0.3-0.1-0.6-0.1-0.8,0c-0.3,0.1-0.5,0.3-0.5,0.6l-2.2,5.8l-2.2-5.8
		c-0.2-0.5-0.8-0.8-1.3-0.6c-0.5,0.2-0.8,0.8-0.6,1.3l3.2,8.4c0.2,0.4,0.5,0.7,1,0.7s0.8-0.3,1-0.7l3.2-8.4c0.1-0.3,0.1-0.6,0-0.8
		C59.4,34.5,59.2,34.3,58.9,34.2L58.9,34.2z"/>
	<path id="XMLID_70_" class="st1" d="M68,37.3c0-1.7-1.4-3.2-3.2-3.2h-2.1c-0.6,0-1.1,0.5-1.1,1.1v8.4c0,0.6,0.5,1.1,1.1,1.1
		s1.1-0.5,1.1-1.1v-3.2h1.1c0.6,0,1.1,0.5,1.1,1.1v2.1c0,0.6,0.5,1.1,1.1,1.1s1.1-0.5,1.1-1.1v-2.1c0-0.8-0.3-1.5-0.8-2.1
		C67.7,38.8,68,38.1,68,37.3L68,37.3z M63.8,38.4v-2.1h1.1c0.6,0,1.1,0.5,1.1,1.1c0,0.6-0.5,1.1-1.1,1.1H63.8z"/>
	<path id="XMLID_17_" class="st1" d="M48,36.3c0.6,0,1.1-0.5,1.1-1.1c0-0.6-0.5-1.1-1.1-1.1h-4.2c-0.6,0-1.1,0.5-1.1,1.1
		c0,0.6,0.5,1.1,1.1,1.1h1.1v6.3h-1.1c-0.6,0-1.1,0.5-1.1,1.1c0,0.6,0.5,1.1,1.1,1.1H48c0.6,0,1.1-0.5,1.1-1.1
		c0-0.6-0.5-1.1-1.1-1.1H47v-6.3H48z"/>
	<path id="XMLID_16_" class="st6" d="M43.8,42.6c-0.6,0-1.1,0.5-1.1,1.1c0,0.6,0.5,1.1,1.1,1.1H48c0.6,0,1.1-0.5,1.1-1.1
		c0-0.6-0.5-1.1-1.1-1.1H47V37c-0.5-0.9-0.9-1.9-1.2-2.9h-1.9c-0.6,0-1.1,0.5-1.1,1.1c0,0.6,0.5,1.1,1.1,1.1h1.1v6.3H43.8z"/>
	<path id="XMLID_15_" class="st6" d="M54.4,44c0.2,0.4,0.5,0.6,0.9,0.6c0.1,0,0.2,0,0.3-0.1C55.3,44.4,54.9,44.3,54.4,44L54.4,44z"
		/>
	<path id="XMLID_59_" class="st7" d="M72.2,55.2v-1.1H69V51H68v3.2h-3.2V51h-1.1v3.2h-3.2V51h-1.1v3.2h-3.2V51h-1.1v3.2h-3.2V51
		h-1.1v3.2H48V51H47v3.2h-3.2V51h-1.1v3.2h-4.2v1.1h4.2v3.2h-4.2v1.1h4.2v4.2h1.1v-4.2H47v4.2H48v-4.2h15.8v4.2h1.1v-4.2H68v4.2H69
		v-4.2h3.2v-1.1H69v-3.2H72.2z M43.8,58.3v-3.2H47v3.2H43.8z M48,58.3v-3.2h3.2v3.2H48z M52.2,58.3v-3.2h3.2v3.2H52.2z M56.4,58.3
		v-3.2h3.2v3.2H56.4z M60.6,58.3v-3.2h3.2v3.2H60.6z M68,58.3h-3.2v-3.2H68V58.3z"/>
	<path id="XMLID_7_" class="st0" d="M52.2,2.6h-21c-1.2,0-2.1,0.9-2.1,2.1v14.7c0,1.2,0.9,2.1,2.1,2.1h11.2l3.5,9.5l3.7-9.5h2.6
		c1.2,0,2.1-0.9,2.1-2.1V4.7C54.3,3.6,53.4,2.6,52.2,2.6L52.2,2.6z"/>
	<path id="XMLID_6_" class="st8" d="M49.1,17.3c-8.1,0-14.7-6.6-14.7-14.7h-3.2c-1.2,0-2.1,0.9-2.1,2.1v14.7c0,1.2,0.9,2.1,2.1,2.1
		h11.2l3.5,9.5l3.7-9.5h2.6c1.2,0,2.1-0.9,2.1-2.1v-2.1H49.1z"/>
	<g id="XMLID_53_">
		<g id="XMLID_54_">
			<defs>
				<rect id="XMLID_5_" x="11.3" y="2.6" width="60.9" height="60.9"/>
			</defs>
			<clipPath id="XMLID_63_">
				<use xlink:href="#XMLID_5_"  style="overflow:visible;"/>
			</clipPath>
			<path id="XMLID_4_" class="st9" d="M25.6,52h-2.5c-5.4,0-9.8-4.4-9.8-9.8v-9.8c0-1.3,0.3-2.6,0.8-3.7c-1.8,1.8-2.9,4.3-2.9,6.9
				v9.8c0,5.4,4.4,9.8,9.8,9.8h2.5c1.3,0,2.5-1.1,2.5-2.5V52H25.6z"/>
		</g>
	</g>
	<path id="XMLID_3_" class="st0" d="M27.6,45.7c0.2,0.2,0.5,0.3,0.7,0.3c0.3,0,0.6-0.1,0.8-0.3c1.4-1.4,2.2-3.3,2.2-5.2
		s-0.8-3.8-2.2-5.2c-0.2-0.2-0.5-0.4-0.8-0.4c-0.3,0-0.6,0.1-0.8,0.3c-0.2,0.2-0.3,0.5-0.3,0.8c0,0.3,0.1,0.6,0.4,0.8
		c1,1,1.5,2.3,1.5,3.7c0,1.4-0.6,2.7-1.5,3.7C27.2,44.6,27.2,45.3,27.6,45.7L27.6,45.7z"/>
	<path id="XMLID_2_" class="st0" d="M24.6,42.7c0.4,0.4,1.1,0.4,1.5,0c1.2-1.2,1.2-3.2,0-4.4c-0.2-0.2-0.5-0.4-0.8-0.4
		c-0.3,0-0.6,0.1-0.8,0.3c-0.2,0.2-0.3,0.5-0.3,0.8c0,0.3,0.1,0.6,0.4,0.8c0.2,0.2,0.3,0.5,0.3,0.8c0,0.3-0.1,0.5-0.3,0.8
		C24.2,41.6,24.2,42.3,24.6,42.7L24.6,42.7z"/>
	<path id="XMLID_48_" class="st0" d="M30.6,47.1c-0.2,0.2-0.3,0.5-0.3,0.8c0,0.3,0.1,0.5,0.3,0.8c0.2,0.2,0.5,0.3,0.8,0.3
		c0.3,0,0.5-0.1,0.8-0.3c2.2-2.2,3.4-5.1,3.4-8.2s-1.2-6-3.4-8.2c-0.4-0.4-1.1-0.4-1.5,0c-0.4,0.4-0.4,1.1,0,1.5
		C34.2,37.5,34.2,43.4,30.6,47.1L30.6,47.1z"/>
</g>
<circle id="XMLID_1_" class="st10" cx="41.2" cy="8.2" r="4.2"/>
<path id="XMLID_55_" class="st10" d="M47.8,18.5c-0.8-2.9-3.5-5-6.6-5c-3.2,0-5.8,2.1-6.6,5H47.8z"/>
<path id="XMLID_50_" class="st2" d="M76.6,21.3h-15c-2,0-3.6-1.6-3.6-3.6V6.2c0-2,1.6-3.6,3.6-3.6h15c2,0,3.6,1.6,3.6,3.6v11.5
	C80.1,19.6,78.5,21.3,76.6,21.3z"/>
<path id="XMLID_51_" class="st5" d="M76.7,7.4H61.3c-0.4,0-0.7-0.3-0.7-0.7v0C60.6,6.3,61,6,61.3,6h15.4c0.4,0,0.7,0.3,0.7,0.7v0
	C77.4,7.1,77.1,7.4,76.7,7.4z"/>
<path id="XMLID_56_" class="st5" d="M76.7,9.4H61.3c-0.4,0-0.7-0.3-0.7-0.7v0C60.6,8.3,61,8,61.3,8h15.4c0.4,0,0.7,0.3,0.7,0.7v0
	C77.4,9.1,77.1,9.4,76.7,9.4z"/>
<path id="XMLID_57_" class="st5" d="M76.7,11.4H61.3c-0.4,0-0.7-0.3-0.7-0.7v0c0-0.4,0.3-0.7,0.7-0.7h15.4c0.4,0,0.7,0.3,0.7,0.7v0
	C77.4,11.1,77.1,11.4,76.7,11.4z"/>
<path id="XMLID_58_" class="st5" d="M76.7,13.4H61.3c-0.4,0-0.7-0.3-0.7-0.7v0c0-0.4,0.3-0.7,0.7-0.7h15.4c0.4,0,0.7,0.3,0.7,0.7v0
	C77.4,13.1,77.1,13.4,76.7,13.4z"/>
<path id="XMLID_60_" class="st5" d="M76.7,15.4H61.3c-0.4,0-0.7-0.3-0.7-0.7v0c0-0.4,0.3-0.7,0.7-0.7h15.4c0.4,0,0.7,0.3,0.7,0.7v0
	C77.4,15.1,77.1,15.4,76.7,15.4z"/>
<path id="XMLID_61_" class="st5" d="M76.7,17.4H61.3c-0.4,0-0.7-0.3-0.7-0.7l0,0c0-0.4,0.3-0.7,0.7-0.7h15.4c0.4,0,0.7,0.3,0.7,0.7
	l0,0C77.4,17.1,77.1,17.4,76.7,17.4z"/>
<g id="XMLID_52_" class="st11">
	<g id="XMLID_73_">
		<line id="XMLID_76_" class="st12" x1="54.3" y1="11.9" x2="54.8" y2="11.9"/>
		<line id="XMLID_75_" class="st13" x1="55.7" y1="11.9" x2="57.1" y2="11.9"/>
		<line id="XMLID_74_" class="st12" x1="57.5" y1="11.9" x2="58" y2="11.9"/>
	</g>
</g>
</svg>
