<?xml version="1.0" encoding="utf-8"?>
<!-- Generator: Adobe Illustrator 19.0.0, SVG Export Plug-In . SVG Version: 6.00 Build 0)  -->
<svg version="1.1" id="Layer_1" xmlns="http://www.w3.org/2000/svg" xmlns:xlink="http://www.w3.org/1999/xlink" x="0px" y="0px"
	 viewBox="-497 507.9 83.5 66.1" style="enable-background:new -497 507.9 83.5 66.1;" xml:space="preserve">
<style type="text/css">
	.st0{fill:#FFD246;}
	.st1{fill:none;}
	.st2{opacity:0.4;fill:none;stroke:#000000;stroke-width:0.5;stroke-miterlimit:10;stroke-dasharray:1;}
	.st3{fill:#0295CE;}
	.st4{fill:#096D8C;}
	.st5{fill:#0093DD;}
	.st6{fill:#AF8066;}
	.st7{fill:#3D324C;}
	.st8{fill:#D1D4D1;}
	.st9{fill:#0AB2E5;}
	.st10{fill:#281E54;}
	.st11{fill:#3C277A;}
	.st12{fill:#F3F2F9;}
	.st13{fill:#1A1A1A;}
	.st14{fill:#B3B3B3;}
</style>
<path class="st0" d="M-494.6,566.6c-0.1,0-0.3-0.1-0.3-0.3v-0.2c0-0.6,0.3-1.2,0.9-1.5l1.7-1.1c0.3-0.1,0.4-0.4,0.4-0.7V562
	l-0.1-0.1c-0.4-0.4-0.7-0.9-0.9-1.5l0-0.1l-0.1-0.1c-0.1-0.1-0.2-0.3-0.2-0.5V559c0-0.2,0.1-0.3,0.2-0.4l0.1-0.1v-1.2
	c0-0.1,0.2-2,2.5-2c2.3,0,2.5,1.9,2.5,2v1.2l0.1,0.1c0.1,0.1,0.2,0.3,0.2,0.4v0.9c0,0.2-0.1,0.4-0.2,0.5l-0.1,0.1l0,0.1
	c-0.2,0.6-0.5,1.1-0.9,1.5l-0.1,0.1v0.8c0,0.3,0.2,0.6,0.4,0.7l1.7,1.1c0.6,0.3,0.9,0.9,0.9,1.5v0.2c0,0.1-0.1,0.3-0.3,0.3H-494.6z
	 M-494.6,566.6"/>
<path class="st0" d="M-494.6,548.7c-0.1,0-0.3-0.1-0.3-0.3v-0.2c0-0.6,0.3-1.2,0.9-1.5l1.7-1.1c0.3-0.1,0.4-0.4,0.4-0.7v-0.8
	l-0.1-0.1c-0.4-0.4-0.7-0.9-0.9-1.5l0-0.1l-0.1-0.1c-0.1-0.1-0.2-0.3-0.2-0.5v-0.9c0-0.2,0.1-0.3,0.2-0.4l0.1-0.1v-1.2
	c0-0.1,0.2-2,2.5-2c2.3,0,2.5,1.9,2.5,2v1.2l0.1,0.1c0.1,0.1,0.2,0.3,0.2,0.4v0.9c0,0.2-0.1,0.4-0.2,0.5l-0.1,0.1l0,0.1
	c-0.2,0.6-0.5,1.1-0.9,1.5l-0.1,0.1v0.8c0,0.3,0.2,0.6,0.4,0.7l1.7,1.1c0.6,0.3,0.9,0.9,0.9,1.5v0.2c0,0.1-0.1,0.3-0.3,0.3H-494.6z
	 M-494.6,548.7"/>
<path class="st0" d="M-494.6,529.9c-0.1,0-0.3-0.1-0.3-0.3v-0.2c0-0.6,0.3-1.2,0.9-1.5l1.7-1.1c0.3-0.1,0.4-0.4,0.4-0.7v-0.8
	l-0.1-0.1c-0.4-0.4-0.7-0.9-0.9-1.5l0-0.1l-0.1-0.1c-0.1-0.1-0.2-0.3-0.2-0.5v-0.9c0-0.2,0.1-0.3,0.2-0.4l0.1-0.1v-1.2
	c0-0.1,0.2-2,2.5-2c2.3,0,2.5,1.9,2.5,2v1.2l0.1,0.1c0.1,0.1,0.2,0.3,0.2,0.4v0.9c0,0.2-0.1,0.4-0.2,0.5l-0.1,0.1l0,0.1
	c-0.2,0.6-0.5,1.1-0.9,1.5l-0.1,0.1v0.8c0,0.3,0.2,0.6,0.4,0.7l1.7,1.1c0.6,0.3,0.9,0.9,0.9,1.5v0.2c0,0.1-0.1,0.3-0.3,0.3H-494.6z
	 M-494.6,529.9"/>
<rect x="-497.2" y="524.1" class="st1" width="14.6" height="11.3"/>
<line class="st2" x1="-431" y1="543.8" x2="-437.8" y2="543.8"/>
<line class="st2" x1="-430" y1="527.8" x2="-437.8" y2="543.1"/>
<line class="st2" x1="-430" y1="559.1" x2="-437.8" y2="543.8"/>
<g>
	<path class="st3" d="M-414.7,522.9L-414.7,522.9h0.2v9.2c0,0.3-0.2,0.5-0.5,0.5h-14.5c-0.3,0-0.5-0.2-0.5-0.5v-9.2l0.1-0.1l0.1,0.1
		H-414.7z"/>
	<path class="st4" d="M-414.6,522.9L-414.6,522.9l-7.4,5.7h-0.5l-7.4-5.7l-0.1-0.1l2.6-2l3.6-2.8l1.2-1c0.2-0.2,0.5-0.2,0.7,0l1.2,1
		l3.6,2.8L-414.6,522.9z"/>
	<path class="st0" d="M-417.2,518.6v6.2l-4.8,3.7h-0.5l-4.8-3.7v-6.2c0-0.3,0.2-0.5,0.5-0.5h9.2
		C-417.4,518.1-417.2,518.3-417.2,518.6z"/>
	<g>
		<path class="st5" d="M-414.6,532.4c-0.1,0.1-0.3,0.2-0.4,0.2h-14.5c-0.2,0-0.3-0.1-0.4-0.2l6.2-4.8l1.2-0.9c0.2-0.2,0.5-0.2,0.7,0
			l1.2,0.9L-414.6,532.4z"/>
		<path class="st3" d="M-422.3,518.9c-1.8,0-3.2,1.4-3.2,3.2c0,1.8,1.4,3.2,3.2,3.2c0.1,0,0.3-0.1,0.3-0.3s-0.1-0.3-0.3-0.3
			c-1.5,0-2.7-1.2-2.7-2.7s1.2-2.7,2.7-2.7c1.5,0,2.7,1.2,2.7,2.7v1.1c0,0.3-0.2,0.5-0.5,0.5s-0.5-0.2-0.5-0.5v-1.1
			c0-0.1-0.1-0.3-0.3-0.3s-0.3,0.1-0.3,0.3c0,0.6-0.5,1.1-1.1,1.1c-0.6,0-1.1-0.5-1.1-1.1s0.5-1.1,1.1-1.1c0.1,0,0.3-0.1,0.3-0.3
			s-0.1-0.3-0.3-0.3c-0.7,0-1.4,0.5-1.6,1.2s0.1,1.4,0.7,1.8c0.6,0.4,1.4,0.3,1.9-0.2c0.1,0.6,0.6,1,1.1,1s1-0.5,1-1.1v-1.1
			C-419.1,520.3-420.5,518.9-422.3,518.9z"/>
	</g>
</g>
<g>
	<path class="st0" d="M-419.9,558.8v6.3c0,0.3-0.2,0.5-0.5,0.5h-9.4c-0.3,0-0.5-0.2-0.5-0.5V551c0-0.3,0.2-0.5,0.5-0.5h9.4
		c0.3,0,0.5,0.2,0.5,0.5V558.8z"/>
	<polygon class="st6" points="-427.7,562 -428.8,564.6 -426.2,563.5 -425.9,563 -427.2,561.7 	"/>
	<g>
		<path class="st7" d="M-428.2,553.1h6.3c0.1,0,0.3-0.1,0.3-0.3c0-0.1-0.1-0.3-0.3-0.3h-6.3c-0.1,0-0.3,0.1-0.3,0.3
			C-428.5,553-428.4,553.1-428.2,553.1z"/>
		<path class="st7" d="M-422,554.1h-6.3c-0.1,0-0.3,0.1-0.3,0.3c0,0.1,0.1,0.3,0.3,0.3h6.3c0.1,0,0.3-0.1,0.3-0.3
			C-421.7,554.3-421.8,554.1-422,554.1z"/>
		<path class="st7" d="M-423.5,555.7h-4.7c-0.1,0-0.3,0.1-0.3,0.3c0,0.1,0.1,0.3,0.3,0.3h4.7c0.1,0,0.3-0.1,0.3-0.3
			C-423.3,555.8-423.4,555.7-423.5,555.7z"/>
	</g>
	
		<rect x="-429.1" y="556.5" transform="matrix(-0.7071 0.7071 -0.7071 -0.7071 -325.6605 1249.9476)" class="st3" width="14.7" height="2.1"/>
	
		<rect x="-418.1" y="552.3" transform="matrix(-0.7071 0.7071 -0.7071 -0.7071 -321.4854 1239.864)" class="st8" width="1.1" height="2.1"/>
	<path class="st0" d="M-415.5,552.8l-0.9,0.9l-1.5-1.5l0.9-0.9c0.3-0.3,0.6-0.4,1-0.3c0.4,0.1,0.6,0.4,0.7,0.7
		C-415.1,552.1-415.2,552.5-415.5,552.8z"/>
</g>
<g>
	<path class="st3" d="M-414.6,539.8v7c0,0.3-0.2,0.5-0.5,0.5h-14.5c-0.3,0-0.5-0.2-0.5-0.5v-10.1c0-0.3,0.2-0.5,0.5-0.5h14.5
		c0.3,0,0.5,0.2,0.5,0.5V539.8z"/>
	<path class="st9" d="M-414.7,536.5l-7.1,5.7c-0.3,0.2-0.7,0.2-1,0l-7.1-5.7c0.1-0.1,0.2-0.2,0.4-0.2h14.5
		C-415,536.3-414.8,536.3-414.7,536.5z"/>
	<path class="st5" d="M-414.8,547.2c-0.1,0.1-0.2,0.1-0.3,0.1h-14.5c-0.1,0-0.3,0-0.3-0.1l5.9-6l1.1,0.9c0.3,0.2,0.7,0.2,1,0
		l1.1-0.9L-414.8,547.2z"/>
</g>
<g>
	<path class="st10" d="M-474.1,527h35.4c0.5,0,0.8,0.4,0.8,0.8v37.9c0,0.5-0.4,0.8-0.8,0.8h-35.4c-0.5,0-0.8-0.4-0.8-0.8v-37.9
		C-474.9,527.4-474.5,527-474.1,527L-474.1,527z M-474.1,527"/>
	<path class="st11" d="M-437.8,527.8v28.6c0,4.4-2.3,6.7-6.7,6.7H-480c-0.5,0-0.8-0.4-0.8-0.8c0-0.5,0.4-0.8,0.8-0.8
		c1.4,0.1,2.7-0.5,3.6-1.4c1-1,1.5-2.3,1.4-3.6v-28.6c0-0.5,0.4-0.8,0.8-0.8h35.4C-438.2,527-437.8,527.4-437.8,527.8L-437.8,527.8z
		 M-437.8,527.8"/>
	<path class="st12" d="M-442.9,546.4c0.5,0,0.8-0.4,0.8-0.8s-0.4-0.8-0.8-0.8h-5.1v-5.1h5.1c0.5,0,0.8-0.4,0.8-0.8
		c0-0.5-0.4-0.8-0.8-0.8h-5.1v-4.2c0-0.5-0.4-0.8-0.8-0.8c-0.5,0-0.8,0.4-0.8,0.8v4.2h-5.9v-4.2c0-0.5-0.4-0.8-0.8-0.8
		c-0.5,0-0.8,0.4-0.8,0.8v4.2h-5.9v-4.2c0-0.5-0.4-0.8-0.8-0.8c-0.5,0-0.8,0.4-0.8,0.8v4.2h-5.1c-0.5,0-0.8,0.4-0.8,0.8
		c0,0.5,0.4,0.8,0.8,0.8h5.1v5.1h-5.1c-0.5,0-0.8,0.4-0.8,0.8s0.4,0.8,0.8,0.8h5.1v5.1h-5.1c-0.5,0-0.8,0.4-0.8,0.8s0.4,0.8,0.8,0.8
		h5.1v4.2c0,0.5,0.4,0.8,0.8,0.8c0.5,0,0.8-0.4,0.8-0.8v-4.2h5.9v4.2c0,0.5,0.4,0.8,0.8,0.8c0.5,0,0.8-0.4,0.8-0.8v-4.2h5.9v4.2
		c0,0.5,0.4,0.8,0.8,0.8c0.5,0,0.8-0.4,0.8-0.8v-4.2h5.1c0.5,0,0.8-0.4,0.8-0.8s-0.4-0.8-0.8-0.8h-5.1v-5.1H-442.9z M-449.6,539.6
		v5.1h-5.9v-5.1H-449.6z M-463.1,539.6h5.9v5.1h-5.9V539.6z M-463.1,551.4v-5.1h5.9v5.1H-463.1z M-449.6,551.4h-5.9v-5.1h5.9V551.4z
		 M-449.6,551.4"/>
	<path class="st10" d="M-476.6,517.7h40.4c0.5,0,0.8,0.4,0.8,0.8v8.4c0,0.5-0.4,0.8-0.8,0.8h-40.4c-0.5,0-0.8-0.4-0.8-0.8v-8.4
		C-477.4,518.1-477.1,517.7-476.6,517.7L-476.6,517.7z M-476.6,517.7"/>
	<path class="st13" d="M-467.3,521.9c0,1.4-1.1,2.5-2.5,2.5s-2.5-1.1-2.5-2.5c0-1.4,1.1-2.5,2.5-2.5S-467.3,520.5-467.3,521.9
		L-467.3,521.9z M-467.3,521.9"/>
	<path class="st14" d="M-469.9,522.8c-0.5,0-0.8-0.4-0.8-0.8v-5.1c0-0.5,0.4-0.8,0.8-0.8c0.5,0,0.8,0.4,0.8,0.8v5.1
		C-469,522.4-469.4,522.8-469.9,522.8L-469.9,522.8z M-469.9,522.8"/>
	<path class="st13" d="M-453.8,521.9c0,1.4-1.1,2.5-2.5,2.5c-1.4,0-2.5-1.1-2.5-2.5c0-1.4,1.1-2.5,2.5-2.5
		C-455,519.4-453.8,520.5-453.8,521.9L-453.8,521.9z M-453.8,521.9"/>
	<path class="st14" d="M-456.4,522.8c-0.5,0-0.8-0.4-0.8-0.8v-5.1c0-0.5,0.4-0.8,0.8-0.8c0.5,0,0.8,0.4,0.8,0.8v5.1
		C-455.5,522.4-455.9,522.8-456.4,522.8L-456.4,522.8z M-456.4,522.8"/>
	<path class="st13" d="M-440.4,521.9c0,1.4-1.1,2.5-2.5,2.5s-2.5-1.1-2.5-2.5c0-1.4,1.1-2.5,2.5-2.5S-440.4,520.5-440.4,521.9
		L-440.4,521.9z M-440.4,521.9"/>
	<path class="st14" d="M-442.9,522.8c-0.5,0-0.8-0.4-0.8-0.8v-5.1c0-0.5,0.4-0.8,0.8-0.8c0.5,0,0.8,0.4,0.8,0.8v5.1
		C-442.1,522.4-442.4,522.8-442.9,522.8L-442.9,522.8z M-442.9,522.8"/>
</g>
</svg>
