<?xml version="1.0" encoding="utf-8"?>
<!-- Generator: Adobe Illustrator 19.0.0, SVG Export Plug-In . SVG Version: 6.00 Build 0)  -->
<svg version="1.1" id="Layer_1" xmlns="http://www.w3.org/2000/svg" xmlns:xlink="http://www.w3.org/1999/xlink" x="0px" y="0px"
	 viewBox="-497 507.9 83.5 66.1" style="enable-background:new -497 507.9 83.5 66.1;" xml:space="preserve">
<style type="text/css">
	.st0{clip-path:url(#SVGID_2_);}
	.st1{clip-path:url(#SVGID_9_);}
	.st2{clip-path:url(#SVGID_10_);}
	.st3{clip-path:url(#SVGID_11_);}
	.st4{clip-path:url(#SVGID_12_);}
	.st5{clip-path:url(#SVGID_13_);}
	.st6{clip-path:url(#SVGID_14_);fill:#3C2D7A;}
	.st7{clip-path:url(#SVGID_14_);fill:#FFD24D;}
	.st8{clip-path:url(#SVGID_14_);fill:#FFC33E;}
	.st9{fill:#CCA739;}
</style>
<g>
	<g>
		<g id="XMLID_2_">
			<defs>
				<rect id="SVGID_1_" x="-497" y="507.9" width="83.5" height="66.1"/>
			</defs>
			<clipPath id="SVGID_2_">
				<use xlink:href="#SVGID_1_"  style="overflow:visible;"/>
			</clipPath>
			<g class="st0">
				<g>
					<defs>
						<rect id="SVGID_3_" x="-497" y="507.9" width="83.5" height="66.1"/>
					</defs>
					<defs>
						<rect id="SVGID_4_" x="-497" y="507.9" width="83.5" height="66.1"/>
					</defs>
					<defs>
						<rect id="SVGID_5_" x="-497" y="507.9" width="83.5" height="66.1"/>
					</defs>
					<defs>
						<rect id="SVGID_6_" x="-497" y="507.9" width="83.5" height="66.1"/>
					</defs>
					<defs>
						<rect id="SVGID_7_" x="-497" y="507.9" width="83.5" height="66.1"/>
					</defs>
					<defs>
						<rect id="SVGID_8_" x="-497" y="507.9" width="83.5" height="66.1"/>
					</defs>
					<clipPath id="SVGID_9_">
						<use xlink:href="#SVGID_3_"  style="overflow:visible;"/>
					</clipPath>
					<clipPath id="SVGID_10_" class="st1">
						<use xlink:href="#SVGID_4_"  style="overflow:visible;"/>
					</clipPath>
					<clipPath id="SVGID_11_" class="st2">
						<use xlink:href="#SVGID_5_"  style="overflow:visible;"/>
					</clipPath>
					<clipPath id="SVGID_12_" class="st3">
						<use xlink:href="#SVGID_6_"  style="overflow:visible;"/>
					</clipPath>
					<clipPath id="SVGID_13_" class="st4">
						<use xlink:href="#SVGID_7_"  style="overflow:visible;"/>
					</clipPath>
					<clipPath id="SVGID_14_" class="st5">
						<use xlink:href="#SVGID_8_"  style="overflow:visible;"/>
					</clipPath>
					<path class="st6" d="M-440.9,542.3h-1.9c0-6.2-5.1-11.3-11.3-11.3v-1.9C-446.8,529.1-440.9,535-440.9,542.3 M-454.1,532.4v1.9
						c4.4,0,8,3.6,8,8h1.9C-444.2,536.8-448.6,532.4-454.1,532.4 M-454.5,523.3c-10.4,0-18.8,8.4-18.8,18.8
						c0,10.4,8.4,18.8,18.8,18.8c0.6,0,1.2-0.5,1.2-1.2c0-0.6-0.5-1.2-1.2-1.2c-9.1,0-16.4-7.4-16.4-16.4c0-9.1,7.4-16.5,16.4-16.5
						s16.4,7.4,16.4,16.5c0,3.8-2,7.6-4.9,9.1c-1.1,0.6-2.2,0.9-3.4,0.9c0.7-0.4,1.4-1,1.8-1.8c0.1-0.1,0.2-0.3,0.3-0.4
						c0.4-0.9,0.4-1.9,0.6-2.9c0.3-1.2-5.4-3.6-5.8-2.1c-0.2,0.6-0.4,2.4-0.8,2.8c-0.3,0.4-1.1,0.2-1.6-0.2c-1.3-1.1-2.7-2.7-4-4
						l-0.1-0.1l-0.1-0.1c-1.3-1.3-2.9-2.7-4-4c-0.4-0.5-0.6-1.3-0.2-1.6c0.5-0.4,2.3-0.6,2.8-0.8c1.5-0.5-0.9-6.1-2.1-5.8
						c-0.9,0.2-2,0.3-2.9,0.6c-0.2,0.1-0.3,0.2-0.4,0.3c-3.2,2-3.6,7-0.5,10.7c1.2,1.4,2.4,2.8,3.7,4.1l0,0l0.1,0.1l0.1,0.1l0,0
						c1.3,1.3,2.9,3.2,5.5,4.9c5.4,3.6,9.5,2.6,12,1.3c4.2-2.3,6.1-7.3,6.1-11.2C-435.7,531.8-444.2,523.3-454.5,523.3"/>
					<path class="st7" d="M-426.4,554.4c2-4.2,3.1-8.8,3.1-13.5c0-9-3.9-17.6-10.7-23.5c0.2-0.5,0.3-1,0.3-1.5
						c0-2.3-1.8-4.2-4.1-4.2c-1.2,0.1-2.2,0.5-3,1.2c-4.3-2.1-9-3.2-13.8-3.2c-4.7,0-9.3,1-13.5,3.1c-4-4.1-10.7-4.1-14.7,0
						c-4.1,4.1-4.1,10.6,0,14.7l0,0c-2,4.2-3.1,8.8-3.1,13.5c0,9,3.9,17.6,10.7,23.5c-0.2,0.5-0.3,1-0.3,1.5c0,2.3,1.8,4.2,4.1,4.2
						c1.1,0,2.1-0.4,2.9-1.1c4.3,2.1,9,3.2,13.8,3.2c4.7,0,9.3-1,13.5-3.1c4,4.1,10.6,4.1,14.7,0
						C-422.4,565.1-422.3,558.5-426.4,554.4L-426.4,554.4 M-483.8,520.1c0-4.6,3.7-8.3,8.3-8.3s8.3,3.7,8.3,8.3
						c0,4.6-3.7,8.3-8.3,8.3S-483.8,524.7-483.8,520.1 M-454.6,570.1c-4.4,0-8.7-1-12.7-2.9c0.1-0.4,0.2-0.8,0.2-1.2
						c0-2.3-1.9-4.2-4.2-4.2c-1,0-1.9,0.4-2.7,1c-6.2-5.5-9.8-13.5-9.8-21.8c0-4.2,0.9-8.3,2.6-12.1c4.8,3.2,11.3,1.8,14.4-3
						c2.3-3.5,2.3-7.9,0-11.4c7.9-3.6,17-3.5,24.8,0.3c-0.1,0.4-0.2,0.8-0.2,1.2c0,2.3,1.9,4.2,4.2,4.2c1,0,1.9-0.4,2.7-1
						c6.2,5.5,9.8,13.5,9.8,21.8c0,4.2-0.9,8.3-2.6,12.1c-4.8-3.2-11.2-1.8-14.4,3c-2.3,3.5-2.3,7.9,0,11.4
						C-446.3,569.2-450.5,570.1-454.6,570.1 M-433.8,570.1c-4.6,0-8.3-3.7-8.3-8.3c0-4.6,3.7-8.3,8.3-8.3c4.6,0,8.3,3.7,8.3,8.3
						C-425.5,566.4-429.2,570.1-433.8,570.1"/>
					<path id="XMLID_12_" class="st8" d="M-475.5,510.5c5.3,0,9.6,4.3,9.6,9.6c0,5.3-4.3,9.6-9.6,9.6s-9.5-4.4-9.5-9.6
						C-485,514.8-480.7,510.5-475.5,510.5"/>
					<path id="XMLID_11_" class="st8" d="M-433.8,552.2c5.3,0,9.6,4.3,9.6,9.6s-4.3,9.6-9.6,9.6c-5.3,0-9.6-4.3-9.6-9.6
						C-443.4,556.4-439.1,552.2-433.8,552.2"/>
				</g>
				<g>
					<rect x="-479.4" y="514.3" class="st9" width="8.3" height="1.5"/>
					<rect x="-479.4" y="517.1" class="st9" width="8.3" height="1.5"/>
					<path class="st9" d="M-479.4,521.9l4.8,5.5h2.5l-4.6-5.5c0,0,3.5-0.1,3.7-3.2c0.2-3-1.2-3.3-1.2-3.3l-5,0.1c0,0,4.2,0.1,4,2.9
						c0,0,0.5,2.3-4.2,1.9V521.9z"/>
				</g>
				<g>
					<rect x="-437.9" y="555.8" class="st9" width="8.3" height="1.5"/>
					<rect x="-437.9" y="558.6" class="st9" width="8.3" height="1.5"/>
					<path class="st9" d="M-437.9,563.3l4.8,5.5h2.5l-4.6-5.5c0,0,3.5-0.1,3.7-3.2c0.2-3-1.2-3.3-1.2-3.3l-5,0.1c0,0,4.2,0.1,4,2.9
						c0,0,0.5,2.3-4.2,1.9V563.3z"/>
				</g>
			</g>
		</g>
	</g>
</g>
</svg>
