<svg xmlns="http://www.w3.org/2000/svg" width="1355.209" height="132.144" viewBox="0 0 1355.209 132.144">
  <g id="Group_20" data-name="Group 20" opacity="0.136">
    <g id="noun_trees_1191392" transform="translate(450.322 2.937)">
      <path id="Path_6" data-name="Path 6" d="M78.97,10a30.851,30.851,0,0,0-1.411,61.677v52.909H74.292a1.468,1.468,0,1,0,0,2.937h9.354a1.468,1.468,0,0,0,0-2.937H80.5V71.673A30.85,30.85,0,0,0,78.97,10ZM80.5,68.736V44.128l9.714-9.4a1.468,1.468,0,1,0-2.042-2.11L80.5,40.042v-10.4a1.468,1.468,0,1,0-2.937,0V48.462l-7.786-7.538a1.469,1.469,0,0,0-2.044,2.111l9.829,9.516V68.742a28.13,28.13,0,1,1,2.938-.006Z" transform="translate(7.278 -10.001)" fill="#9a9a9a"/>
      <path id="Path_7" data-name="Path 7" d="M10.748,84.744a1.468,1.468,0,1,0,2.082,2.07l21.335-21.44v59.2H30.4a1.468,1.468,0,1,0,0,2.937H40.866a1.468,1.468,0,1,0,0-2.937H37.1v-59.2l21.335,21.44a1.468,1.468,0,1,0,2.082-2.07L37.1,61.212V48.594L58.439,70.035a1.468,1.468,0,1,0,2.082-2.07L37.1,44.431V31.813L58.439,53.254a1.468,1.468,0,1,0,2.082-2.07L37.1,27.649V15.031L58.439,36.472a1.468,1.468,0,1,0,2.082-2.07L36.677,10.44h0a1.468,1.468,0,0,0-2.079,0h0L10.75,34.4a1.468,1.468,0,1,0,2.082,2.07L34.167,15.031V27.649L10.748,51.183a1.468,1.468,0,1,0,2.082,2.07L34.166,31.812V44.43L10.748,67.963a1.468,1.468,0,1,0,2.082,2.07L34.166,48.593V61.211Z" transform="translate(-10.321 -9.998)" fill="#9a9a9a"/>
    </g>
    <path id="noun_trees_1227592" d="M126.124,124.471H100.81V37.69c10.8-.42,13.561,10.712,13.675,11.2a1.47,1.47,0,0,0,2.609.546,11.724,11.724,0,0,0-4.35-17.6,22.993,22.993,0,0,1,12.422,5,1.468,1.468,0,0,0,2.418-1.119,14.936,14.936,0,0,0-19.079-14.388c5.823-3.467,12.771-2.044,13.194-1.954a1.468,1.468,0,0,0,1.609-2.123,13.613,13.613,0,0,0-24.206.289,13.62,13.62,0,0,0-24.2-.289,1.468,1.468,0,0,0,1.611,2.123,21.924,21.924,0,0,1,8.211.082,16.117,16.117,0,0,1,4.926,1.878A14.852,14.852,0,0,0,70.771,35.686,1.469,1.469,0,0,0,73.192,36.8a24.417,24.417,0,0,1,8.1-4.208,18.673,18.673,0,0,1,4.591-.771A11.731,11.731,0,0,0,81.5,49.442a1.465,1.465,0,0,0,1.178.59A1.47,1.47,0,0,0,84.113,48.9c.116-.493,2.878-11.683,13.759-11.2v86.776h-27.4V101.2a20.553,20.553,0,1,0-2.937,0v23.272H40.168V37.69c10.809-.41,13.561,10.711,13.675,11.2a1.47,1.47,0,0,0,2.609.546,11.724,11.724,0,0,0-4.35-17.6,22.993,22.993,0,0,1,12.422,5,1.468,1.468,0,0,0,2.418-1.119,14.938,14.938,0,0,0-19.08-14.388c5.823-3.468,12.772-2.044,13.2-1.954a1.468,1.468,0,0,0,1.609-2.123,13.621,13.621,0,0,0-24.209.282,13.614,13.614,0,0,0-24.2-.282,1.468,1.468,0,0,0,1.611,2.123,21.926,21.926,0,0,1,8.211.082A16.117,16.117,0,0,1,29,21.343,14.852,14.852,0,0,0,10.127,35.686,1.469,1.469,0,0,0,12.548,36.8a24.417,24.417,0,0,1,8.1-4.208,18.593,18.593,0,0,1,4.591-.771A11.731,11.731,0,0,0,20.86,49.442a1.467,1.467,0,0,0,1.178.592,1.521,1.521,0,0,0,.3-.031,1.469,1.469,0,0,0,1.129-1.109,18.335,18.335,0,0,1,2.992-6.154,12.12,12.12,0,0,1,10.767-5.054v86.783H11.6a1.468,1.468,0,1,0,0,2.937H126.124a1.468,1.468,0,1,0,0-2.937Zm-10-79.576c-1.713-3.716-5.484-9.3-12.868-10.1a8.812,8.812,0,0,1,12.868,10.1Zm8.13-12.226a25.065,25.065,0,0,0-12.518-3.757,18.677,18.677,0,0,0-10.655,3.339,12.039,12.039,0,0,1,23.174.418ZM101.042,20.534a10.694,10.694,0,0,1,10.213-7.572,10.752,10.752,0,0,1,7.634,3.182c-4.823-.154-13.514.8-18.184,9.2A10.652,10.652,0,0,1,101.042,20.534ZM80.3,16.127c-.344,0-.672.007-.985.019a10.7,10.7,0,0,1,18.186,9.2C93.131,17.488,85.243,16.127,80.3,16.127ZM74.1,32.632a11.965,11.965,0,0,1,23.018-.418C87.95,26.018,78.63,29.931,74.1,32.632ZM82.471,44.9A8.814,8.814,0,0,1,95.339,34.8C87.957,35.594,84.185,41.18,82.471,44.9ZM51.422,80.837a17.627,17.627,0,1,1,19.054,17.43v-4.33l6.992-6.77a1.469,1.469,0,0,0-2.044-2.11l-4.95,4.791V77.178a1.468,1.468,0,0,0-2.937,0v6.575l-4.866-4.71a1.469,1.469,0,0,0-2.044,2.11l6.91,6.689V98.264A17.569,17.569,0,0,1,51.422,80.837Zm4.064-35.943C53.773,41.179,50,35.591,42.618,34.8A8.811,8.811,0,0,1,55.486,44.894Zm8.13-12.225A25.06,25.06,0,0,0,51.1,28.912,18.681,18.681,0,0,0,40.442,32.25a12.039,12.039,0,0,1,23.174.418ZM40.4,20.534a10.694,10.694,0,0,1,10.212-7.572,10.752,10.752,0,0,1,7.634,3.182c-4.828-.154-13.515.8-18.184,9.2A10.652,10.652,0,0,1,40.4,20.534ZM19.658,16.127c-.341,0-.668.007-.979.018a10.7,10.7,0,0,1,18.184,9.2C32.495,17.488,24.6,16.127,19.658,16.127Zm-6.195,16.5a11.966,11.966,0,0,1,23.019-.418C27.306,26.018,17.988,29.931,13.463,32.632ZM21.831,44.9A8.814,8.814,0,0,1,34.7,34.8C27.315,35.594,23.544,41.18,21.831,44.9Z" transform="translate(670.865 -7.085)" fill="#9a9a9a"/>
    <g id="noun_palm_trees_1191385" data-name="noun_palm trees_1191385" transform="translate(19.088 2.937)">
      <path id="Path_8" data-name="Path 8" d="M32.186,32.61a19.464,19.464,0,0,1,23.93,6.253,12.865,12.865,0,0,0-20.54,10.348,1.468,1.468,0,1,0,2.937,0,9.953,9.953,0,0,1,19.905,0v75.322H54.653a1.468,1.468,0,1,0,0,2.937H65.117a1.468,1.468,0,1,0,0-2.937H61.356V49.212a9.953,9.953,0,0,1,19.905,0,1.468,1.468,0,1,0,2.937,0A12.866,12.866,0,0,0,63.675,38.849a19.5,19.5,0,0,1,23.911-6.24,1.468,1.468,0,1,0,1.233-2.663A22.363,22.363,0,0,0,61.629,36.69,19.47,19.47,0,0,1,80.813,20.344a1.468,1.468,0,1,0,0-2.937A22.4,22.4,0,0,0,61.356,28.759V11.568a1.468,1.468,0,0,0-2.937,0V28.76A22.4,22.4,0,0,0,38.962,17.409a1.468,1.468,0,1,0,0,2.937A19.47,19.47,0,0,1,58.146,36.692a22.364,22.364,0,0,0-27.192-6.747,1.468,1.468,0,0,0,1.232,2.665Z" transform="translate(-0.773 -10.1)" fill="#9a9a9a"/>
      <path id="Path_9" data-name="Path 9" d="M12.209,55.326A17.26,17.26,0,0,1,32.875,60.12a11.687,11.687,0,0,0-17.841,9.961,1.468,1.468,0,0,0,2.937,0,8.775,8.775,0,1,1,17.55,0v42.025H31.758a1.468,1.468,0,1,0,0,2.937H42.222a1.468,1.468,0,1,0,0-2.937H38.459V70.079a8.775,8.775,0,1,1,17.55,0,1.468,1.468,0,1,0,2.937,0,11.687,11.687,0,0,0-17.829-9.968,17.318,17.318,0,0,1,20.653-4.785A1.468,1.468,0,0,0,63,52.663a20.253,20.253,0,0,0-24.218,5.666A17.321,17.321,0,0,1,55.756,44.344a1.468,1.468,0,0,0,0-2.937,20.223,20.223,0,0,0-17.3,9.79V38.112a1.468,1.468,0,0,0-2.937,0V51.2a20.223,20.223,0,0,0-17.3-9.79,1.468,1.468,0,0,0,0,2.937A17.322,17.322,0,0,1,35.2,58.33a20.249,20.249,0,0,0-24.218-5.668,1.467,1.467,0,0,0,1.23,2.663Z" transform="translate(-10.127 2.33)" fill="#9a9a9a"/>
      <path id="Path_10" data-name="Path 10" d="M61.585,41.408a1.468,1.468,0,1,0,0,2.937A17.321,17.321,0,0,1,78.557,58.329a20.245,20.245,0,0,0-24.216-5.666,1.468,1.468,0,0,0,1.233,2.663,17.315,17.315,0,0,1,20.651,4.785A11.686,11.686,0,0,0,58.4,70.08a1.468,1.468,0,0,0,2.937,0,8.774,8.774,0,1,1,17.549,0V112.1H75.12a1.468,1.468,0,1,0,0,2.937H85.584a1.468,1.468,0,1,0,0-2.937H81.821V70.08a8.775,8.775,0,1,1,17.55,0,1.468,1.468,0,0,0,2.937,0,11.687,11.687,0,0,0-17.841-9.961,17.26,17.26,0,0,1,20.666-4.794,1.468,1.468,0,1,0,1.233-2.663,20.252,20.252,0,0,0-24.218,5.666A17.321,17.321,0,0,1,99.12,44.343a1.468,1.468,0,0,0,0-2.937,20.223,20.223,0,0,0-17.3,9.79V38.111a1.468,1.468,0,1,0-2.937,0V51.2A20.233,20.233,0,0,0,61.585,41.408Z" transform="translate(10.178 2.329)" fill="#9a9a9a"/>
    </g>
    <g id="noun_forest_1191384" transform="translate(258.534 2.937)">
      <path id="Path_11" data-name="Path 11" d="M10.552,62.828a1.468,1.468,0,1,0,2.082,2.07l14.3-14.371v74.051H23.172a1.468,1.468,0,1,0,0,2.937H33.636a1.468,1.468,0,1,0,0-2.937H29.875V50.527L44.177,64.9a1.468,1.468,0,1,0,2.082-2.07L29.873,46.365V38.7l14.3,14.373A1.468,1.468,0,0,0,46.258,51L29.873,34.532V26.863l14.3,14.373a1.468,1.468,0,0,0,2.082-2.07L29.873,22.7V15.032L44.176,29.4a1.468,1.468,0,0,0,2.082-2.07l-16.812-16.9h0a1.468,1.468,0,0,0-2.082,0h0l-16.812,16.9a1.468,1.468,0,0,0,2.082,2.07l14.3-14.373V22.7L10.552,39.166a1.468,1.468,0,1,0,2.082,2.07l14.3-14.373v7.669L10.552,51a1.468,1.468,0,1,0,2.082,2.07L26.937,38.7v7.669Z" transform="translate(-10.125 -10.006)" fill="#9a9a9a"/>
      <path id="Path_12" data-name="Path 12" d="M38.1,80.665a1.468,1.468,0,0,0,2.082,2.07l14.3-14.373v47.855H50.722a1.468,1.468,0,1,0,0,2.937H61.186a1.468,1.468,0,1,0,0-2.937H57.425V68.362l14.3,14.373a1.468,1.468,0,1,0,2.082-2.07L57.423,64.2V56.531L71.726,70.9a1.468,1.468,0,1,0,2.082-2.07L57.423,52.367V44.7l14.3,14.373A1.468,1.468,0,0,0,73.808,57L57.423,40.536V32.867l14.3,14.373a1.468,1.468,0,1,0,2.082-2.07L57,28.274a1.513,1.513,0,0,0-2.082,0L38.1,45.17a1.468,1.468,0,0,0,2.082,2.07l14.3-14.373v7.669L38.1,57a1.468,1.468,0,1,0,2.082,2.07L54.487,44.7v7.669L38.1,68.834a1.468,1.468,0,1,0,2.082,2.07l14.3-14.373V64.2Z" transform="translate(2.776 -1.646)" fill="#9a9a9a"/>
      <path id="Path_13" data-name="Path 13" d="M65.652,62.828a1.468,1.468,0,1,0,2.082,2.07l14.3-14.371v74.051H78.271a1.468,1.468,0,1,0,0,2.937H88.735a1.468,1.468,0,1,0,0-2.937H84.973V50.527L99.276,64.9a1.468,1.468,0,1,0,2.082-2.07L84.973,46.365V38.7l14.3,14.373A1.468,1.468,0,0,0,101.358,51L84.973,34.532V26.863l14.3,14.373a1.468,1.468,0,1,0,2.082-2.07L84.973,22.7V15.032L99.276,29.4a1.468,1.468,0,0,0,2.082-2.07l-16.812-16.9h0a1.468,1.468,0,0,0-2.082,0h0l-16.812,16.9a1.468,1.468,0,1,0,2.082,2.07l14.3-14.373V22.7L65.652,39.166a1.468,1.468,0,1,0,2.082,2.07l14.3-14.373v7.669L65.652,51a1.468,1.468,0,1,0,2.082,2.07L82.037,38.7v7.669Z" transform="translate(15.677 -10.006)" fill="#9a9a9a"/>
    </g>
    <g id="noun_forest_1191384-2" data-name="noun_forest_1191384" transform="translate(1221.717 2.937)">
      <path id="Path_11-2" data-name="Path 11" d="M10.552,62.828a1.468,1.468,0,1,0,2.082,2.07l14.3-14.371v74.051H23.172a1.468,1.468,0,1,0,0,2.937H33.636a1.468,1.468,0,1,0,0-2.937H29.875V50.527L44.177,64.9a1.468,1.468,0,1,0,2.082-2.07L29.873,46.365V38.7l14.3,14.373A1.468,1.468,0,0,0,46.258,51L29.873,34.532V26.863l14.3,14.373a1.468,1.468,0,0,0,2.082-2.07L29.873,22.7V15.032L44.176,29.4a1.468,1.468,0,0,0,2.082-2.07l-16.812-16.9h0a1.468,1.468,0,0,0-2.082,0h0l-16.812,16.9a1.468,1.468,0,0,0,2.082,2.07l14.3-14.373V22.7L10.552,39.166a1.468,1.468,0,1,0,2.082,2.07l14.3-14.373v7.669L10.552,51a1.468,1.468,0,1,0,2.082,2.07L26.937,38.7v7.669Z" transform="translate(-10.125 -10.006)" fill="#9a9a9a"/>
      <path id="Path_12-2" data-name="Path 12" d="M38.1,80.665a1.468,1.468,0,0,0,2.082,2.07l14.3-14.373v47.855H50.722a1.468,1.468,0,1,0,0,2.937H61.186a1.468,1.468,0,1,0,0-2.937H57.425V68.362l14.3,14.373a1.468,1.468,0,1,0,2.082-2.07L57.423,64.2V56.531L71.726,70.9a1.468,1.468,0,1,0,2.082-2.07L57.423,52.367V44.7l14.3,14.373A1.468,1.468,0,0,0,73.808,57L57.423,40.536V32.867l14.3,14.373a1.468,1.468,0,1,0,2.082-2.07L57,28.274a1.513,1.513,0,0,0-2.082,0L38.1,45.17a1.468,1.468,0,0,0,2.082,2.07l14.3-14.373v7.669L38.1,57a1.468,1.468,0,1,0,2.082,2.07L54.487,44.7v7.669L38.1,68.834a1.468,1.468,0,1,0,2.082,2.07l14.3-14.373V64.2Z" transform="translate(2.776 -1.646)" fill="#9a9a9a"/>
      <path id="Path_13-2" data-name="Path 13" d="M65.652,62.828a1.468,1.468,0,1,0,2.082,2.07l14.3-14.371v74.051H78.271a1.468,1.468,0,1,0,0,2.937H88.735a1.468,1.468,0,1,0,0-2.937H84.973V50.527L99.276,64.9a1.468,1.468,0,1,0,2.082-2.07L84.973,46.365V38.7l14.3,14.373A1.468,1.468,0,0,0,101.358,51L84.973,34.532V26.863l14.3,14.373a1.468,1.468,0,1,0,2.082-2.07L84.973,22.7V15.032L99.276,29.4a1.468,1.468,0,0,0,2.082-2.07l-16.812-16.9h0a1.468,1.468,0,0,0-2.082,0h0l-16.812,16.9a1.468,1.468,0,1,0,2.082,2.07l14.3-14.373V22.7L65.652,39.166a1.468,1.468,0,1,0,2.082,2.07l14.3-14.373v7.669L65.652,51a1.468,1.468,0,1,0,2.082,2.07L82.037,38.7v7.669Z" transform="translate(15.677 -10.006)" fill="#9a9a9a"/>
    </g>
    <g id="noun_Tree_898851" transform="translate(587.946)">
      <path id="Path_14" data-name="Path 14" d="M27.752,106.29H59.614v20.556a1.468,1.468,0,1,0,2.937,0V106.29H93.09a1.813,1.813,0,0,0,1.175-.587,1.427,1.427,0,0,0,.147-1.321L63.578,12.028A1.41,1.41,0,0,0,62.256,11a1.947,1.947,0,0,0-1.468.881L26.431,104.235a1.38,1.38,0,0,0,.147,1.321A1.5,1.5,0,0,0,27.752,106.29ZM62.11,16.873l28.925,86.481H29.808Z" transform="translate(-26.334 -11)" fill="#9a9a9a"/>
    </g>
    <g id="noun_Tree_898851-2" data-name="noun_Tree_898851" transform="translate(1157.472 42.127)">
      <path id="Path_14-2" data-name="Path 14" d="M27.243,72.072h20.42V85.246a.941.941,0,1,0,1.882,0V72.072H69.118a1.162,1.162,0,0,0,.753-.376.915.915,0,0,0,.094-.847L50.2,11.659A.9.9,0,0,0,49.357,11a1.248,1.248,0,0,0-.941.565L26.4,70.754a.884.884,0,0,0,.094.847A.96.96,0,0,0,27.243,72.072Zm22.02-57.308L67.8,70.19H28.56Z" transform="translate(-26.334 -11)" fill="#9a9a9a"/>
    </g>
    <g id="noun_Tree_898849" transform="translate(847.773 2.937)">
      <path id="Path_15" data-name="Path 15" d="M38.013,82.358a18.137,18.137,0,0,0,11.893-4.552L63.12,91.02v32.742a1.468,1.468,0,0,0,2.937,0V90.874L79.124,77.806A17.89,17.89,0,1,0,73.1,64.445,17.538,17.538,0,0,0,77.069,75.6L65.91,86.763V54.02a21.584,21.584,0,1,0-2.937,0V86.763L51.961,75.6a17.538,17.538,0,0,0,3.964-11.159A17.913,17.913,0,1,0,38.013,82.358Zm53-32.889A14.977,14.977,0,1,1,76.188,64.445,15.039,15.039,0,0,1,91.017,49.469ZM45.941,32.584A18.647,18.647,0,1,1,64.588,51.23,18.673,18.673,0,0,1,45.941,32.584ZM38.013,49.469A14.977,14.977,0,1,1,23.183,64.445,15.039,15.039,0,0,1,38.013,49.469Z" transform="translate(-20.1 -11)" fill="#9a9a9a"/>
    </g>
    <g id="noun_Tree_898848" transform="translate(969.533 13.214)">
      <path id="Path_16" data-name="Path 16" d="M37.713,80.016a18.137,18.137,0,0,0,11.893-4.552L62.82,88.679v32.742a1.468,1.468,0,1,0,2.937,0V88.532L78.971,75.318a17.885,17.885,0,0,0,29.806-13.361,17.671,17.671,0,0,0-5.726-13.068,14.332,14.332,0,0,0,1.468-6.46A14.726,14.726,0,0,0,89.836,27.746a16.928,16.928,0,0,0-3.817.44A25.823,25.823,0,0,0,64.288,16a25.55,25.55,0,0,0-18.353,7.782,17.5,17.5,0,0,0-8.222-2.056A17.985,17.985,0,0,0,19.8,39.639,17.3,17.3,0,0,0,23.764,50.8,18.156,18.156,0,0,0,19.8,61.957,17.922,17.922,0,0,0,37.713,80.016Zm13.8-6.754a18.464,18.464,0,0,0,3.671-7.635,27.385,27.385,0,0,0,7.488,1.615V84.421Zm14.1-6.02A22.093,22.093,0,0,0,73.1,65.627a17.631,17.631,0,0,0,3.671,7.635L65.61,84.421ZM26.7,49.917A14.963,14.963,0,0,1,37.713,24.81a14.384,14.384,0,0,1,7.635,2.2,1.588,1.588,0,0,0,1.909-.294,22.5,22.5,0,0,1,16.885-7.635A22.734,22.734,0,0,1,83.963,30.829a1.59,1.59,0,0,0,1.762.734,12.589,12.589,0,0,1,3.964-.734,11.781,11.781,0,0,1,11.746,11.746,10.716,10.716,0,0,1-1.762,6.02,1.392,1.392,0,0,0,.294,1.909,14.757,14.757,0,0,1,5.579,11.6,14.93,14.93,0,0,1-29.806,1.321,1.5,1.5,0,0,0-.734-1.175,1.324,1.324,0,0,0-.734-.147.883.883,0,0,0-.587.147,22.888,22.888,0,0,1-9.25,2.056h-.587A22.364,22.364,0,0,1,54.6,62.25a2.037,2.037,0,0,0-1.321,0,1.5,1.5,0,0,0-.734,1.175A14.932,14.932,0,1,1,26.7,51.973,1.764,1.764,0,0,0,26.7,49.917Z" transform="translate(-19.8 -16)" fill="#9a9a9a"/>
    </g>
    <g id="noun_Tree_898847" transform="translate(1069.376 4.405)">
      <path id="Path_17" data-name="Path 17" d="M56.726,106.144v20.7a1.468,1.468,0,1,0,2.937,0v-20.7c13.655-1.321,24.226-21.73,24.226-47.572C83.889,31.849,72.584,11,58.195,11S32.5,31.849,32.5,58.572C32.5,84.413,43.072,104.822,56.726,106.144Zm1.468-92.207c12.48,0,22.758,20.115,22.758,44.635,0,23.639-9.4,43.02-21.29,44.635V68.116a1.468,1.468,0,1,0-2.937,0v35.092c-11.893-1.468-21.29-20.849-21.29-44.635C35.437,33.9,45.714,13.937,58.195,13.937Z" transform="translate(-32.5 -11)" fill="#9a9a9a"/>
    </g>
    <g id="noun_Tree_898844" transform="translate(158.573 5.873)">
      <path id="Path_18" data-name="Path 18" d="M58.834,75.5v48.159a1.468,1.468,0,0,0,2.937,0V75.5a32.3,32.3,0,1,0-2.937,0ZM60.3,13.983A29.309,29.309,0,0,1,61.77,72.567V62.73l13.8-13.8a1.454,1.454,0,1,0-2.056-2.056L61.77,58.619V37.769a1.468,1.468,0,1,0-2.937,0v20.7L47.087,46.726a1.454,1.454,0,0,0-2.056,2.056l13.8,13.8V72.42A29.234,29.234,0,0,1,60.3,13.983Z" transform="translate(-28 -10.9)" fill="#9a9a9a"/>
    </g>
    <rect id="Rectangle_84" data-name="Rectangle 84" width="1355.209" height="14.683" transform="translate(0 117.461)" fill="#9a9a9a"/>
  </g>
</svg>
