<svg xmlns="http://www.w3.org/2000/svg" width="2357.241" height="959.763" viewBox="0 0 2357.241 959.763">
  <g id="Group_18" data-name="Group 18" transform="translate(102.909 -1556.134)" opacity="0.357">
    <path id="Path_30" data-name="Path 30" d="M40,0H638a40,40,0,0,1,40,40V215.509L243.182,680.065,40,678A40,40,0,0,1,0,638V40A40,40,0,0,1,40,0Z" transform="translate(1294.671 2018.529) rotate(-43)" fill="#e8fffb"/>
    <rect id="Rectangle_79" data-name="Rectangle 79" width="465" height="465" rx="40" transform="translate(304.366 2001.413) rotate(-43)" fill="#e8fffb"/>
    <rect id="Rectangle_80" data-name="Rectangle 80" width="207" height="207" rx="40" transform="translate(1039.368 2283.633) rotate(-43)" fill="#e8fffb"/>
    <path id="Path_31" data-name="Path 31" d="M167,0a40,40,0,0,1,40,40V167a40,40,0,0,1-40,40H40c-22.091,0-34.91-10.463-34.91-32.554Z" transform="translate(-106.632 1917.633) rotate(-43)" fill="#e8fffb"/>
    <rect id="Rectangle_82" data-name="Rectangle 82" width="207" height="207" rx="40" transform="translate(98.368 2197.633) rotate(-43)" fill="#e8fffb"/>
  </g>
</svg>
