<svg xmlns="http://www.w3.org/2000/svg" width="24.286" height="23.316" viewBox="0 0 24.286 23.316">
    <path d="M12.143 6.922A4.889 4.889 0 0 0 7.162 11.7a4.889 4.889 0 0 0 4.98 4.782 4.889 4.889 0 0 0 4.98-4.782 4.889 4.889 0 0 0-4.979-4.778zm0 0A4.889 4.889 0 0 0 7.162 11.7a4.889 4.889 0 0 0 4.98 4.782 4.889 4.889 0 0 0 4.98-4.782 4.889 4.889 0 0 0-4.979-4.778zM20.728 0H3.557A3.49 3.49 0 0 0 0 3.415V19.9a3.49 3.49 0 0 0 3.557 3.415h17.171a3.49 3.49 0 0 0 3.558-3.415V3.415A3.49 3.49 0 0 0 20.728 0zm-8.585 17.852a6.289 6.289 0 0 1-6.4-6.148 6.289 6.289 0 0 1 6.4-6.148 6.289 6.289 0 0 1 6.4 6.148 6.289 6.289 0 0 1-6.4 6.148zm7.826-12.3a1.4 1.4 0 0 1-1.423-1.362 1.424 1.424 0 0 1 2.846 0 1.4 1.4 0 0 1-1.423 1.366zm-7.826 1.37A4.889 4.889 0 0 0 7.162 11.7a4.889 4.889 0 0 0 4.98 4.782 4.889 4.889 0 0 0 4.98-4.782 4.889 4.889 0 0 0-4.979-4.778zm0 0A4.889 4.889 0 0 0 7.162 11.7a4.889 4.889 0 0 0 4.98 4.782 4.889 4.889 0 0 0 4.98-4.782 4.889 4.889 0 0 0-4.979-4.778zm0 0A4.889 4.889 0 0 0 7.162 11.7a4.889 4.889 0 0 0 4.98 4.782 4.889 4.889 0 0 0 4.98-4.782 4.889 4.889 0 0 0-4.979-4.778z" data-name="Path 21"/>
</svg>
