<svg xmlns="http://www.w3.org/2000/svg" width="23.316" height="23.316" viewBox="0 0 23.316 23.316">
    <path d="M21.598 0H1.723A1.7 1.7 0 0 0-.002 1.671v19.974a1.7 1.7 0 0 0 1.723 1.671h19.877a1.7 1.7 0 0 0 1.722-1.671V1.671A1.7 1.7 0 0 0 21.598 0zM7.069 19.517H3.546V8.99h3.523zM5.308 7.552h-.024a1.825 1.825 0 1 1 .046-3.637 1.825 1.825 0 1 1-.022 3.637zm14.46 11.965h-3.522v-5.632c0-1.415-.51-2.381-1.784-2.381a1.924 1.924 0 0 0-1.807 1.28 2.353 2.353 0 0 0-.117.853v5.88H9.017s.046-9.54 0-10.527h3.522v1.492a3.5 3.5 0 0 1 3.173-1.74c2.318 0 4.056 1.5 4.056 4.739v6.036zm-7.252-9a.285.285 0 0 1 .023-.033v.033z"/>
</svg>
