<svg xmlns="http://www.w3.org/2000/svg" width="86.375" height="66.853" viewBox="0 0 86.375 66.853">
    <defs>
        <style>
            .cls-1{opacity:.997}.cls-2{fill:#3ea868}
        </style>
    </defs>
    <g id="noun_seed_2679940" class="cls-1" transform="rotate(74.99 36.873 48.069)">
        <path id="Path_3" d="M11.64 40.881c7.2 0 9.86 4.571 9.86 10.492 0 7.1-6.779 24.986-14.9 24.986-3.715 0-6.6-4.551-6.6-16.908 0-8.351.832-18.57 11.64-18.57zM22.149 0c7.2 0 9.86 4.571 9.86 10.492 0 7.1-6.779 24.986-14.9 24.986-3.715 0-6.6-4.551-6.6-16.908 0-8.356.832-18.57 11.64-18.57zm-4.484 6.142C20.5 7.66 20.17 13.5 18.928 18.125a19.324 19.324 0 0 1-1.992 5.009c-1.2 1.864-2.381 2.258-3.212.225-1.059-2.587-.656-19.682 3.941-17.217zm-.434 11.53c1.075-4 1.55-8.943-.391-9.984-1.047-.561-2.192 10.679-1.676 14.239.065.447.114.539.294.259a17.613 17.613 0 0 0 1.773-4.514zm13.019-7.18c0-4.928-2.189-8.733-8.1-8.733-9.535 0-9.881 9.583-9.881 16.811 0 11.071 2.115 15.149 4.84 15.149 6.876 0 13.141-17.091 13.141-23.227zm8.641 15.2c7.2 0 9.86 4.571 9.86 10.492 0 7.1-6.779 24.986-14.9 24.986-3.715 0-6.6-4.551-6.6-16.908 0-8.356.832-18.57 11.64-18.57zm-4.484 6.142c2.831 1.518 2.506 7.357 1.263 11.983a19.323 19.323 0 0 1-1.992 5.009c-1.2 1.864-2.381 2.258-3.212.225-1.058-2.584-.656-19.679 3.941-17.214zm-.434 11.53c1.075-4 1.55-8.943-.391-9.983-1.047-.561-2.192 10.679-1.676 14.239.065.447.114.539.294.259a17.611 17.611 0 0 0 1.773-4.512zm13.019-7.18a15.2 15.2 0 0 0-.136-2.017c-.475-3.81-2.8-6.716-7.966-6.716-9.535 0-9.881 9.583-9.881 16.811 0 11.071 2.115 15.149 4.84 15.149 6.877 0 13.142-17.092 13.142-23.227zM7.156 47.023c2.831 1.518 2.506 7.357 1.263 11.983a19.326 19.326 0 0 1-1.992 5.009c-1.2 1.864-2.381 2.258-3.212.225-1.058-2.586-.656-19.682 3.941-17.217zm-.434 11.53c1.075-4 1.55-8.943-.391-9.984-1.047-.561-2.192 10.679-1.676 14.239.065.447.114.539.294.259a17.608 17.608 0 0 0 1.773-4.514zm13.019-7.18c0-4.928-2.189-8.733-8.1-8.733-9.535 0-9.881 9.583-9.881 16.811C1.759 70.523 3.874 74.6 6.6 74.6c6.877 0 13.142-17.092 13.142-23.227z" class="cls-2" data-name="Path 3"/>
    </g>
</svg>
