<svg xmlns="http://www.w3.org/2000/svg" width="98.227" height="98.227" viewBox="0 0 98.227 98.227">
    <defs>
        <style>
            .cls-1{fill:#3ea868}
        </style>
    </defs>
    <path id="noun_trees_2722001" d="M11.228 108.227H107a1.228 1.228 0 1 0 0-2.456H81.455v-30.06c9.873-.856 17.716-11.875 17.716-25.334C99.171 31.957 95.885 10 80.227 10S61.284 31.957 61.284 50.377c0 13.459 7.843 24.478 17.716 25.334v30.061H38.053V89.064a17.778 17.778 0 0 0 16.54-17.706V37.323a17.769 17.769 0 0 0-35.537 0v34.035A17.778 17.778 0 0 0 35.6 89.064v16.708H11.228a1.228 1.228 0 1 0 0 2.456zm52.512-57.85c0-24.809 5.7-37.921 16.488-37.921s16.487 13.113 16.487 37.921c0 12.084-6.742 21.994-15.26 22.875V48.118l7.845-7.842a1.228 1.228 0 0 0-1.736-1.736l-6.106 6.106v-8.234a1.228 1.228 0 0 0-2.456 0v16.525l-6.242-6.242a1.228 1.228 0 0 0-1.736 1.736L79 56.409v16.843c-8.519-.881-15.26-10.791-15.26-22.875zM21.512 71.358V37.323a15.313 15.313 0 0 1 30.626 0v34.035a15.324 15.324 0 0 1-14.085 15.25V74.247l7.6-7.6a1.228 1.228 0 0 0-1.736-1.736l-5.864 5.864V54.583l5.763-5.763a1.228 1.228 0 0 0-1.736-1.736l-4.026 4.026V38.636a1.228 1.228 0 0 0-2.456 0v12.475l-4.026-4.026a1.228 1.228 0 0 0-1.736 1.736l5.764 5.762v16.192l-5.867-5.865A1.228 1.228 0 0 0 28 66.647l7.6 7.6v12.361a15.324 15.324 0 0 1-14.088-15.25z" class="cls-1" transform="translate(-10 -10)"/>
</svg>
