<svg xmlns="http://www.w3.org/2000/svg" width="77.681" height="89.302" viewBox="0 0 77.681 89.302">
    <defs>
        <style>
            .cls-1{fill:#3ea868}
        </style>
    </defs>
    <path id="noun_sprout_705269" d="M85.981 91.744s-76.845.131-77.681 0v-1.981h33.491a89.842 89.842 0 0 1-.279-7.07 100.547 100.547 0 0 1 1.954-20.839 24.6 24.6 0 0 0-5.024-17.4c-2.512 0-10.885-.558-14.885-5.4-4.652-5.768-3.256-14.048-9.768-18.048 0 0 30.328-1.675 25.77 21.583a27.185 27.185 0 0 1 6.047 10.978 48.454 48.454 0 0 1 7.815-14.7c-1.023-3.814-2.791-12.466.93-18.234 4.931-7.629 15.164-9.117 17.3-18.141 0 0 13.769 35.817-16.746 38.329a46.217 46.217 0 0 0-2.7 4.186 60.527 60.527 0 0 0-6.047 16.373c-.279 2.6-.837 5.117-1.116 7.629a98.062 98.062 0 0 0-.742 10.427 72.513 72.513 0 0 0 .279 10.047v.279h41.4z" class="cls-1" transform="translate(-8.3 -2.5)"/>
</svg>
