<svg xmlns="http://www.w3.org/2000/svg" width="45.643" height="36.967" viewBox="0 0 45.643 36.967">
    <defs>
        <style>
            .cls-1{opacity:.098}
        </style>
    </defs>
    <g id="noun_inverted_commas_1925518" class="cls-1" data-name="noun_inverted commas_1925518">
        <path id="Path_1" d="M12.09 3a11.09 11.09 0 1 0 0 22.18 11.155 11.155 0 0 0 1.734-.174A14.737 14.737 0 0 1 1 32.573v7.393a22.2 22.2 0 0 0 22.18-22.18v-3.7A11.089 11.089 0 0 0 12.09 3z" data-name="Path 1" transform="translate(-1 -3)"/>
        <path id="Path_2" d="M20.09 3a11.09 11.09 0 1 0 0 22.18 11.155 11.155 0 0 0 1.734-.174A14.737 14.737 0 0 1 9 32.573v7.393a22.2 22.2 0 0 0 22.18-22.18v-3.7A11.089 11.089 0 0 0 20.09 3z" data-name="Path 2" transform="translate(14.463 -3)"/>
    </g>
</svg>
