<?xml version="1.0" encoding="utf-8"?>
<!-- Generator: Adobe Illustrator 19.0.0, SVG Export Plug-In . SVG Version: 6.00 Build 0)  -->
<svg version="1.1" id="Layer_1" xmlns="http://www.w3.org/2000/svg" xmlns:xlink="http://www.w3.org/1999/xlink" x="0px" y="0px"
	 viewBox="0 0 960 560" style="enable-background:new 0 0 960 560;" xml:space="preserve">
<style type="text/css">
	.st0{fill:#FFD246;}
	.st1{fill:#EDFCFC;}
	.st2{fill:#0093DD;}
	.st3{fill:#0685B7;}
	.st4{fill:#4BBEE5;}
	.st5{fill:#B9BABA;}
	.st6{fill:#D5DBDB;}
	.st7{fill:#4198CE;}
	.st8{fill:#296991;}
	.st9{fill:#3C277A;}
	.st10{opacity:0.13;fill:#382B73;}
	.st11{fill:#009ADD;}
	.st12{fill:#D1D3D4;}
	.st13{fill:#FFFFFF;}
	.st14{fill:#E6E7E8;}
	.st15{fill:#1CAEE4;}
	.st16{fill:#27C1E6;}
	.st17{fill:#E0B12B;}
</style>
<g>
	<path class="st0" d="M594,262V130c0-13.3-10.7-24-24-24H330c-13.3,0-24,10.7-24,24v132C306,262,593.2,261.6,594,262L594,262z
		 M594,262"/>
	<path class="st1" d="M450.9,262h14.4l0,0l-5.8-19.1l6.9-5c6.7-4.8,14-9.1,21.7-12.6l7.9-3.6l13.8,14.8c1.5-0.4,3-0.9,4.6-1.2
		l4.6-19.5l8.4-1c4-0.4,8.2-0.7,12.7-0.7s8.7,0.2,12.7,0.7l5.3,0.6V130H342v132h99.1l1.8-2.4L450.9,262z M450.9,262"/>
	<rect x="342" y="130" class="st2" width="216" height="28.3"/>
	<path class="st2" d="M421.6,384l8.6-8H342c0,13.3,10.7,24,24,24h63.3c-1.4-2.6-2.8-5.3-4.1-8.1L421.6,384z M421.6,384"/>
	<path class="st3" d="M436.4,370.2c-0.4-1.5-0.9-3-1.2-4.6l-19.6-4.6l-0.9-8.4c-0.4-4-0.7-8.2-0.7-12.7s0.2-8.6,0.7-12.7l0.9-8.4
		l19.5-4.6c0.4-1.5,0.8-2.9,1.2-4.3H402l-24,66h52.2L436.4,370.2z M436.4,370.2"/>
	<path class="st2" d="M436.4,309.8L421.8,296l3.5-7.8c3.4-7.7,7.7-15,12.6-21.8l3.2-4.5H306v24c0,13.3,10.7,24,24,24h106.3
		C436.4,309.9,436.4,309.8,436.4,309.8L436.4,309.8z M436.4,309.8"/>
	<path class="st4" d="M462,265.3c1.1-1.1,2.2-2.3,3.3-3.3h-14.4L462,265.3z M462,265.3"/>
	<path class="st5" d="M583.9,221.8l-13.7,14.6c-1.5-0.4-3-0.9-4.6-1.2l-4.6-19.5l-3.1-0.3V262h36v-35.6c-0.8-0.4-1.5-0.8-2.3-1.2
		L583.9,221.8z M583.9,221.8"/>
	<path class="st6" d="M552.7,214.7c-4-0.5-8.2-0.7-12.7-0.7s-8.7,0.2-12.7,0.7l-8.4,1l-4.6,19.5c-1.5,0.4-3.1,0.8-4.6,1.2L496,221.6
		l-7.9,3.6c-7.7,3.5-15,7.8-21.7,12.6l-6.9,5l5.8,19.1c0,0,0,0,0,0H558v-46.7L552.7,214.7z M552.7,214.7"/>
	<path class="st6" d="M442.8,259.6l-1.8,2.4h9.8L442.8,259.6z M442.8,259.6"/>
	<path class="st7" d="M436.1,386.9l11.6-10.9h-17.6l-8.6,8l3.6,7.9c1.3,2.8,2.7,5.5,4.1,8.1h13.9
		C440.6,395.8,438.2,391.4,436.1,386.9L436.1,386.9z M436.1,386.9"/>
	<path class="st8" d="M435.2,314.3l-19.5,4.6l-0.9,8.4c-0.4,4-0.7,8.2-0.7,12.7s0.2,8.6,0.7,12.7l0.9,8.4l19.6,4.6
		c0.4,1.5,0.8,3.1,1.2,4.6l-6.2,5.8h17.6l2.5-2.3c-2.2-5.8-3.8-11.8-4.9-18l-18.8-4.4c-0.4-3.7-0.6-7.5-0.6-11.3s0.2-7.6,0.6-11.3
		l18.8-4.4c0.8-4.9,2-9.7,3.5-14.3h-12.6C435.9,311.4,435.5,312.9,435.2,314.3L435.2,314.3z M435.2,314.3"/>
	<path class="st7" d="M462,265.3l-11.1-3.3h-9.8l-3.2,4.5c-4.9,6.8-9.1,14.1-12.6,21.8l-3.5,7.8l14.6,13.7c0,0.1,0,0.2-0.1,0.2h12.6
		c0.4-1.3,0.8-2.5,1.3-3.7l-14-13.1c3.1-7,6.9-13.5,11.3-19.6l18.3,5.5c4-4.8,8.4-9.2,13.2-13.2l-1.1-3.8h-12.6
		C464.2,263.1,463.1,264.2,462,265.3L462,265.3z M462,265.3"/>
	<path class="st9" d="M447.8,376l2.5-2.3c-2.2-5.8-3.8-11.8-4.9-18l-18.8-4.4c-0.4-3.7-0.6-7.5-0.6-11.3s0.2-7.6,0.6-11.3l18.8-4.4
		c0.8-4.9,2-9.7,3.5-14.3c0.4-1.3,0.8-2.5,1.3-3.7l-14-13.1c3.1-7,6.9-13.5,11.3-19.6l18.3,5.5c4-4.8,8.4-9.2,13.2-13.2l-1.1-3.8
		l-4.4-14.5c6.1-4.4,12.7-8.2,19.6-11.4l13.1,14.1c5.8-2.2,11.8-3.8,18-4.9l4.4-18.8c3.7-0.4,7.5-0.6,11.3-0.6s7.6,0.2,11.3,0.6
		l4.4,18.8c6.2,1,12.2,2.6,18,4.9l13.1-14c2.5,1.1,4.8,2.3,7.1,3.5c4.3,2.3,8.5,4.9,12.5,7.8l-5.5,18.3c4.8,4,9.2,8.4,13.2,13.2
		l18.3-5.5c4.4,6.1,8.2,12.7,11.4,19.6l-14.1,13.1c2.2,5.8,3.8,11.8,4.9,18l18.8,4.4c0.4,3.7,0.6,7.5,0.6,11.3s-0.2,7.6-0.6,11.3
		l-18.8,4.4c-1,6.2-2.6,12.2-4.9,18l14,13.1c-3.1,7-6.9,13.5-11.3,19.6l-18.3-5.5c-4,4.8-8.4,9.2-13.2,13.2l5.5,18.3
		c-6.1,4.4-12.7,8.2-19.6,11.4l-13.1-14.1c-5.8,2.2-11.8,3.8-18,4.9l-4.4,18.8c-3.7,0.4-7.5,0.6-11.3,0.6s-7.6-0.2-11.3-0.6
		l-4.4-18.8c-6.2-1-12.2-2.6-18-4.9l-13.1,14c-7-3.1-13.5-6.9-19.6-11.3l5.5-18.3c-4.8-4-9.2-8.4-13.2-13.2l-18.3,5.5
		c-1.5-2.1-3-4.3-4.3-6.5c-2.6-4.2-5-8.6-7.1-13.1L447.8,376z M576,340c0-19.9-16.1-36-36-36s-36,16.1-36,36s16.1,36,36,36
		S576,359.9,576,340L576,340z M576,340"/>
	<path class="st2" d="M540,292c-26.5,0-48,21.5-48,48s21.5,48,48,48s48-21.5,48-48S566.5,292,540,292L540,292z M540,376
		c-19.9,0-36-16.1-36-36s16.1-36,36-36s36,16.1,36,36S559.9,376,540,376L540,376z M540,376"/>
	<rect x="360" y="138" class="st9" width="12" height="12"/>
	<rect x="384" y="138" class="st9" width="12" height="12"/>
	<rect x="408" y="138" class="st9" width="12" height="12"/>
	<path class="st6" d="M543.3,411.9l-0.5-12c3.6-0.2,7.2-0.6,10.7-1.4l2.7,11.7C551.9,411.1,547.6,411.7,543.3,411.9L543.3,411.9z
		 M524.1,410.2c-4.2-0.9-8.3-2.3-12.3-4l4.7-11c3.3,1.4,6.7,2.5,10.2,3.3L524.1,410.2z M574.2,403.4l-5.7-10.6
		c3.1-1.7,6.2-3.7,9-5.9l7.5,9.4C581.6,399,577.9,401.4,574.2,403.4L574.2,403.4z M495.2,396.4c-3.4-2.7-6.5-5.7-9.3-8.9l9-7.9
		c2.4,2.7,5,5.2,7.8,7.4L495.2,396.4z M598.3,382.3l-9.7-7.1c2.1-2.9,4-6,5.5-9.2l10.8,5.2C603,375.1,600.8,378.8,598.3,382.3
		L598.3,382.3z M475.2,371.4c-1.9-3.9-3.4-8-4.6-12.1l11.6-3.2c0.9,3.4,2.2,6.8,3.8,10L475.2,371.4z M610.9,352.8l-11.8-2.1
		c0.6-3.5,1-7.1,1-10.7l12-0.3v0.3C612,344.3,611.6,348.6,610.9,352.8L610.9,352.8z M468,340.1V340c0-4.3,0.4-8.5,1.1-12.7l11.8,2.1
		c-0.6,3.5-0.9,7-0.9,10.6L468,340.1z M597.8,323.8c-0.9-3.4-2.2-6.8-3.8-10l10.8-5.3c1.9,3.9,3.4,7.9,4.6,12.1L597.8,323.8z
		 M485.9,314.1l-10.8-5.2c1.9-3.9,4.1-7.6,6.6-11.1l9.7,7C489.3,307.8,487.4,310.9,485.9,314.1L485.9,314.1z M585.1,300.4
		c-2.4-2.7-5-5.2-7.8-7.4l7.5-9.4c3.4,2.7,6.5,5.7,9.3,8.9L585.1,300.4z M502.5,293.2l-7.5-9.4c3.4-2.7,7-5.1,10.7-7.1l5.7,10.5
		C508.3,288.9,505.3,290.9,502.5,293.2L502.5,293.2z M563.4,284.7c-3.3-1.4-6.7-2.5-10.2-3.3l2.6-11.7c4.2,0.9,8.4,2.3,12.3,3.9
		L563.4,284.7z M526.5,281.5l-2.7-11.7c4.2-1,8.5-1.6,12.8-1.8l0.6,12C533.5,280.2,530,280.7,526.5,281.5L526.5,281.5z M526.5,281.5
		"/>
</g>
<g>
	<path class="st10" d="M480.3,207.8C480.3,207.8,480.3,207.8,480.3,207.8c0-0.1,0-0.1,0-0.1c0,0,0-0.1,0-0.1c0,0,0,0,0,0
		c-0.2-2.7-2.4-5-5.1-5.1c0-0.1,0-0.1,0-0.2c0,0,0,0,0,0c0-0.1,0-0.1,0-0.2c0,0,0,0,0,0c0,0,0-0.1,0-0.1c0,0,0,0,0,0
		c0-0.1,0-0.1,0-0.2c0,0,0,0,0,0c0-0.1,0-0.1,0-0.2c0,0,0,0,0,0c0-0.1,0-0.1,0-0.2c0,0,0,0,0,0c0-0.1,0-0.1,0-0.1c0,0,0,0,0,0
		c0,0,0-0.1,0-0.1c0,0,0,0,0,0c0-0.1,0-0.1,0-0.1c0,0,0,0,0,0c0,0,0-0.1,0-0.1c0,0,0,0,0,0c0,0,0-0.1,0-0.1c0,0,0,0,0-0.1
		c0,0,0-0.1,0-0.1c0,0,0,0,0,0c0,0,0-0.1,0-0.1c0,0,0,0,0,0c0,0,0-0.1,0-0.1c0,0,0,0,0,0c0,0,0-0.1,0-0.1c0,0,0,0,0,0
		c0,0,0-0.1,0-0.1c0,0,0,0,0-0.1c0,0,0-0.1,0-0.1c0,0,0,0,0,0c0,0,0-0.1,0-0.1c0,0,0,0,0,0c0,0,0-0.1,0-0.1c0,0,0,0,0-0.1
		c0,0,0-0.1,0-0.1c0,0,0,0,0-0.1c0,0,0-0.1,0-0.1c0,0,0,0,0-0.1c0,0,0-0.1,0-0.1c0,0,0,0,0-0.1c0,0,0-0.1,0-0.1c0,0,0,0,0-0.1
		c0,0,0-0.1,0-0.1c0,0,0,0,0-0.1c0,0,0-0.1,0-0.1c0,0,0-0.1,0-0.1c0,0,0-0.1,0-0.1c0,0,0,0,0-0.1c0,0,0-0.1-0.1-0.1c0,0,0,0,0-0.1
		c0,0,0-0.1,0-0.1c0,0,0,0,0-0.1c0,0,0-0.1-0.1-0.1c0,0,0,0,0-0.1c0,0,0-0.1-0.1-0.1c0,0,0,0,0-0.1c0,0,0-0.1,0-0.1c0,0,0,0,0-0.1
		c0,0,0-0.1-0.1-0.1c0,0,0,0,0-0.1c0,0,0,0,0-0.1c0,0,0,0,0-0.1c0,0,0-0.1-0.1-0.1c0,0,0,0,0-0.1c0,0,0-0.1-0.1-0.1
		c-0.8-1-1.9-1.9-3.2-2.4l0,0l-1.8-1.6l0.5-1.6c0,0,0,0-0.1,0c1.6,0,3.2-0.7,4.2-1.9c0.1-0.1,0.2-0.1,0.3-0.2c0,0,0.1,0,0.1,0.1
		c0.9,0.3,1.9-0.2,2.3-1.1c0.1-0.4,0.1-0.7,0-1.1c0.4-0.6,0.7-1.2,1-1.9c0.1-0.4,0.2-0.8,0.3-1.2c0,0,0,0,0,0c0-0.1,0-0.1,0-0.1
		c0,0,0,0,0,0c0,0,0-0.1,0-0.1c0,0,0,0,0,0c0,0,0-0.1,0-0.1c0,0,0,0,0,0c0,0,0-0.1,0-0.1c0,0,0,0,0,0c0,0,0-0.1,0-0.1c0,0,0,0,0,0
		c0,0,0-0.1,0-0.1c0,0,0,0,0,0c0,0,0-0.1,0-0.1c0,0,0,0,0,0c0-0.1,0-0.1,0-0.2c0,0,0,0,0,0c0-0.4-0.1-0.8-0.1-1.1c0,0,0,0,0,0
		c0,0,0-0.1,0-0.1c0,0,0,0,0,0c0,0,0-0.1,0-0.1c0,0,0,0,0,0c0,0,0-0.1,0-0.1c0,0,0,0,0,0c0,0,0-0.1,0-0.1c0,0,0,0,0,0
		c0,0,0-0.1,0-0.1c0,0,0,0,0,0c0,0,0-0.1,0-0.1c0,0,0,0,0,0c0,0,0-0.1,0-0.1c0,0,0,0,0,0c0,0,0-0.1,0-0.1c0,0,0,0,0,0
		c0,0,0-0.1,0-0.1c0,0,0,0,0,0c0,0,0-0.1,0-0.1c0,0,0,0,0,0c0,0,0-0.1-0.1-0.1c0,0,0,0,0,0c0,0,0-0.1-0.1-0.1c0,0,0,0,0,0
		c-0.1-0.1-0.1-0.3-0.2-0.4c0,0,0,0,0,0c0,0,0-0.1-0.1-0.1c0,0,0,0,0-0.1c0,0,0-0.1-0.1-0.1c0,0,0,0,0-0.1c0,0,0-0.1-0.1-0.1
		c0,0,0,0,0-0.1c0,0,0-0.1-0.1-0.1c0,0,0,0,0-0.1c0,0,0-0.1-0.1-0.1c0,0,0,0,0-0.1c0,0,0,0-0.1-0.1c0,0,0,0,0-0.1c0,0,0,0-0.1-0.1
		c0,0,0,0-0.1-0.1c0,0,0,0-0.1-0.1c0,0,0,0-0.1-0.1c0,0,0,0-0.1-0.1c0,0,0,0-0.1-0.1c0,0,0,0-0.1-0.1c0,0,0,0-0.1-0.1
		c0,0,0,0-0.1-0.1c0,0,0,0-0.1-0.1c0,0,0,0-0.1-0.1c0,0,0,0-0.1-0.1c0,0,0,0-0.1-0.1c0,0-0.1,0-0.1-0.1c0,0,0,0-0.1,0
		c0,0-0.1-0.1-0.1-0.1c0,0,0,0,0,0c0,0-0.1-0.1-0.1-0.1c0,0,0,0,0,0c0,0-0.1,0-0.1-0.1c0,0,0,0-0.1,0c0,0-0.1,0-0.1-0.1
		c0,0,0,0-0.1,0c0,0-0.1,0-0.1-0.1c0,0,0,0-0.1,0c0,0-0.1,0-0.1-0.1c0,0,0,0-0.1,0c0,0-0.1,0-0.1-0.1c0,0,0,0-0.1,0
		c0,0-0.1,0-0.1-0.1c0,0,0,0-0.1,0c0,0-0.1,0-0.1,0c0,0,0,0-0.1,0c0,0-0.1,0-0.1,0c0,0,0,0-0.1,0c0,0-0.1,0-0.1,0c0,0,0,0-0.1,0
		c0,0-0.1,0-0.1,0c0,0,0,0-0.1,0c0,0-0.1,0-0.1,0c0,0,0,0-0.1,0c0,0-0.1,0-0.1,0c0,0,0,0-0.1,0c0,0-0.1,0-0.1-0.1c0,0,0,0,0,0
		c-0.1,0-0.1,0-0.2-0.1c-0.1,0-0.1,0-0.2-0.1c0,0,0,0,0,0c0,0-0.1,0-0.1,0c0,0,0,0-0.1,0c0,0-0.1,0-0.1,0c0,0,0,0-0.1,0
		c-0.1,0-0.1,0-0.2,0c0,0,0,0,0,0c-0.1,0-0.1,0-0.2,0c0,0,0,0,0,0c0,0-0.1,0-0.1,0c0,0,0,0-0.1,0c0,0-0.1,0-0.1,0c0,0,0,0-0.1,0
		c0,0-0.1,0-0.1,0c0,0,0,0,0,0c-0.1,0-0.1,0-0.2,0c0,0,0,0,0,0c0,0-0.1,0-0.1,0c0,0,0,0-0.1,0c0,0-0.1,0-0.1,0c0,0,0,0-0.1,0
		c0,0-0.1,0-0.1,0c0,0,0,0-0.1,0c-0.1,0-0.1,0-0.2,0c0,0,0,0,0,0c0,0-0.1,0-0.1,0c0,0,0,0-0.1,0c0,0-0.1,0-0.1,0c0,0,0,0-0.1,0
		c0,0-0.1,0-0.1,0c0,0,0,0-0.1,0c0,0-0.1,0-0.1,0c0,0,0,0,0,0c-0.1,0-0.1,0-0.2,0c0,0,0,0-0.1,0c0,0-0.1,0-0.1,0c0,0,0,0-0.1,0
		c0,0-0.1,0-0.1,0c0,0,0,0-0.1,0c0,0-0.1,0-0.1,0c0,0,0,0-0.1,0c-0.1,0-0.1,0-0.1,0c0,0,0,0-0.1,0c0,0-0.1,0-0.1,0c0,0,0,0-0.1,0
		c0,0-0.1,0-0.1,0c0,0,0,0-0.1,0c0,0-0.1,0-0.1,0c0,0,0,0-0.1,0c0,0-0.1,0-0.1,0c-1.1,0.4-2.2,1-3,1.9c0,0,0,0,0,0
		c0,0-0.1,0.1-0.1,0.1c0,0,0,0,0,0c0,0-0.1,0.1-0.1,0.1c0,0,0,0,0,0c-0.1,0.1-0.2,0.2-0.2,0.3c0,0,0,0,0,0.1c0,0,0,0.1-0.1,0.1
		c0,0,0,0,0,0.1c0,0,0,0-0.1,0.1c0,0,0,0,0,0.1c0,0,0,0,0,0.1c0,0,0,0.1-0.1,0.1c0,0,0,0.1-0.1,0.1c0,0,0,0.1-0.1,0.1c0,0,0,0,0,0.1
		c0,0,0,0.1,0,0.1c0,0,0,0,0,0.1c0,0,0,0.1,0,0.1c0,0,0,0,0,0.1c0,0,0,0.1,0,0.1c0,0,0,0,0,0.1c0,0,0,0.1-0.1,0.1c0,0,0,0,0,0
		c0,0.1,0,0.1-0.1,0.2c0,0,0,0,0,0.1c0,0,0,0.1,0,0.1c0,0,0,0,0,0.1c0,0,0,0.1,0,0.1c0,0,0,0,0,0.1c0,0,0,0.1,0,0.1c0,0,0,0,0,0.1
		c0,0.1,0,0.1-0.1,0.2c0,0.1,0,0.1,0,0.1c0,0,0,0.1,0,0.1c0,0,0,0,0,0c-0.2,0.6-0.3,1.2-0.3,1.9c-0.3,0.2-0.5,0.5-0.6,0.9
		c-0.3,0.9,0.2,1.9,1.1,2.3c0,0,0.1,0,0.1,0c0.1,0.1,0.1,0.2,0.2,0.4c0,0.5,0.1,0.9,0.3,1.4c0,0.1,0.1,0.2,0.1,0.3
		c0.2,0.4,0.4,0.8,0.6,1.2c0.1,0.1,0.2,0.2,0.2,0.3c0.1,0.1,0.1,0.1,0.2,0.2c0.1,0.2,0.3,0.3,0.5,0.5c0.1,0.1,0.2,0.2,0.3,0.3
		c0,0,0.1,0,0.1,0.1c0,0,0,0-0.1-0.1l-0.3,1l-0.2,0.6l-2.4,0.2v0c-1.3-0.4-2.7-0.4-4,0c0,0-0.1,0-0.1,0c0,0,0,0-0.1,0
		c0,0-0.1,0-0.1,0c0,0,0,0-0.1,0c0,0-0.1,0-0.1,0c0,0,0,0-0.1,0c0,0-0.1,0-0.1,0c0,0,0,0-0.1,0c0,0-0.1,0-0.1,0c0,0,0,0-0.1,0
		c0,0-0.1,0-0.1,0c0,0,0,0-0.1,0c0,0-0.1,0-0.1,0.1c0,0,0,0,0,0c0,0-0.1,0-0.1,0c0,0,0,0-0.1,0c0,0-0.1,0-0.1,0.1c0,0,0,0-0.1,0
		c0,0-0.1,0-0.1,0c0,0,0,0-0.1,0c0,0-0.1,0-0.1,0.1c0,0,0,0,0,0c0,0-0.1,0-0.1,0.1c0,0,0,0,0,0c0,0-0.1,0-0.1,0.1c0,0,0,0,0,0
		c0,0-0.1,0.1-0.1,0.1c0,0,0,0,0,0c0,0-0.1,0-0.1,0.1c0,0,0,0,0,0c0,0-0.1,0.1-0.1,0.1c0,0,0,0,0,0c0,0-0.1,0.1-0.1,0.1c0,0,0,0,0,0
		v-1.6c0-0.1,0-0.1,0-0.2c0,0,0,0,0,0c0-0.1,0-0.1,0-0.2c0,0,0,0,0,0c0-0.1,0-0.1,0-0.2c0,0,0,0,0,0c0-0.1,0-0.1,0-0.2c0,0,0,0,0,0
		c0-0.1,0-0.1,0-0.2c0,0,0,0,0,0c0-0.1,0-0.1,0-0.2c0,0,0,0,0,0c0-0.1,0-0.1,0-0.2c0,0,0,0,0,0c0,0,0-0.1,0-0.1c0,0,0,0,0,0
		c0-0.1,0-0.1,0-0.2c0,0,0,0,0,0c0-0.1,0-0.1,0-0.2c0,0,0,0,0,0c0,0,0-0.1,0-0.1c0,0,0,0,0,0c0,0,0-0.1,0-0.1c0,0,0,0,0,0
		c0,0,0-0.1,0-0.1c0,0,0,0,0,0c0,0,0-0.1-0.1-0.1c0,0,0,0,0,0c0,0,0-0.1-0.1-0.1c0,0,0,0,0,0c0,0,0-0.1-0.1-0.1c0,0,0,0,0,0
		c0,0,0-0.1-0.1-0.1c0,0,0,0,0,0c0,0,0-0.1-0.1-0.1c0,0,0,0,0,0c0,0,0-0.1-0.1-0.1c0,0,0,0,0,0c0,0,0-0.1-0.1-0.1c0,0,0,0,0,0
		c0,0,0-0.1-0.1-0.1c0,0,0,0,0,0c0,0,0-0.1-0.1-0.1c0,0,0,0,0,0c0,0,0-0.1-0.1-0.1c0,0,0,0,0,0c0,0-0.1-0.1-0.1-0.1c0,0,0,0,0,0
		c0,0-0.1-0.1-0.1-0.1c0,0,0,0,0,0c0,0,0-0.1-0.1-0.1c0,0,0,0,0,0c0,0-0.1-0.1-0.1-0.1c0,0,0,0,0,0c0,0,0-0.1-0.1-0.1c0,0,0,0,0,0
		c0,0-0.1-0.1-0.1-0.1c0,0,0,0,0,0c0,0-0.1-0.1-0.1-0.1c0,0,0,0,0-0.1c0,0,0,0-0.1-0.1c0,0,0,0,0,0c0,0-0.1-0.1-0.1-0.1c0,0,0,0,0,0
		c0,0,0,0-0.1-0.1c0,0,0,0-0.1,0c0,0-0.1-0.1-0.1-0.1c0,0,0,0,0,0c0,0-0.1,0-0.1-0.1c0,0,0,0-0.1-0.1c0,0,0,0-0.1-0.1c0,0,0,0,0,0
		c0,0-0.1-0.1-0.1-0.1c0,0,0,0-0.1,0c0,0,0,0-0.1-0.1c0,0,0,0-0.1,0c0,0-0.1,0-0.1-0.1c0,0,0,0-0.1,0c0,0-0.1,0-0.1-0.1
		c-1.1-0.7-2.4-1.2-3.8-1.3l0,0l-2.2-0.9v-1.7c0,0,0,0-0.1,0c1.6-0.5,2.8-1.7,3.4-3.2c0.1-0.1,0.2-0.2,0.3-0.3c0,0,0.1,0,0.1,0
		c1,0,1.8-0.8,1.8-1.8c0-0.4-0.1-0.7-0.3-1c0.2-0.7,0.3-1.4,0.3-2.1c0-0.4,0-0.8-0.1-1.2c0,0,0,0,0,0c0-0.1,0-0.1,0-0.1c0,0,0,0,0,0
		c0,0,0-0.1,0-0.1c0,0,0,0,0,0c0,0,0-0.1,0-0.1c0,0,0,0,0,0c0,0,0-0.1,0-0.1c0,0,0,0,0,0c0,0,0-0.1,0-0.1c0,0,0,0,0,0
		c0,0,0-0.1,0-0.1c0,0,0,0,0,0c0,0,0-0.1,0-0.1c0,0,0,0,0,0c0-0.1,0-0.1-0.1-0.1c0,0,0,0,0,0c-0.1-0.4-0.3-0.7-0.5-1c0,0,0,0,0,0
		c0,0,0-0.1-0.1-0.1c0,0,0,0,0,0c0,0,0-0.1-0.1-0.1c0,0,0,0,0,0c0,0,0-0.1-0.1-0.1c0,0,0,0,0,0c0,0,0-0.1-0.1-0.1c0,0,0,0,0,0
		c0,0,0-0.1-0.1-0.1c0,0,0,0,0,0c0,0,0-0.1-0.1-0.1c0,0,0,0,0,0c0,0,0-0.1-0.1-0.1c0,0,0,0,0,0c0,0-0.1-0.1-0.1-0.1c0,0,0,0,0,0
		c0,0-0.1-0.1-0.1-0.1c0,0,0,0,0,0c0,0-0.1-0.1-0.1-0.1c0,0,0,0,0,0c0,0-0.1-0.1-0.1-0.1c0,0,0,0,0,0c0,0-0.1-0.1-0.1-0.1
		c0,0,0,0,0,0c-0.1-0.1-0.2-0.2-0.3-0.3c0,0,0,0,0,0c0,0-0.1-0.1-0.1-0.1c0,0,0,0,0,0c0,0-0.1,0-0.1-0.1c0,0,0,0,0,0
		c0,0-0.1,0-0.1-0.1c0,0,0,0-0.1,0c0,0-0.1,0-0.1-0.1c0,0,0,0-0.1,0c0,0,0,0-0.1-0.1c0,0,0,0-0.1,0c0,0,0,0-0.1,0c0,0,0,0-0.1,0
		c0,0-0.1,0-0.1,0c0,0,0,0-0.1,0c0,0,0,0-0.1,0c0,0,0,0-0.1,0c0,0,0,0-0.1,0c0,0-0.1,0-0.1,0c0,0-0.1,0-0.1,0c0,0-0.1,0-0.1,0
		c0,0,0,0-0.1,0c0,0-0.1,0-0.1,0c0,0,0,0-0.1,0c0,0-0.1,0-0.1,0c0,0,0,0-0.1,0c0,0-0.1,0-0.1,0c0,0,0,0-0.1,0c-0.1,0-0.1,0-0.2-0.1
		c0,0,0,0,0,0c0,0-0.1,0-0.1,0c0,0,0,0-0.1,0c0,0-0.1,0-0.1,0c0,0,0,0-0.1,0c0,0-0.1,0-0.1,0c0,0,0,0-0.1,0c0,0-0.1,0-0.1,0
		c0,0,0,0-0.1,0c0,0-0.1,0-0.1,0c0,0,0,0-0.1,0c0,0-0.1,0-0.1,0c0,0,0,0-0.1,0c0,0-0.1,0-0.1,0c0,0,0,0-0.1,0c0,0-0.1,0-0.1,0
		c0,0,0,0-0.1,0c0,0-0.1,0-0.1,0c0,0,0,0-0.1,0c0,0-0.1,0-0.1,0c0,0-0.1,0-0.1,0c0,0-0.1,0-0.1,0c0,0,0,0-0.1,0c0,0-0.1,0-0.1,0
		c0,0,0,0-0.1,0c0,0-0.1,0-0.1,0c0,0,0,0-0.1,0c0,0-0.1,0-0.1,0c0,0,0,0,0,0c-0.1,0-0.1,0-0.2,0c-0.1,0-0.1,0-0.2,0c0,0,0,0,0,0
		c0,0-0.1,0-0.1,0c0,0,0,0-0.1,0c0,0-0.1,0-0.1,0c0,0,0,0,0,0c-0.1,0-0.1,0-0.1,0c0,0,0,0,0,0c-0.1,0-0.1,0-0.2,0c0,0,0,0,0,0
		c0,0-0.1,0-0.1,0c0,0,0,0-0.1,0c0,0-0.1,0-0.1,0c0,0,0,0-0.1,0c0,0-0.1,0-0.1,0c0,0,0,0,0,0c-0.1,0-0.1,0-0.2,0c0,0,0,0,0,0
		c0,0-0.1,0-0.1,0c0,0,0,0-0.1,0c0,0-0.1,0-0.1,0c0,0,0,0-0.1,0c0,0-0.1,0-0.1,0c0,0,0,0-0.1,0c-0.1,0-0.1,0-0.2,0.1c0,0,0,0,0,0
		c0,0-0.1,0-0.1,0c0,0,0,0-0.1,0c0,0-0.1,0-0.1,0c0,0,0,0-0.1,0c0,0-0.1,0-0.1,0c0,0,0,0-0.1,0c0,0-0.1,0-0.1,0.1c0,0,0,0,0,0
		c0,0-0.1,0-0.1,0.1c0,0,0,0-0.1,0c0,0-0.1,0-0.1,0c0,0,0,0-0.1,0c0,0-0.1,0-0.1,0c0,0,0,0-0.1,0c0,0-0.1,0-0.1,0.1c0,0,0,0,0,0
		c0,0-0.1,0.1-0.1,0.1c0,0,0,0,0,0c0,0-0.1,0-0.1,0.1c0,0,0,0-0.1,0c0,0-0.1,0-0.1,0.1c0,0,0,0-0.1,0c0,0-0.1,0-0.1,0.1
		c0,0,0,0-0.1,0c0,0-0.1,0.1-0.1,0.1c-0.9,0.7-1.7,1.6-2.2,2.7c0,0,0,0,0,0c0,0,0,0.1-0.1,0.1c0,0,0,0,0,0c0,0,0,0.1-0.1,0.1
		c0,0,0,0,0,0c0,0,0,0.1,0,0.1c0,0,0,0,0,0c0,0.1-0.1,0.2-0.1,0.3c0,0,0,0,0,0c0,0,0,0.1,0,0.1c0,0,0,0,0,0.1c0,0,0,0.1,0,0.1
		c0,0,0,0,0,0.1c0,0,0,0.1,0,0.1c0,0,0,0.1,0,0.1c0,0,0,0.1,0,0.1c0,0,0,0.1,0,0.1c0,0,0,0.1,0,0.1c0,0,0,0.1,0,0.1c0,0,0,0,0,0.1
		c0,0,0,0.1,0,0.1c0,0,0,0,0,0.1c0,0,0,0.1,0,0.1c0,0,0,0,0,0.1c0,0,0,0.1,0,0.1c0,0,0,0,0,0.1c0,0,0,0.1,0,0.1c0,0,0,0,0,0
		c0,0.1,0,0.1,0,0.2c0,0,0,0,0,0.1c0,0,0,0.1,0,0.1c0,0,0,0,0,0.1c0,0,0,0.1,0,0.1c0,0,0,0,0,0.1c0,0,0,0.1,0,0.1c0,0,0,0,0,0.1
		c0,0.1,0,0.1,0,0.2c0,0.1,0,0.1,0,0.2c0,0,0,0.1,0,0.1c0,0,0,0,0,0c0,0.6,0.1,1.3,0.3,1.8c-0.2,0.3-0.3,0.6-0.3,1
		c0,1,0.8,1.8,1.8,1.8c0,0,0.1,0,0.1,0c0.1,0.1,0.2,0.2,0.3,0.3c0.6,1.5,1.9,2.7,3.5,3.2c0,0-0.1,0-0.1,0v1.7l-1.1,0.5l-1.1,0.5l0,0
		c-1.4,0.1-2.7,0.5-3.8,1.3c0,0-0.1,0-0.1,0.1c0,0,0,0-0.1,0c0,0-0.1,0-0.1,0.1c0,0,0,0-0.1,0c0,0,0,0-0.1,0.1c0,0,0,0,0,0
		c0,0-0.1,0.1-0.1,0.1c0,0,0,0,0,0c0,0-0.1,0-0.1,0.1c0,0,0,0-0.1,0c0,0-0.1,0.1-0.1,0.1c0,0,0,0,0,0c0,0-0.1,0.1-0.1,0.1
		c0,0,0,0,0,0c0,0,0,0-0.1,0.1c0,0,0,0,0,0c0,0-0.1,0.1-0.1,0.1c0,0,0,0,0,0c0,0,0,0.1-0.1,0.1c0,0,0,0,0,0c0,0-0.1,0.1-0.1,0.1
		c0,0,0,0,0,0c0,0-0.1,0.1-0.1,0.1c0,0,0,0,0,0c0,0,0,0.1-0.1,0.1c0,0,0,0,0,0c0,0-0.1,0.1-0.1,0.1c0,0,0,0,0,0c0,0,0,0.1-0.1,0.1
		c0,0,0,0,0,0c0,0,0,0.1-0.1,0.1c0,0,0,0,0,0c0,0-0.1,0.1-0.1,0.1c0,0,0,0,0,0c0,0,0,0.1-0.1,0.1c0,0,0,0,0,0c0,0,0,0.1-0.1,0.1
		c0,0,0,0,0,0c0,0,0,0.1-0.1,0.1c0,0,0,0,0,0c0,0,0,0.1-0.1,0.1c0,0,0,0,0,0c0,0,0,0.1-0.1,0.1c0,0,0,0,0,0c0,0,0,0.1-0.1,0.1
		c0,0,0,0,0,0c0,0,0,0.1-0.1,0.1c0,0,0,0,0,0c0,0,0,0.1-0.1,0.1c0,0,0,0,0,0c0,0,0,0.1-0.1,0.1c0,0,0,0,0,0c0,0,0,0.1-0.1,0.1
		c0,0,0,0,0,0c0,0,0,0.1,0,0.1c0,0,0,0,0,0c0,0,0,0.1,0,0.1c0,0,0,0,0,0c0,0.1,0,0.1,0,0.1c0,0,0,0,0,0c0,0.1,0,0.1,0,0.2
		c0,0,0,0,0,0c0,0.1,0,0.1,0,0.2c0,0,0,0,0,0c0,0,0,0.1,0,0.1c0,0,0,0,0,0c0,0.1,0,0.1,0,0.2c0,0,0,0,0,0c0,0.1,0,0.1,0,0.2
		c0,0,0,0,0,0c0,0.1,0,0.1,0,0.2c0,0,0,0,0,0c0,0.1,0,0.1,0,0.2c0,0,0,0,0,0c0,0,0,0.1,0,0.1c0,0,0,0,0,0c0,0.1,0,0.1,0,0.2
		c0,0,0,0,0,0c0,0.1,0,0.1,0,0.2v1.6l0,0c0,0-0.1-0.1-0.1-0.1c0,0,0,0,0,0c0,0-0.1-0.1-0.1-0.1c0,0,0,0,0,0c0,0-0.1,0-0.1-0.1
		c0,0,0,0,0,0c0,0-0.1-0.1-0.1-0.1c0,0,0,0,0,0c0,0-0.1,0-0.1-0.1c0,0,0,0,0,0c0,0-0.1,0-0.1-0.1c0,0,0,0-0.1,0c0,0-0.1,0-0.1-0.1
		c0,0,0,0-0.1,0c0,0-0.1,0-0.1,0c0,0,0,0-0.1,0c0,0-0.1,0-0.1-0.1c0,0,0,0-0.1,0c0,0-0.1,0-0.1,0c0,0,0,0,0,0c0,0-0.1,0-0.1-0.1
		c0,0,0,0-0.1,0c0,0-0.1,0-0.1,0c0,0-0.1,0-0.1,0c0,0-0.1,0-0.1,0c0,0,0,0-0.1,0c0,0-0.1,0-0.1,0c0,0,0,0-0.1,0c0,0-0.1,0-0.1,0
		c0,0,0,0-0.1,0c0,0-0.1,0-0.1,0c0,0,0,0-0.1,0c0,0-0.1,0-0.1,0c-1.3-0.4-2.6-0.4-4,0v0l-2.4-0.2l-0.2-0.6l-0.3-1c0,0-0.1,0-0.1,0.1
		c0,0,0.1,0,0.1-0.1c0.1-0.1,0.2-0.2,0.3-0.3c0.2-0.1,0.3-0.3,0.5-0.5c0.1-0.1,0.1-0.1,0.2-0.2c0.1-0.1,0.2-0.2,0.2-0.3
		c0.3-0.4,0.5-0.8,0.6-1.2c0-0.1,0.1-0.2,0.1-0.3c0.1-0.4,0.2-0.9,0.3-1.4c0.1-0.1,0.1-0.2,0.2-0.4c0,0,0.1,0,0.1,0
		c0.9-0.3,1.4-1.3,1.1-2.3c-0.1-0.4-0.3-0.7-0.6-0.9c0-0.6-0.1-1.2-0.3-1.9c0,0,0,0,0,0c0,0,0-0.1,0-0.1c0-0.1,0-0.1,0-0.1
		c0-0.1,0-0.1-0.1-0.2c0,0,0,0,0-0.1c0,0,0-0.1,0-0.1c0,0,0,0,0-0.1c0,0,0-0.1,0-0.1c0,0,0,0,0-0.1c0,0,0-0.1,0-0.1c0,0,0,0,0-0.1
		c0-0.1,0-0.1-0.1-0.2c0,0,0,0,0,0c0,0,0-0.1-0.1-0.1c0,0,0,0,0-0.1c0,0,0-0.1,0-0.1c0,0,0,0,0-0.1c0,0,0-0.1,0-0.1c0,0,0,0,0-0.1
		c0,0,0-0.1,0-0.1c0,0,0,0,0-0.1c0,0,0-0.1-0.1-0.1c0,0,0-0.1-0.1-0.1c0,0,0-0.1-0.1-0.1c0,0,0,0,0-0.1c0,0,0,0,0-0.1
		c0,0,0,0-0.1-0.1c0,0,0,0,0-0.1c0,0,0-0.1-0.1-0.1c0,0,0,0,0-0.1c-0.1-0.1-0.2-0.2-0.2-0.3c0,0,0,0,0,0c0,0-0.1-0.1-0.1-0.1
		c0,0,0,0,0,0c0,0-0.1-0.1-0.1-0.1c0,0,0,0,0,0c-0.8-0.9-1.9-1.5-3-1.9c0,0-0.1,0-0.1,0c0,0,0,0-0.1,0c0,0-0.1,0-0.1,0
		c0,0,0,0-0.1,0c0,0-0.1,0-0.1,0c0,0,0,0-0.1,0c0,0-0.1,0-0.1,0c0,0,0,0-0.1,0c-0.1,0-0.1,0-0.2,0c0,0,0,0-0.1,0c0,0-0.1,0-0.1,0
		c0,0,0,0-0.1,0c0,0-0.1,0-0.1,0c0,0,0,0-0.1,0c0,0-0.1,0-0.1,0c0,0,0,0-0.1,0c-0.1,0-0.1,0-0.2,0c0,0,0,0,0,0c0,0-0.1,0-0.1,0
		c0,0,0,0-0.1,0c0,0-0.1,0-0.1,0c0,0,0,0-0.1,0c0,0-0.1,0-0.1,0c0,0,0,0-0.1,0c-0.1,0-0.1,0-0.2,0c0,0,0,0,0,0c-0.1,0-0.1,0-0.2,0
		c0,0,0,0-0.1,0c0,0-0.1,0-0.1,0c0,0,0,0-0.1,0c0,0-0.1,0-0.1,0c0,0,0,0-0.1,0c0,0-0.1,0-0.1,0c0,0,0,0,0,0c-0.1,0-0.1,0-0.2,0
		c0,0,0,0,0,0c0,0-0.1,0-0.1,0c0,0,0,0-0.1,0c0,0-0.1,0-0.1,0c0,0,0,0-0.1,0c0,0-0.1,0-0.1,0c0,0,0,0,0,0c-0.1,0-0.1,0-0.2,0
		c0,0,0,0,0,0c-0.1,0-0.1,0-0.2,0c0,0,0,0-0.1,0c0,0-0.1,0-0.1,0c0,0,0,0-0.1,0c0,0-0.1,0-0.1,0c0,0,0,0,0,0c-0.1,0-0.1,0-0.2,0.1
		c-0.1,0-0.1,0-0.2,0.1c0,0,0,0,0,0c0,0-0.1,0-0.1,0.1c0,0,0,0-0.1,0c0,0-0.1,0-0.1,0c0,0,0,0-0.1,0c0,0-0.1,0-0.1,0c0,0,0,0-0.1,0
		c0,0-0.1,0-0.1,0c0,0,0,0-0.1,0c0,0-0.1,0-0.1,0c0,0,0,0-0.1,0c0,0-0.1,0-0.1,0c0,0,0,0-0.1,0c0,0-0.1,0-0.1,0c0,0,0,0-0.1,0
		c0,0-0.1,0-0.1,0.1c0,0,0,0-0.1,0c0,0-0.1,0-0.1,0.1c0,0,0,0-0.1,0c0,0-0.1,0-0.1,0.1c0,0,0,0-0.1,0c0,0-0.1,0-0.1,0.1
		c0,0,0,0-0.1,0c0,0-0.1,0-0.1,0.1c0,0,0,0-0.1,0c0,0-0.1,0-0.1,0.1c0,0,0,0,0,0c0,0-0.1,0.1-0.1,0.1c0,0,0,0,0,0
		c0,0-0.1,0.1-0.1,0.1c0,0,0,0-0.1,0c0,0-0.1,0-0.1,0.1c0,0,0,0-0.1,0.1c0,0,0,0-0.1,0.1c0,0,0,0-0.1,0.1c0,0,0,0-0.1,0.1
		c0,0,0,0-0.1,0.1c0,0,0,0-0.1,0.1c0,0,0,0-0.1,0.1c0,0,0,0-0.1,0.1c0,0,0,0-0.1,0.1c0,0,0,0-0.1,0.1c0,0,0,0-0.1,0.1
		c0,0,0,0-0.1,0.1c0,0,0,0-0.1,0.1c0,0,0,0,0,0.1c0,0,0,0-0.1,0.1c0,0,0,0,0,0.1c0,0,0,0.1-0.1,0.1c0,0,0,0,0,0.1c0,0,0,0.1-0.1,0.1
		c0,0,0,0,0,0.1c0,0,0,0.1-0.1,0.1c0,0,0,0,0,0.1c0,0,0,0.1-0.1,0.1c0,0,0,0,0,0.1c0,0,0,0.1-0.1,0.1c0,0,0,0,0,0
		c-0.1,0.1-0.2,0.3-0.2,0.4c0,0,0,0,0,0c0,0,0,0.1-0.1,0.1c0,0,0,0,0,0c0,0,0,0.1-0.1,0.1c0,0,0,0,0,0c0,0,0,0.1,0,0.1c0,0,0,0,0,0
		c0,0,0,0.1,0,0.1c0,0,0,0,0,0c0,0,0,0.1,0,0.1c0,0,0,0,0,0c0,0,0,0.1,0,0.1c0,0,0,0,0,0c0,0,0,0.1,0,0.1c0,0,0,0,0,0
		c0,0,0,0.1,0,0.1c0,0,0,0,0,0c0,0,0,0.1,0,0.1c0,0,0,0,0,0c0,0,0,0.1,0,0.1c0,0,0,0,0,0c0,0,0,0.1,0,0.1c0,0,0,0,0,0
		c0,0,0,0.1,0,0.1c0,0,0,0,0,0c-0.1,0.4-0.1,0.8-0.1,1.1c0,0,0,0,0,0c0,0.1,0,0.1,0,0.1c0,0,0,0,0,0c0,0,0,0.1,0,0.1v0
		c0,0,0,0.1,0,0.1c0,0,0,0,0,0c0,0,0,0.1,0,0.1c0,0,0,0,0,0c0,0,0,0.1,0,0.1c0,0,0,0,0,0c0,0,0,0.1,0,0.1c0,0,0,0,0,0
		c0,0,0,0.1,0,0.1c0,0,0,0,0,0c0,0,0,0.1,0,0.1c0,0,0,0,0,0c0.1,0.4,0.2,0.8,0.3,1.2c0.2,0.7,0.6,1.3,1,1.9c-0.1,0.3-0.1,0.7,0,1.1
		c0.3,0.9,1.3,1.4,2.3,1.1c0,0,0.1,0,0.1-0.1c0.1,0.1,0.2,0.1,0.3,0.2c1.1,1.2,2.6,1.9,4.2,1.9c0,0,0,0-0.1,0l0.5,1.6l-1.8,1.6l0,0
		c-1.3,0.5-2.4,1.3-3.2,2.4c0,0,0,0.1-0.1,0.1c0,0,0,0,0,0.1c0,0,0,0.1-0.1,0.1c0,0,0,0,0,0.1c0,0,0,0.1-0.1,0.1c0,0,0,0,0,0.1
		c0,0,0,0.1-0.1,0.1c0,0,0,0,0,0.1c0,0,0,0.1-0.1,0.1c0,0,0,0,0,0.1c0,0,0,0.1-0.1,0.1c0,0,0,0,0,0.1c0,0,0,0.1-0.1,0.1c0,0,0,0,0,0
		c0,0,0,0.1,0,0.1c0,0,0,0,0,0c0,0,0,0.1-0.1,0.1c0,0,0,0,0,0.1c0,0,0,0.1,0,0.1c0,0,0,0,0,0.1c0,0,0,0.1,0,0.1c0,0,0,0,0,0.1
		c0,0,0,0.1,0,0.1c0,0,0,0,0,0.1c0,0,0,0.1,0,0.1c0,0,0,0,0,0.1c0,0,0,0.1,0,0.1c0,0,0,0,0,0.1c0,0,0,0.1,0,0.1c0,0,0,0,0,0.1
		c0,0,0,0.1,0,0.1c0,0,0,0,0,0.1c0,0,0,0.1,0,0.1c0,0,0,0,0,0c0,0,0,0.1,0,0.1c0,0,0,0,0,0c0,0,0,0.1,0,0.1c0,0,0,0,0,0.1
		c0,0,0,0.1,0,0.1c0,0,0,0,0,0c0,0,0,0.1,0,0.1c0,0,0,0,0,0c0,0,0,0.1,0,0.1c0,0,0,0,0,0c0,0,0,0.1,0,0.1c0,0,0,0,0,0
		c0,0,0,0.1,0,0.1c0,0,0,0,0,0.1c0,0,0,0.1,0,0.1c0,0,0,0,0,0c0,0,0,0.1,0,0.1c0,0,0,0,0,0c0,0,0,0.1,0,0.1v0c0,0,0,0.1,0,0.1
		c0,0,0,0,0,0c0,0.1,0,0.1,0,0.2c0,0,0,0,0,0c0,0.1,0,0.1,0,0.2v0c0,0.1,0,0.1,0,0.2c0,0,0,0,0,0c0,0.1,0,0.1,0,0.2c0,0,0,0,0,0
		c0,0,0,0.1,0,0.1c0,0,0,0,0,0c0,0.1,0,0.1,0,0.2c0,0,0,0,0,0c0,0.1,0,0.1,0,0.2c-2.7,0.2-4.9,2.4-5.1,5.1c0,0,0,0,0,0
		c0,0,0,0.1,0,0.1c0,0,0,0,0,0.1c0,0,0,0,0,0.1c0,0,0,0.1,0,0.1v0c0,0.1,0,0.2,0,0.3c0,0.1,0,0.2,0,0.3c0,0,0,0.1,0,0.1
		c0.3,2.7,2.6,4.8,5.4,4.8h0.5c2,7.2,5.8,13.8,10.9,19.3l9.3,10l2.7,12.7c0.1,0.3,0.4,0.5,0.7,0.5h9.9c0.3,0,0.6-0.2,0.7-0.5
		l2.7-12.7l9.3-10c5.1-5.5,8.9-12.1,10.9-19.3h0.5c2.8,0,5.1-2.1,5.4-4.8c0,0,0-0.1,0-0.1c0-0.1,0-0.2,0-0.3c0-0.1,0-0.2,0-0.3
		C480.3,207.9,480.3,207.9,480.3,207.8L480.3,207.8z M434.8,202.5l2.3-0.8c0.7-0.2,1.1-0.9,1.1-1.5c0,0,0-0.1,0-0.1
		c0-0.1,0-0.1,0-0.2c0-0.1,0-0.1,0-0.2l-1-3.2c0,0,0,0,0,0h17.2c0,0,0,0,0,0l-1,3.2c0,0.1,0,0.1,0,0.2c0,0.1,0,0.1,0,0.2
		c0,0,0,0.1,0,0.1c0,0.4,0.1,0.8,0.4,1.1c0,0,0.1,0.1,0.1,0.1c0.2,0.2,0.4,0.3,0.6,0.4l2.3,0.8L434.8,202.5L434.8,202.5z
		 M434.8,202.5"/>
	<path class="st2" d="M455,192.1h-18.6c-0.9,0-1.6-0.7-1.6-1.6v-3.3c0-4,3.2-7.3,7.3-7.3h7.3c4,0,7.3,3.2,7.3,7.3v3.3
		C456.6,191.4,455.8,192.1,455,192.1L455,192.1z M455,192.1"/>
	<path class="st11" d="M453.4,181.2v10.9h1.6c0.9,0,1.6-0.7,1.6-1.6v-3.3C456.6,184.7,455.3,182.5,453.4,181.2L453.4,181.2z
		 M453.4,181.2"/>
	<path class="st12" d="M449.6,179.9l-2.2-0.9v0.9l-1.8,2.7l-1.8-2.7V179l-2.2,0.9l4,10.7L449.6,179.9z M449.6,179.9"/>
	<path class="st13" d="M441.7,179.9l1.7,4.5c0.1,0.2,0.3,0.2,0.4,0.1l1.9-1.9l-1.8-2.7V179L441.7,179.9z M441.7,179.9"/>
	<path class="st13" d="M449.6,179.9l-1.7,4.5c-0.1,0.2-0.3,0.2-0.4,0.1l-1.9-1.9l1.8-2.7V179L449.6,179.9z M449.6,179.9"/>
	<path class="st14" d="M445.7,177.6c-0.6,0-1.2-0.1-1.8-0.3v2.7l1.8,2.7l1.8-2.7v-2.7C446.9,177.5,446.3,177.6,445.7,177.6
		L445.7,177.6z M445.7,177.6"/>
	<path class="st15" d="M447.1,184.2l-1.1,1.1c-0.2,0.2-0.5,0.2-0.8,0l-1.1-1.1l1.5-1.5L447.1,184.2z M447.1,184.2"/>
	<path class="st11" d="M446,185.2c-0.2,0.2-0.5,0.2-0.8,0l-0.4-0.4l-0.3,2.9l1.1,2.9l1.1-2.9l-0.3-2.9L446,185.2z M446,185.2"/>
	<path class="st16" d="M440.5,184.7l0.9-0.8c0.2-0.2,0.1-0.4-0.1-0.5l-1.1-0.1c-0.2,0-0.3-0.2-0.2-0.4l1-2.9c0.2,0,0.5-0.1,0.7-0.1
		l3.9,10.7l-5.2-5.6C440.4,184.9,440.4,184.8,440.5,184.7L440.5,184.7z M440.5,184.7"/>
	<path class="st16" d="M450.8,184.7l-0.9-0.8c-0.2-0.2-0.1-0.4,0.1-0.5l1.1-0.1c0.2,0,0.3-0.2,0.2-0.4l-1-2.9
		c-0.2,0-0.5-0.1-0.7-0.1l-3.9,10.7l5.2-5.6C451,184.9,451,184.8,450.8,184.7L450.8,184.7z M450.8,184.7"/>
	<path class="st16" d="M452.1,189.9h-3.6c-0.2,0-0.4,0.2-0.4,0.4c0,0.2,0.2,0.4,0.4,0.4h3.6c0.2,0,0.4-0.2,0.4-0.4
		C452.5,190.1,452.3,189.9,452.1,189.9L452.1,189.9z M452.1,189.9"/>
	<path class="st11" d="M438,192.1v-10.9c-1.9,1.3-3.2,3.5-3.2,6v3.3c0,0.9,0.7,1.6,1.6,1.6L438,192.1L438,192.1z M438,192.1"/>
	<path class="st2" d="M450.8,163.8c2.8,2.9,2.8,7.5,0,10.3c-2.9,2.9-7.5,2.9-10.3,0c-2.9-2.9-2.9-7.5,0-10.3
		C443.3,160.9,448,160.9,450.8,163.8L450.8,163.8z M450.8,163.8"/>
	<path class="st13" d="M445.7,177.6c-3.1,0-5.5-2.5-5.5-5.5v-2.9c0-3.1,2.5-5.5,5.5-5.5s5.5,2.5,5.5,5.5v2.9
		C451.2,175.1,448.7,177.6,445.7,177.6L445.7,177.6z M445.7,177.6"/>
	<path class="st12" d="M445.7,177.6c-0.6,0-1.2-0.1-1.8-0.3v1.1c0.6,0.2,1.1,0.3,1.8,0.3c0.6,0,1.2-0.1,1.8-0.3v-1.1
		C446.9,177.5,446.3,177.6,445.7,177.6L445.7,177.6z M445.7,177.6"/>
	<path class="st13" d="M440.1,172v-1.7c-1,0-1.8,0.8-1.8,1.8c0,1,0.8,1.8,1.8,1.8c0.1,0,0.2,0,0.3,0
		C440.2,173.3,440.1,172.7,440.1,172L440.1,172z M440.1,172"/>
	<path class="st13" d="M451.2,170.3v1.7c0,0.6-0.1,1.2-0.3,1.8c0.1,0,0.2,0,0.3,0c1,0,1.8-0.8,1.8-1.8S452.2,170.3,451.2,170.3
		L451.2,170.3z M451.2,170.3"/>
	<path class="st14" d="M445.7,176.8c-3.1,0-5.5-2.5-5.5-5.5v0.8c0,3.1,2.5,5.5,5.5,5.5s5.5-2.5,5.5-5.5v-0.8
		C451.2,174.3,448.7,176.8,445.7,176.8L445.7,176.8z M445.7,176.8"/>
	<path class="st14" d="M440.1,169.1v1.1c2.2-1.3,3.6-3.6,3.6-6.3C441.6,164.7,440.1,166.8,440.1,169.1L440.1,169.1z M440.1,169.1"/>
	<path class="st14" d="M448.6,170.4c0.9,0,1.8-0.2,2.6-0.5v-0.8c0-3.1-2.5-5.5-5.5-5.5c-1.6,0-3,0.7-4,1.8
		C442.6,168.3,445.3,170.4,448.6,170.4L448.6,170.4z M448.6,170.4"/>
	<path class="st15" d="M441.3,163.1c0.4,3.7,3.5,6.6,7.3,6.6c1.6,0,3.1-0.5,4.4-1.4c-0.4-3.7-3.5-6.6-7.3-6.6
		C444,161.6,442.5,162.2,441.3,163.1L441.3,163.1z M441.3,163.1"/>
	<path class="st2" d="M438.4,168.9c0,0.3,0,0.7,0.1,1c3.1-0.9,5.3-3.7,5.3-7c0-0.3,0-0.7-0.1-1C440.6,162.7,438.4,165.6,438.4,168.9
		L438.4,168.9z M438.4,168.9"/>
	<path class="st15" d="M444,171.3c0,0.4-0.3,0.7-0.7,0.7c-0.4,0-0.7-0.3-0.7-0.7c0-0.4,0.3-0.7,0.7-0.7
		C443.7,170.6,444,170.9,444,171.3L444,171.3z M444,171.3"/>
	<path class="st15" d="M449.2,171.3c0,0.4-0.3,0.7-0.7,0.7c-0.4,0-0.7-0.3-0.7-0.7c0-0.4,0.3-0.7,0.7-0.7
		C448.9,170.6,449.2,170.9,449.2,171.3L449.2,171.3z M449.2,171.3"/>
	<path class="st14" d="M440.1,172v-1c-0.6,0-1,0.5-1,1c0,0.6,0.5,1,1,1c0,0,0.1,0,0.1,0C440.2,172.7,440.1,172.4,440.1,172
		L440.1,172z M440.1,172"/>
	<path class="st14" d="M451.2,172v-1c0.6,0,1,0.5,1,1c0,0.6-0.5,1-1,1c0,0-0.1,0-0.1,0C451.2,172.7,451.2,172.4,451.2,172L451.2,172
		z M451.2,172"/>
	<path class="st2" d="M471.9,203.2l-17.7-5.8c-0.8-0.3-1.3-1.2-1-2l1-3.2c1.3-3.8,5.4-5.9,9.2-4.6l6.9,2.3c3.8,1.3,5.9,5.4,4.6,9.2
		l-1,3.2C473.6,203,472.7,203.5,471.9,203.2L471.9,203.2z M471.9,203.2"/>
	<path class="st11" d="M473.8,192.3l-3.4,10.4l1.5,0.5c0.8,0.3,1.7-0.2,2-1l1-3.2C475.7,196.6,475.2,194.1,473.8,192.3L473.8,192.3z
		 M473.8,192.3"/>
	<path class="st12" d="M470.6,189.9l-1.8-1.6l-0.3,0.9l-2.5,2l-0.8-3.1l0.3-0.9l-2.4,0.2l0.4,11.4L470.6,189.9z M470.6,189.9"/>
	<path class="st13" d="M463.1,187.5l0.2,4.8c0,0.2,0.2,0.3,0.4,0.2l2.3-1.2l-0.8-3.1l0.3-0.9L463.1,187.5z M463.1,187.5"/>
	<path class="st13" d="M470.6,189.9l-3,3.7c-0.1,0.2-0.4,0.1-0.4,0l-1.2-2.3l2.5-2l0.3-0.9L470.6,189.9z M470.6,189.9"/>
	<path class="st14" d="M467.6,186.4c-0.6-0.2-1.1-0.5-1.6-0.8l-0.6,1.8l-0.2,0.7l0.8,3.1l2.5-2l0.1-0.3l0.8-2.3
		C468.8,186.7,468.2,186.6,467.6,186.4L467.6,186.4z M467.6,186.4"/>
	<path class="st15" d="M466.9,193.2l-1.4,0.7c-0.3,0.1-0.6,0-0.7-0.2l-0.7-1.4l1.9-0.9L466.9,193.2z M466.9,193.2"/>
	<path class="st11" d="M465.5,193.9c-0.3,0.1-0.6,0-0.7-0.2l-0.2-0.5l-1.2,2.6l0.1,3.1l1.9-2.4l0.6-2.8L465.5,193.9z M465.5,193.9"
		/>
	<path class="st16" d="M460.5,191.5l1.1-0.5c0.2-0.1,0.2-0.4,0-0.5l-1-0.5c-0.2-0.1-0.2-0.3-0.1-0.4l1.9-2.4c0.2,0,0.5,0.1,0.7,0.2
		l0.4,11.4l-3.2-7C460.3,191.8,460.3,191.6,460.5,191.5L460.5,191.5z M460.5,191.5"/>
	<path class="st16" d="M470.3,194.8l-0.6-1.1c-0.1-0.2,0.1-0.4,0.3-0.4l1.1,0.2c0.2,0,0.3-0.1,0.3-0.3l-0.1-3.1
		c-0.2-0.1-0.4-0.2-0.7-0.3l-7.1,8.9l6.7-3.7C470.3,195.1,470.4,194.9,470.3,194.8L470.3,194.8z M470.3,194.8"/>
	<path class="st16" d="M469.8,200.2l-3.4-1.1c-0.2-0.1-0.4,0-0.5,0.2c-0.1,0.2,0,0.4,0.2,0.5l3.4,1.1c0.2,0.1,0.4,0,0.5-0.2
		C470.1,200.5,470,200.3,469.8,200.2L469.8,200.2z M469.8,200.2"/>
	<path class="st11" d="M455.7,197.8l3.4-10.4c-2.2,0.6-4.1,2.3-4.9,4.7l-1,3.2c-0.3,0.8,0.2,1.7,1,2L455.7,197.8z M455.7,197.8"/>
	<path class="st2" d="M477.6,178.2c0,4-3.3,7.3-7.3,7.3c-4,0-7.3-3.3-7.3-7.3s3.3-7.3,7.3-7.3C474.4,170.9,477.6,174.2,477.6,178.2
		L477.6,178.2z M477.6,178.2"/>
	<path class="st13" d="M467.6,186.4c-2.9-1-4.5-4.1-3.5-7l0.9-2.7c1-2.9,4.1-4.5,7-3.5c2.9,1,4.5,4.1,3.5,7l-0.9,2.7
		C473.6,185.8,470.5,187.4,467.6,186.4L467.6,186.4z M467.6,186.4"/>
	<path class="st12" d="M467.6,186.4c-0.6-0.2-1.1-0.5-1.6-0.8l-0.3,1c0.5,0.3,1,0.6,1.6,0.8c0.6,0.2,1.2,0.3,1.8,0.3l0.3-1
		C468.8,186.7,468.2,186.6,467.6,186.4L467.6,186.4z M467.6,186.4"/>
	<path class="st13" d="M464.1,179.4l0.5-1.6c-0.9-0.3-1.9,0.2-2.3,1.1c-0.3,0.9,0.2,1.9,1.1,2.3c0.1,0,0.2,0.1,0.3,0.1
		C463.8,180.7,463.9,180,464.1,179.4L464.1,179.4z M464.1,179.4"/>
	<path class="st13" d="M475.1,181.3l-0.5,1.6c-0.2,0.6-0.5,1.1-0.9,1.6c0.1,0,0.2,0.1,0.3,0.1c0.9,0.3,1.9-0.2,2.3-1.1
		C476.6,182.6,476.1,181.6,475.1,181.3L475.1,181.3z M475.1,181.3"/>
	<path class="st14" d="M467.9,185.7c-2.9-1-4.5-4.1-3.5-7l-0.2,0.8c-1,2.9,0.6,6,3.5,7c2.9,1,6-0.6,7-3.5l0.2-0.8
		C473.9,185.1,470.8,186.6,467.9,185.7L467.9,185.7z M467.9,185.7"/>
	<path class="st14" d="M465,176.7l-0.3,1c2.4-0.5,4.6-2.3,5.4-4.8C467.8,173,465.7,174.4,465,176.7L465,176.7z M465,176.7"/>
	<path class="st14" d="M472.6,180.6c0.9,0.3,1.8,0.4,2.7,0.4l0.2-0.8c1-2.9-0.6-6-3.5-7c-1.5-0.5-3.1-0.3-4.4,0.4
		C467.6,176.7,469.5,179.6,472.6,180.6L472.6,180.6z M472.6,180.6"/>
	<path class="st15" d="M468,171.3c-0.8,3.6,1.2,7.3,4.8,8.5c1.6,0.5,3.2,0.5,4.6,0c0.8-3.6-1.2-7.3-4.8-8.5
		C471.1,170.8,469.5,170.8,468,171.3L468,171.3z M468,171.3"/>
	<path class="st2" d="M463.4,175.9c-0.1,0.3-0.2,0.6-0.2,1c3.2,0.2,6.2-1.8,7.3-5c0.1-0.3,0.2-0.6,0.2-1
		C467.5,170.8,464.4,172.8,463.4,175.9L463.4,175.9z M463.4,175.9"/>
	<path class="st15" d="M468,180c-0.1,0.4-0.5,0.5-0.8,0.4c-0.4-0.1-0.5-0.5-0.4-0.8c0.1-0.4,0.5-0.5,0.8-0.4
		C467.9,179.2,468.1,179.6,468,180L468,180z M468,180"/>
	<path class="st15" d="M472.9,181.6c-0.1,0.4-0.5,0.5-0.8,0.4c-0.4-0.1-0.5-0.5-0.4-0.8c0.1-0.4,0.5-0.5,0.8-0.4
		C472.8,180.9,473,181.2,472.9,181.6L472.9,181.6z M472.9,181.6"/>
	<path class="st14" d="M464.1,179.4l0.3-0.9c-0.5-0.2-1.1,0.1-1.3,0.7c-0.2,0.5,0.1,1.1,0.7,1.3c0,0,0.1,0,0.1,0
		C463.9,180.1,464,179.8,464.1,179.4L464.1,179.4z M464.1,179.4"/>
	<path class="st14" d="M474.6,182.9l0.3-0.9c0.5,0.2,0.8,0.8,0.7,1.3c-0.2,0.5-0.8,0.8-1.3,0.7c0,0-0.1,0-0.1,0
		C474.3,183.6,474.5,183.3,474.6,182.9L474.6,182.9z M474.6,182.9"/>
	<path class="st2" d="M419.5,203.2l17.7-5.8c0.8-0.3,1.3-1.2,1-2l-1-3.2c-1.3-3.8-5.4-5.9-9.2-4.6l-6.9,2.3
		c-3.8,1.3-5.9,5.4-4.6,9.2l1,3.2C417.7,203,418.6,203.5,419.5,203.2L419.5,203.2z M419.5,203.2"/>
	<path class="st11" d="M417.6,192.3l3.4,10.4l-1.5,0.5c-0.8,0.3-1.7-0.2-2-1l-1-3.2C415.6,196.6,416.1,194.1,417.6,192.3
		L417.6,192.3z M417.6,192.3"/>
	<path class="st12" d="M420.7,189.9l1.8-1.6l0.3,0.9l2.5,2l0.8-3.1l-0.3-0.9l2.4,0.2l-0.4,11.4L420.7,189.9z M420.7,189.9"/>
	<path class="st13" d="M428.2,187.5l-0.2,4.8c0,0.2-0.2,0.3-0.4,0.2l-2.3-1.2l0.8-3.1l-0.3-0.9L428.2,187.5z M428.2,187.5"/>
	<path class="st13" d="M420.7,189.9l3,3.7c0.1,0.2,0.4,0.1,0.4,0l1.2-2.3l-2.5-2l-0.3-0.9L420.7,189.9z M420.7,189.9"/>
	<path class="st14" d="M423.7,186.4c0.6-0.2,1.1-0.5,1.6-0.8l0.6,1.8l0.2,0.7l-0.8,3.1l-2.5-2l-0.1-0.3l-0.8-2.3
		C422.5,186.7,423.1,186.6,423.7,186.4L423.7,186.4z M423.7,186.4"/>
	<path class="st15" d="M424.4,193.2l1.4,0.7c0.3,0.1,0.6,0,0.7-0.2l0.7-1.4l-1.9-0.9L424.4,193.2z M424.4,193.2"/>
	<path class="st11" d="M425.8,193.9c0.3,0.1,0.6,0,0.7-0.2l0.2-0.5l1.2,2.6l-0.1,3.1l-1.9-2.4l-0.6-2.8L425.8,193.9z M425.8,193.9"
		/>
	<path class="st16" d="M430.9,191.5l-1.1-0.5c-0.2-0.1-0.2-0.4,0-0.5l1-0.5c0.2-0.1,0.2-0.3,0.1-0.4l-1.9-2.4
		c-0.2,0-0.5,0.1-0.7,0.2l-0.4,11.4l3.2-7C431.1,191.8,431,191.6,430.9,191.5L430.9,191.5z M430.9,191.5"/>
	<path class="st16" d="M421,194.8l0.6-1.1c0.1-0.2-0.1-0.4-0.3-0.4l-1.1,0.2c-0.2,0-0.3-0.1-0.3-0.3l0.1-3.1
		c0.2-0.1,0.4-0.2,0.7-0.3l7.1,8.9l-6.7-3.7C421,195.1,421,194.9,421,194.8L421,194.8z M421,194.8"/>
	<path class="st16" d="M421.5,200.2l3.4-1.1c0.2-0.1,0.4,0,0.5,0.2c0.1,0.2,0,0.4-0.2,0.5l-3.4,1.1c-0.2,0.1-0.4,0-0.5-0.2
		C421.2,200.5,421.3,200.3,421.5,200.2L421.5,200.2z M421.5,200.2"/>
	<path class="st11" d="M435.6,197.8l-3.4-10.4c2.2,0.6,4.1,2.3,4.9,4.7l1,3.2c0.3,0.8-0.2,1.7-1,2L435.6,197.8z M435.6,197.8"/>
	<path class="st2" d="M428.3,178.2c0,4-3.3,7.3-7.3,7.3c-4,0-7.3-3.3-7.3-7.3s3.3-7.3,7.3-7.3C425,170.9,428.3,174.2,428.3,178.2
		L428.3,178.2z M428.3,178.2"/>
	<path class="st13" d="M423.7,186.4c2.9-1,4.5-4.1,3.5-7l-0.9-2.7c-1-2.9-4.1-4.5-7-3.5c-2.9,1-4.5,4.1-3.5,7l0.9,2.7
		C417.7,185.8,420.8,187.4,423.7,186.4L423.7,186.4z M423.7,186.4"/>
	<path class="st12" d="M423.7,186.4c0.6-0.2,1.1-0.5,1.6-0.8l0.3,1c-0.5,0.3-1,0.6-1.6,0.8c-0.6,0.2-1.2,0.3-1.8,0.3l-0.3-1
		C422.5,186.7,423.1,186.6,423.7,186.4L423.7,186.4z M423.7,186.4"/>
	<path class="st13" d="M427.2,179.4l-0.5-1.6c0.9-0.3,1.9,0.2,2.3,1.1c0.3,0.9-0.2,1.9-1.1,2.3c-0.1,0-0.2,0.1-0.3,0.1
		C427.5,180.7,427.4,180,427.2,179.4L427.2,179.4z M427.2,179.4"/>
	<path class="st13" d="M416.2,181.3l0.5,1.6c0.2,0.6,0.5,1.1,0.9,1.6c-0.1,0-0.2,0.1-0.3,0.1c-0.9,0.3-1.9-0.2-2.3-1.1
		C414.7,182.6,415.2,181.6,416.2,181.3L416.2,181.3z M416.2,181.3"/>
	<path class="st14" d="M423.5,185.7c2.9-1,4.5-4.1,3.5-7l0.2,0.8c1,2.9-0.6,6-3.5,7c-2.9,1-6-0.6-7-3.5l-0.2-0.8
		C417.4,185.1,420.6,186.6,423.5,185.7L423.5,185.7z M423.5,185.7"/>
	<path class="st14" d="M426.3,176.7l0.3,1c-2.4-0.5-4.6-2.3-5.4-4.8C423.5,173,425.6,174.4,426.3,176.7L426.3,176.7z M426.3,176.7"
		/>
	<path class="st14" d="M418.7,180.6c-0.9,0.3-1.8,0.4-2.7,0.4l-0.2-0.8c-1-2.9,0.6-6,3.5-7c1.5-0.5,3.1-0.3,4.4,0.4
		C423.8,176.7,421.8,179.6,418.7,180.6L418.7,180.6z M418.7,180.6"/>
	<path class="st15" d="M423.3,171.3c0.8,3.6-1.2,7.3-4.8,8.5c-1.6,0.5-3.2,0.5-4.6,0c-0.8-3.6,1.2-7.3,4.8-8.5
		C420.3,170.8,421.9,170.8,423.3,171.3L423.3,171.3z M423.3,171.3"/>
	<path class="st2" d="M427.9,175.9c0.1,0.3,0.2,0.6,0.2,1c-3.2,0.2-6.2-1.8-7.3-5c-0.1-0.3-0.2-0.6-0.2-1
		C423.9,170.8,426.9,172.8,427.9,175.9L427.9,175.9z M427.9,175.9"/>
	<path class="st15" d="M423.3,180c0.1,0.4,0.5,0.5,0.8,0.4c0.4-0.1,0.5-0.5,0.4-0.8c-0.1-0.4-0.5-0.5-0.8-0.4
		C423.4,179.2,423.2,179.6,423.3,180L423.3,180z M423.3,180"/>
	<path class="st15" d="M418.4,181.6c0.1,0.4,0.5,0.5,0.8,0.4c0.4-0.1,0.5-0.5,0.4-0.8c-0.1-0.4-0.5-0.5-0.8-0.4
		C418.5,180.9,418.3,181.2,418.4,181.6L418.4,181.6z M418.4,181.6"/>
	<path class="st14" d="M427.2,179.4l-0.3-0.9c0.5-0.2,1.1,0.1,1.3,0.7c0.2,0.5-0.1,1.1-0.7,1.3c0,0-0.1,0-0.1,0
		C427.4,180.1,427.3,179.8,427.2,179.4L427.2,179.4z M427.2,179.4"/>
	<path class="st14" d="M416.7,182.9l-0.3-0.9c-0.5,0.2-0.8,0.8-0.7,1.3c0.2,0.5,0.8,0.8,1.3,0.7c0,0,0.1,0,0.1,0
		C417,183.6,416.8,183.3,416.7,182.9L416.7,182.9z M416.7,182.9"/>
	<path class="st17" d="M474.8,209.1h-58.2c-3,0-5.5-2.5-5.5-5.5c0-3,2.5-5.5,5.5-5.5h58.2c3,0,5.5,2.5,5.5,5.5
		C480.3,206.6,477.8,209.1,474.8,209.1L474.8,209.1z M474.8,209.1"/>
	<path class="st0" d="M474.8,205.6h-58.2c-2.4,0-4.5-1.6-5.2-3.8c-0.2,0.5-0.3,1.1-0.3,1.7c0,3,2.5,5.5,5.5,5.5h58.2
		c3,0,5.5-2.5,5.5-5.5c0-0.6-0.1-1.2-0.3-1.7C479.3,204.1,477.2,205.6,474.8,205.6L474.8,205.6z M474.8,205.6"/>
	<path class="st0" d="M474.3,209.1h-57.2c2,7.2,5.8,13.8,10.9,19.3l9.3,10l2.7,12.7c0.1,0.3,0.4,0.5,0.7,0.5h9.9
		c0.3,0,0.6-0.2,0.7-0.5l2.7-12.7l9.3-10C468.5,222.9,472.2,216.3,474.3,209.1L474.3,209.1z M474.3,209.1"/>
	<path class="st17" d="M466.4,209.1h-41.6c1.5,7.2,4.2,13.8,7.9,19.3l6.8,10l2.1,13.2h8l2.1-13.2l6.8-10
		C462.2,222.9,465,216.3,466.4,209.1L466.4,209.1z M466.4,209.1"/>
	<path class="st17" d="M439.3,247.4l0.8,3.6c0.1,0.3,0.4,0.5,0.7,0.5h9.9c0.3,0,0.6-0.2,0.7-0.5l0.8-3.6H439.3z M439.3,247.4"/>
</g>
</svg>
