<?xml version="1.0" encoding="iso-8859-1"?>
<!-- Generator: Adobe Illustrator 19.0.0, SVG Export Plug-In . SVG Version: 6.00 Build 0)  -->
<svg version="1.1" id="Capa_1" xmlns="http://www.w3.org/2000/svg" xmlns:xlink="http://www.w3.org/1999/xlink" x="0px" y="0px"
	 viewBox="-49 141 512 512" style="enable-background:new -49 141 512 512;" xml:space="preserve">
<circle style="fill:#FFD246;" cx="207" cy="397" r="248.123"/>
<circle style="fill:#FFFFFF;" cx="207" cy="397" r="172.505"/>
<g>
	<path id="SVGCleanerId_0" style="fill:#183651;" d="M207,577.382c-99.249,0-180.382-81.132-180.382-180.382
		S107.751,216.618,207,216.618S387.382,297.751,387.382,397S306.249,577.382,207,577.382z M207,232.372
		c-90.585,0-164.628,74.043-164.628,164.628S116.415,561.628,207,561.628S371.628,487.585,371.628,397S297.585,232.372,207,232.372z
		"/>
</g>
<circle style="fill:#FFFFFF;" cx="207" cy="397" r="172.505"/>
<g>
	<path id="SVGCleanerId_0_1_" style="fill:#183651;" d="M207,577.382c-99.249,0-180.382-81.132-180.382-180.382
		S107.751,216.618,207,216.618S387.382,297.751,387.382,397S306.249,577.382,207,577.382z M207,232.372
		c-90.585,0-164.628,74.043-164.628,164.628S116.415,561.628,207,561.628S371.628,487.585,371.628,397S297.585,232.372,207,232.372z
		"/>
</g>
<path style="fill:#FFFFFF;" d="M401.56,228.434l-25.206,16.542l74.043,31.508v-81.132l-25.206,16.542
	c-40.172-57.502-116.578-76.406-178.018-44.898c-7.877,3.938-9.452,13.391-4.726,20.48l0,0c3.938,6.302,11.815,7.877,18.905,4.726
	C309.4,168.569,370.052,183.535,401.56,228.434z"/>
<path style="fill:#3C277A;" d="M448.034,284.36l-74.043-31.508c-2.363-0.788-4.726-3.938-4.726-6.302
	c0-3.151,0.788-5.514,3.151-7.089l18.117-11.815c-19.692-23.631-48.837-37.809-79.557-37.809c-15.754,0-32.295,3.938-46.474,11.028
	c-10.24,4.726-22.843,1.575-28.357-7.089c-7.089-11.028-3.151-25.994,7.877-31.508c20.48-10.24,43.323-15.754,66.954-15.754
	c45.686,0,89.009,21.268,117.366,57.502l18.905-12.603c2.363-1.575,5.514-1.575,7.877,0c2.363,1.575,3.938,3.938,3.938,7.089v79.557
	C460.637,281.997,453.548,286.723,448.034,284.36z M392.895,244.188l49.625,21.268v-54.351l-12.603,8.665
	c-3.938,2.363-8.665,1.575-11.028-2.363c-24.418-35.446-65.378-56.714-108.702-56.714c-20.48,0-40.96,4.726-59.865,14.178
	c-3.151,1.575-3.938,6.302-2.363,9.452c1.575,2.363,5.514,3.938,8.665,2.363c16.542-8.665,34.658-12.603,53.563-12.603
	c38.597,0,75.618,18.905,97.674,50.412c1.575,1.575,1.575,3.938,1.575,6.302c-0.788,2.363-1.575,3.938-3.151,4.726L392.895,244.188z
	"/>
<path style="fill:#FFFFFF;" d="M152.649,601.012c-48.837,24.418-108.702,10.24-140.997-35.446l25.206-16.542l-74.043-31.508v81.132
	l25.206-16.542c40.172,57.502,116.578,76.406,178.018,44.898c7.089-3.938,9.452-13.391,4.726-20.48
	C167.615,599.437,159.738,597.074,152.649,601.012z"/>
<path style="fill:#3C277A;" d="M103.025,649.062L103.025,649.062c-45.686,0-89.009-21.268-117.366-57.502l-18.905,12.603
	c-2.363,1.575-5.514,1.575-7.877,0s-3.938-3.938-3.938-7.089v-81.132c0-2.363,1.575-4.726,3.151-6.302
	c1.575-1.575,4.726-1.575,7.089-0.788l74.043,31.508c2.363,0.788,4.726,3.938,4.726,6.302c0,3.151-0.788,5.514-3.151,7.089
	L22.68,565.566c19.692,23.631,48.837,37.809,79.557,37.809c15.754,0,32.295-3.938,46.474-11.028
	c10.24-4.726,22.843-1.575,28.357,7.089c7.089,11.028,3.151,25.994-7.877,31.508C149.498,643.548,126.655,649.062,103.025,649.062z
	 M-11.978,573.443c2.363,0,4.726,1.575,6.302,3.151c24.418,35.446,65.378,56.714,108.702,56.714c20.48,0,40.96-4.726,59.865-14.178
	c3.151-1.575,3.938-6.302,2.363-9.452c-1.575-2.363-5.514-3.938-8.665-2.363c-16.542,8.665-34.658,12.603-53.563,12.603l0,0
	c-38.597,0-75.618-18.905-97.674-50.412c-1.575-1.575-1.575-3.938-1.575-6.302c0.788-1.575,2.363-3.151,3.938-4.726l12.603-8.665
	l-49.625-21.268v54.351l13.391-8.665C-15.129,573.443-13.554,573.443-11.978,573.443z"/>
<path style="fill:#FFFFFF;" d="M415.738,432.446L415.738,432.446c-6.302,3.938-7.877,11.815-4.726,18.905
	c24.418,48.837,10.24,108.702-35.446,140.997l-16.542-25.206l-31.508,74.043h81.132l-16.542-25.206
	c57.502-40.172,76.406-116.578,44.898-178.018C432.28,430.083,422.04,427.72,415.738,432.446z"/>
<path style="fill:#3C277A;" d="M326.729,649.062c-2.363,0-4.726-1.575-6.302-3.151c-1.575-2.363-1.575-4.726-0.788-7.089
	l31.508-74.043c0.788-2.363,3.938-4.726,6.302-4.726c3.151,0,5.514,0.788,7.089,3.151l11.815,18.117
	c37.022-29.932,48.049-82.708,26.782-126.031c-5.514-10.24-1.575-22.843,7.089-29.145c11.028-7.089,25.994-3.938,31.508,7.877
	c32.295,63.015,14.178,140.997-40.96,183.532l12.603,18.905c1.575,2.363,1.575,5.514,0,7.877c-1.575,2.363-3.938,3.938-7.089,3.938
	L326.729,649.062z M359.812,583.683l-21.268,49.625h54.351l-8.665-13.391c-2.363-3.938-1.575-8.665,2.363-11.028
	c54.351-37.809,72.468-109.489,42.535-168.566c-1.575-3.151-6.302-3.938-9.452-2.363c-3.151,1.575-3.938,5.514-2.363,8.665
	c26.782,51.988,10.24,117.366-37.809,151.237c-1.575,1.575-3.938,1.575-6.302,1.575c-2.363-0.788-3.938-1.575-4.726-3.151
	L359.812,583.683z"/>
<path style="fill:#FFFFFF;" d="M-1.738,361.554c6.302-3.938,7.877-11.815,4.726-18.905c-24.418-48.837-10.24-108.702,35.446-140.997
	l16.542,25.206l31.508-74.043l-80.345,0l16.542,25.206C-34.822,218.194-53.726,294.6-22.218,356.828
	C-18.28,363.917-8.828,366.28-1.738,361.554z"/>
<path style="fill:#3C277A;" d="M-9.615,371.794L-9.615,371.794c-8.665,0-15.754-4.726-19.692-11.815
	c-32.295-63.015-14.178-140.997,40.96-183.532l-11.815-18.905c-1.575-3.151-2.363-5.514-0.788-8.665
	c1.575-2.363,3.938-3.938,7.089-3.938h81.132c2.363,0,4.726,1.575,6.302,3.151c1.575,2.363,1.575,4.726,0.788,7.089l-31.508,74.043
	c-0.788,2.363-3.938,4.726-6.302,4.726c-3.151,0-5.514-0.788-7.089-3.151L37.646,212.68
	c-37.022,29.932-48.049,82.708-26.782,126.031c5.514,10.24,1.575,22.843-7.089,29.145C-0.951,371.006-4.889,371.794-9.615,371.794z
	 M21.105,160.692l8.665,13.391c2.363,3.938,1.575,8.665-2.363,11.028C-26.945,222.92-45.062,294.6-15.129,353.677
	c1.575,3.151,6.302,3.938,9.452,2.363c3.151-1.575,3.938-5.514,2.363-8.665c-26.782-51.988-10.24-117.366,37.809-151.237
	c1.575-1.575,3.938-1.575,6.302-1.575c1.575,0,3.151,1.575,4.726,3.151l7.877,12.603l21.268-49.625H21.105z"/>
<circle style="fill:#CFD0D1;" cx="207" cy="319.018" r="60.652"/>
<path style="fill:#0093DD;" d="M357.449,481.283c-29.145,52.775-85.858,88.222-150.449,88.222S85.695,534.058,56.551,481.283
	c18.905-42.535,54.351-74.831,98.462-89.797L207,471.831l52.775-80.345C303.098,405.665,339.332,438.748,357.449,481.283z"/>
<g>
	<path id="SVGCleanerId_0_2_" style="fill:#3C277A;" d="M207,577.382c-99.249,0-180.382-81.132-180.382-180.382
		S107.751,216.618,207,216.618S387.382,297.751,387.382,397S306.249,577.382,207,577.382z M207,232.372
		c-90.585,0-164.628,74.043-164.628,164.628S116.415,561.628,207,561.628S371.628,487.585,371.628,397S297.585,232.372,207,232.372z
		"/>
</g>
<g>
	
		<rect x="10.05" y="487.518" transform="matrix(-0.8853 0.465 -0.465 -0.8853 264.5244 927.121)" style="fill:#3C277A;" width="15.754" height="17.329"/>
	
		<rect x="388.2" y="289.039" transform="matrix(-0.8853 0.465 -0.465 -0.8853 885.1611 377.0848)" style="fill:#3C277A;" width="15.754" height="17.329"/>
	
		<rect x="297.572" y="578.186" transform="matrix(-0.8854 0.4649 -0.4649 -0.8854 849.8212 962.5811)" style="fill:#3C277A;" width="17.33" height="15.754"/>
	
		<rect x="99.102" y="200.001" transform="matrix(-0.8854 0.4649 -0.4649 -0.8854 299.8209 341.828)" style="fill:#3C277A;" width="17.33" height="15.754"/>
	
		<rect x="-4.911" y="452.176" transform="matrix(-0.9542 0.2992 -0.2992 -0.9542 143.6784 899.6838)" style="fill:#3C277A;" width="15.754" height="17.329"/>
	
		<rect x="403.138" y="324.462" transform="matrix(-0.9542 0.2991 -0.2991 -0.9542 902.8535 528.065)" style="fill:#3C277A;" width="15.754" height="17.329"/>
	
		<rect x="262.163" y="593.119" transform="matrix(-0.9542 0.299 -0.299 -0.9542 708.9713 1093.5132)" style="fill:#3C277A;" width="17.328" height="15.753"/>
	
		<rect x="134.476" y="185.062" transform="matrix(-0.9542 0.2993 -0.2993 -0.9542 337.4645 334.1936)" style="fill:#3C277A;" width="17.33" height="15.754"/>
	
		<rect x="-12.717" y="418.293" transform="matrix(-0.9904 0.1381 -0.1381 -0.9904 49.3305 850.4917)" style="fill:#3C277A;" width="15.754" height="17.329"/>
	
		<rect x="410.3" y="359.241" transform="matrix(-0.9904 0.1384 -0.1384 -0.9904 883.2477 674.3968)" style="fill:#3C277A;" width="15.754" height="17.33"/>
	
		<rect x="228.312" y="600.942" transform="matrix(-0.9904 0.1382 -0.1382 -0.9904 555.8181 1179.0459)" style="fill:#3C277A;" width="17.329" height="15.754"/>
	
		<rect x="169.139" y="177.203" transform="matrix(-0.9904 0.1382 -0.1382 -0.9904 379.4794 343.8112)" style="fill:#3C277A;" width="17.329" height="15.754"/>
</g>
</svg>
