<?xml version="1.0" encoding="iso-8859-1"?>
<!-- Generator: Adobe Illustrator 19.0.0, SVG Export Plug-In . SVG Version: 6.00 Build 0)  -->
<svg version="1.1" id="Layer_1" xmlns="http://www.w3.org/2000/svg" xmlns:xlink="http://www.w3.org/1999/xlink" x="0px" y="0px"
	 viewBox="0 0 960 560" style="enable-background:new 0 0 960 560;" xml:space="preserve">
<g>
	<path style="fill:#FFD246;" d="M591,292c-41.398,0-75,33.602-75,75s33.602,75,75,75s75-33.602,75-75S632.398,292,591,292L591,292z
		 M591,292"/>
	<path style="fill:#0093DD;" d="M498,400v42H294v-42.059c0-23.222,18.781-42,42-42V358l24-0.059L378,370l18-6.059L414,370l18-12.059
		L456,358C479.219,358,498,376.781,498,400L498,400z M498,400"/>
	<path style="fill:#4A89DC;" d="M456,358l-24-0.059l-0.066,0.047L437.98,358c23.223,0,42,18.781,42,42v42H498v-42
		C498,376.781,479.219,358,456,358L456,358z M456,358"/>
	<path style="fill:#5D9CEC;" d="M336,357.953v-0.012c-0.109,0-0.199,0.012-0.305,0.012H336z M336,357.953"/>
	<path style="fill:#0093DD;" d="M516,118v138h18v18l30-18h96V118H516z M516,118"/>
	<path style="fill:#FFD246;" d="M625.859,175.539l-18.898,18.422L611.398,220L588,207.699L564.602,220l4.5-26.039l-18.961-18.422
		l26.16-3.84L588,148l11.699,23.699L625.859,175.539z M625.859,175.539"/>
	<path style="fill:#EAC6BB;" d="M474,232v24c0,30.121-17.039,56.219-42,69.176c-10.801,5.648-23.039,8.824-36,8.824
		s-25.199-3.176-36-8.824c-24.961-12.957-42-39.055-42-69.176v-24l18-18c0,0,27.422,12,60,12s60-12,60-12L474,232z M474,232"/>
	<path style="fill:#D3B1A9;" d="M456,214l-0.02,0.008V256c0,30.121-17.039,56.219-42,69.176c-8.253,4.316-17.367,7.156-26.992,8.273
		c2.965,0.34,5.965,0.551,9.012,0.551c12.961,0,25.199-3.176,36-8.824c24.961-12.957,42-39.063,42-69.176v-24L456,214z M456,214"/>
	<path style="fill:#87BCF4;" d="M432,325.176v32.765L414,370l-18-6.059L378,370l-18-12.059v-32.765
		c10.801,5.648,23.039,8.824,36,8.824S421.199,330.824,432,325.176L432,325.176z M432,325.176"/>
	<path style="fill:#3C277A;" d="M336,214l-18,18v-30c0-39.84,32.219-72,72-72h48v24c19.922,0,36,16.078,36,36v42l-18-18
		c0,0-27.422,12-60,12S336,214,336,214L336,214z M336,214"/>
	<path style="fill:#1F154C;" d="M438,172c9.926,0,18,8.074,18,18v24l18,18v-42c0-19.922-16.078-36-36-36v-24h-18v24
		C420,163.941,428.059,172,438,172L438,172z M438,172"/>
	<rect x="564" y="349" style="fill:#0093DD;" width="18" height="18"/>
	<rect x="582" y="367" style="fill:#0093DD;" width="18" height="18"/>
	<rect x="618" y="367" style="fill:#0093DD;" width="18" height="18"/>
	<rect x="600" y="349" style="fill:#0093DD;" width="18" height="18"/>
	<rect x="546" y="367" style="fill:#0093DD;" width="18" height="18"/>
	<path style="fill:#87BCF4;" d="M396.18,399.977c-3.317,0-6.032-2.684-6.032-6c0-3.321,2.653-6,5.965-6h0.067c3.312,0,6,2.679,6,6
		C402.18,397.293,399.492,399.977,396.18,399.977L396.18,399.977z M396.18,399.977"/>
	<path style="fill:#87BCF4;" d="M396.18,423.977c-3.317,0-6.032-2.684-6.032-6c0-3.321,2.653-6,5.965-6h0.067c3.312,0,6,2.679,6,6
		C402.18,421.293,399.492,423.977,396.18,423.977L396.18,423.977z M396.18,423.977"/>
</g>
</svg>
