<?xml version="1.0" encoding="iso-8859-1"?>
<!-- Generator: Adobe Illustrator 19.0.0, SVG Export Plug-In . SVG Version: 6.00 Build 0)  -->
<svg version="1.1" id="Capa_1" xmlns="http://www.w3.org/2000/svg" xmlns:xlink="http://www.w3.org/1999/xlink" x="0px" y="0px"
	 viewBox="0 0 512 512" style="enable-background:new 0 0 512 512;" xml:space="preserve">
<path style="fill:#7CC8F0;" d="M232.058,418.766l-40.01,40.007C177.07,473.751,157.156,482,135.974,482s-41.096-8.249-56.074-23.228
	l-26.672-26.669C38.25,417.124,30,397.209,30,376.027s8.249-41.097,23.228-56.075l106.689-106.689
	c14.979-14.979,34.893-23.227,56.074-23.227c21.183,0,41.098,8.249,56.075,23.227l13.332,13.334
	c5.858,5.858,15.354,5.86,21.214,0.002c5.857-5.857,5.858-15.355,0.001-21.213l-13.333-13.335
	c-20.645-20.645-48.094-32.015-77.289-32.015s-56.643,11.37-77.287,32.015L32.015,298.739C11.371,319.384,0,346.832,0,376.027
	s11.37,56.644,32.015,77.289l26.672,26.669C79.331,500.63,106.779,512,135.974,512s56.644-11.37,77.287-32.014l40.01-40.006
	c5.857-5.858,5.858-15.355,0-21.214C247.414,412.909,237.917,412.91,232.058,418.766z"/>
<path style="fill:#4BB9EC;" d="M479.986,58.688l-26.67-26.673C432.669,11.369,405.22,0,376.025,0s-56.643,11.37-77.285,32.015
	l-40.01,40.01c-5.857,5.857-5.857,15.355,0,21.213c5.857,5.857,15.355,5.857,21.213,0l40.011-40.01
	C334.929,38.249,354.843,30,376.025,30c21.184,0,41.098,8.249,56.076,23.228L458.773,79.9C473.751,94.879,482,114.793,482,135.975
	s-8.248,41.097-23.227,56.075l-106.69,106.689c-14.978,14.979-34.893,23.228-56.074,23.228c-21.183,0-41.098-8.249-56.076-23.228
	l-13.336-13.336c-5.857-5.857-15.355-5.857-21.213,0c-5.857,5.857-5.857,15.355,0,21.213l13.336,13.336
	c20.645,20.645,48.093,32.015,77.289,32.015c29.195,0,56.643-11.37,77.287-32.015l106.69-106.689
	C500.63,192.618,512,165.17,512,135.975S500.63,79.332,479.986,58.688z"/>
<g>
</g>
<g>
</g>
<g>
</g>
<g>
</g>
<g>
</g>
<g>
</g>
<g>
</g>
<g>
</g>
<g>
</g>
<g>
</g>
<g>
</g>
<g>
</g>
<g>
</g>
<g>
</g>
<g>
</g>
</svg>
