<svg height="496pt" viewBox="0 0 496 496" width="496pt" xmlns="http://www.w3.org/2000/svg"><path d="m456 280h32v144h-64v-144zm0 0" fill="#4fc1e9"/><path d="m432 16v16c0 4.398438-3.601562 8-8 8h-240c-4.398438 0-8-3.601562-8-8v-16c0-4.398438 3.601562-8 8-8h240c4.398438 0 8 3.601562 8 8zm0 0" fill="#ffeaa7"/><path d="m328 312-16-16h-64c-4.398438 0-8.398438-1.761719-11.28125-4.71875-2.957031-2.882812-4.71875-6.882812-4.71875-11.28125 0-8.800781 7.199219-16 16-16h96l48 32h32v112h-32l-40 16h-24zm0 0" fill="#f0d0b4"/><path d="m416 40-4.320312 21.441406-21.28125 106.238282-1.277344 6.558593c-2.800782 14.242188-14.800782 24.722657-29.121094 25.601563-.71875.160156-1.519531.160156-2.238281.160156h-107.523438c-.71875 0-1.519531 0-2.238281-.160156-14.320312-.878906-26.320312-11.359375-29.121094-25.601563l-1.277344-6.558593-21.28125-106.238282-4.320312-21.441406zm0 0" fill="#fcd770"/><path d="m392 488h-176c0-8.800781 3.601562-16.800781 9.359375-22.640625 5.839844-5.757813 13.839844-9.359375 22.640625-9.359375h112c17.679688 0 32 14.320312 32 32zm0 0" fill="#ffc729"/><path d="m360 200v24c0 4.398438-3.601562 8-8 8h-96c-4.398438 0-8-3.601562-8-8v-24.160156c.71875.160156 1.519531.160156 2.238281.160156h107.523438c.71875 0 1.519531 0 2.238281-.160156zm0 0" fill="#ffc729"/><path d="m344 107.039062-20 18.160157 4.71875 25.601562-24.71875-12.082031-24.71875 12.082031 4.71875-25.601562-20-18.160157 27.601562-3.757812 12.398438-23.28125 12.398438 23.28125zm0 0" fill="#ffc729"/><path d="m328 424v32h-48v-32c8.800781 0 16-7.199219 16-16 0-4.398438-1.761719-8.398438-4.71875-11.28125-2.882812-2.957031-6.882812-4.71875-11.28125-4.71875 8.800781 0 16-7.199219 16-16 0-4.398438-1.761719-8.398438-4.71875-11.28125-2.882812-2.957031-6.882812-4.71875-11.28125-4.71875 8.800781 0 16-7.199219 16-16 0-4.398438-1.761719-8.398438-4.71875-11.28125-2.882812-2.957031-6.882812-4.71875-11.28125-4.71875 8.800781 0 16-7.199219 16-16 0-4.398438-1.761719-8.398438-4.71875-11.28125-2.882812-2.957031-6.882812-4.71875-11.28125-4.71875h32l16 16zm0 0" fill="#fcd770"/><path d="m280 232h48v32h-48zm0 0" fill="#fcd770"/><g fill="#f0d0b4"><path d="m291.28125 300.71875c2.957031 2.882812 4.71875 6.882812 4.71875 11.28125 0 8.800781-7.199219 16-16 16h-64c-4.398438 0-8.398438-1.761719-11.28125-4.71875-2.957031-2.882812-4.71875-6.882812-4.71875-11.28125 0-8.800781 7.199219-16 16-16h64c4.398438 0 8.398438 1.761719 11.28125 4.71875zm0 0"/><path d="m291.28125 332.71875c2.957031 2.882812 4.71875 6.882812 4.71875 11.28125 0 8.800781-7.199219 16-16 16h-64c-4.398438 0-8.398438-1.761719-11.28125-4.71875-2.957031-2.882812-4.71875-6.882812-4.71875-11.28125 0-8.800781 7.199219-16 16-16h64c4.398438 0 8.398438 1.761719 11.28125 4.71875zm0 0"/><path d="m291.28125 364.71875c2.957031 2.882812 4.71875 6.882812 4.71875 11.28125 0 8.800781-7.199219 16-16 16h-64c-4.398438 0-8.398438-1.761719-11.28125-4.71875-2.957031-2.882812-4.71875-6.882812-4.71875-11.28125 0-8.800781 7.199219-16 16-16h64c4.398438 0 8.398438 1.761719 11.28125 4.71875zm0 0"/><path d="m291.28125 396.71875c2.957031 2.882812 4.71875 6.882812 4.71875 11.28125 0 8.800781-7.199219 16-16 16h-64c-4.398438 0-8.398438-1.761719-11.28125-4.71875-2.957031-2.882812-4.71875-6.882812-4.71875-11.28125 0-8.800781 7.199219-16 16-16h64c4.398438 0 8.398438 1.761719 11.28125 4.71875zm0 0"/></g><path d="m136 408h32v80h-32zm0 0" fill="#ef7385"/><path d="m72 368h32v120h-32zm0 0" fill="#ef7385"/><path d="m8 328h32v160h-32zm0 0" fill="#ef7385"/><path d="m416 272v16h-21.574219l-48-32h-10.425781v-16h16c8.824219 0 16-7.175781 16-16v-17.496094c14.414062-3.863281 25.953125-15.496094 28.992188-30.664062l.167968-.839844c30.917969-6.390625 57.59375-26.617188 71.910156-55.257812 7.144532-14.285157 10.929688-30.300782 10.929688-46.300782v-5.441406c0-19.847656-16.152344-36-36-36-1.382812 0-2.695312.257812-4.039062.40625 0-.132812.039062-.269531.039062-.40625v-16c0-8.824219-7.175781-16-16-16h-240c-8.824219 0-16 7.175781-16 16v16c0 .136719.039062.273438.039062.40625-1.34375-.148438-2.65625-.40625-4.039062-.40625-19.847656 0-36 16.152344-36 36v5.441406c0 16 3.785156 32.007813 11.078125 46.613282 14.179687 28.351562 40.84375 48.570312 71.761719 54.960937l.167968.839844c3.03125 15.160156 14.578126 26.800781 28.992188 30.664062v17.480469c0 8.824219 7.175781 16 16 16h16v16h-24c-13.230469 0-24 10.769531-24 24 0 2.816406.574219 5.488281 1.472656 8h-9.472656c-13.230469 0-24 10.769531-24 24 0 6.167969 2.40625 11.742188 6.238281 16-3.839843 4.257812-6.238281 9.832031-6.238281 16s2.40625 11.742188 6.238281 16c-3.839843 4.257812-6.238281 9.832031-6.238281 16s2.40625 11.742188 6.238281 16c-3.839843 4.257812-6.238281 9.832031-6.238281 16 0 13.230469 10.769531 24 24 24h56v16h-24c-22.054688 0-40 17.945312-40 40v8h192v-8c0-22.054688-17.945312-40-40-40h-24v-16h17.535156l40-16h22.464844v16h80v-160zm48-204v5.441406c0 13.519532-3.191406 27.0625-9.390625 39.453125-10.960937 21.921875-30.722656 38.195313-54.015625 44.945313l13.886719-69.425782c3.527343 5.105469 8.3125 9.363282 14.09375 12.113282l6.859375-14.457032c-6.945313-3.285156-11.433594-10.390624-11.433594-18.070312 0-11.023438 8.976562-20 20-20s20 8.976562 20 20zm-280-52h240l.007812 16h-240.007812zm-30.753906 96.601562c-6.054688-12.097656-9.246094-25.632812-9.246094-39.160156v-5.441406c0-11.023438 8.976562-20 20-20s20 8.976562 20 20c0 7.679688-4.488281 14.785156-11.433594 18.078125l6.859375 14.457031c5.789063-2.75 10.566407-7.007812 14.09375-12.109375l13.886719 69.421875c-23.292969-6.769531-43.070312-23.0625-54.160156-45.246094zm73.449218 60.101563-24.933593-124.703125h204.476562l-24.941406 124.703125c-2.234375 11.183594-12.128906 19.296875-23.527344 19.296875h-107.539062c-11.398438 0-21.292969-8.113281-23.535157-19.296875zm29.304688 35.296875h96v16h-96zm32 32h32v16h-32zm-72 64h64c4.40625 0 8 3.59375 8 8s-3.59375 8-8 8h-64c-4.40625 0-8-3.59375-8-8s3.59375-8 8-8zm-8 72c0-4.40625 3.59375-8 8-8h64c4.40625 0 8 3.59375 8 8s-3.59375 8-8 8h-64c-4.40625 0-8-3.59375-8-8zm0-32c0-4.40625 3.59375-8 8-8h64c4.40625 0 8 3.59375 8 8s-3.59375 8-8 8h-64c-4.40625 0-8-3.59375-8-8zm0 64c0-4.40625 3.59375-8 8-8h64c4.40625 0 8 3.59375 8 8s-3.59375 8-8 8h-64c-4.40625 0-8-3.59375-8-8zm174.632812 72h-157.265624c3.304687-9.3125 12.199218-16 22.632812-16h112c10.433594 0 19.328125 6.6875 22.632812 16zm-94.632812-32v-17.472656c9.289062-3.3125 16-12.113282 16-22.527344 0-6.167969-2.40625-11.742188-6.238281-16 3.839843-4.257812 6.238281-9.832031 6.238281-16s-2.40625-11.742188-6.238281-16c3.839843-4.257812 6.238281-9.832031 6.238281-16s-2.40625-11.742188-6.238281-16c3.839843-4.257812 6.238281-9.832031 6.238281-16 0-2.816406-.574219-5.488281-1.472656-8h6.160156l11.3125 11.3125v132.6875zm102.464844-48-40 16h-14.464844v-84.6875l26.34375 26.34375 11.3125-11.3125-58.34375-58.34375h-67.3125c-4.40625 0-8-3.59375-8-8s3.59375-8 8-8h93.574219l48 32h26.425781v96zm89.535156 16h-16v-96h-16v96h-16v-128h16v16h16v-16h16zm0 0"/><path d="m268.527344 165 35.472656-17.359375 35.472656 17.351563-6.792968-36.855469 29.425781-26.703125-40.601563-5.496094-17.503906-33.015625-17.503906 33.015625-40.601563 5.496094 29.425781 26.703125zm28.257812-54.304688 7.214844-13.617187 7.214844 13.617187 14.679687 1.984376-10.574219 9.601562 2.65625 14.390625-13.976562-6.839844-13.976562 6.839844 2.65625-14.390625-10.574219-9.601562zm0 0"/><path d="m176 400h-48v80h-16v-120h-48v120h-16v-160h-48v176h192v-16h-16zm-144 80h-16v-144h16zm112-64h16v64h-16zm-64-40h16v104h-16zm0 0"/><path d="m16 251.3125 64 64 24-24 58.34375 58.34375 11.3125-11.3125-69.65625-69.65625-24 24-52.6875-52.6875h20.6875v-16h-48v48h16zm0 0"/></svg>