<?xml version="1.0" encoding="iso-8859-1"?>
<!-- Generator: Adobe Illustrator 19.0.0, SVG Export Plug-In . SVG Version: 6.00 Build 0)  -->
<svg version="1.1" id="Layer_1" xmlns="http://www.w3.org/2000/svg" xmlns:xlink="http://www.w3.org/1999/xlink" x="0px" y="0px"
	 viewBox="0 0 960 560" style="enable-background:new 0 0 960 560;" xml:space="preserve">
<g>
	<rect x="324" y="289" style="fill:#0093DD;" width="168" height="132"/>
	<path style="fill:#FFD246;" d="M306,421h204v12c0,13.254-10.746,24-24,24H330c-13.254,0-24-10.746-24-24V421z M306,421"/>
	<path style="fill:#57B7EB;" d="M348,337v-48h-24v132h168v-24h-84C374.863,397,348,370.137,348,337L348,337z M348,337"/>
	<path style="fill:#FCBC04;" d="M342,439c-9.941,0-18-8.059-18-18h-18v12c0,13.254,10.746,24,24,24h156
		c10.914-0.035,20.43-7.43,23.16-18H342z M342,439"/>
	<rect x="306" y="163" style="fill:#0093DD;" width="72" height="96"/>
	<path style="fill:#57B7EB;" d="M324,205v-42h-18v96h72v-18h-18C340.117,241,324,224.883,324,205L324,205z M324,205"/>
	<path style="fill:#3C277A;" d="M402.371,349.992l20.785-12l24,41.567c3.313,5.742,1.348,13.078-4.39,16.394
		c-5.739,3.313-13.078,1.348-16.395-4.394L402.371,349.992z M402.371,349.992"/>
	<path style="fill:#211844;" d="M438.359,364.301l-15.179-26.34l-20.821,12l14.219,24.598l10.383-6L438.359,364.301z
		 M438.359,364.301"/>
	<path style="fill:#FFD246;" d="M529.5,318.16l-102.539,38.399l-30-51.957L481.5,235L529.5,318.16z M529.5,318.16"/>
	<path style="fill:#3C277A;" d="M371.004,319.609l25.98-15l30,51.957l-25.98,15c-8.609,4.973-19.617,2.024-24.586-6.586l-12-20.785
		C359.445,335.586,362.395,324.578,371.004,319.609L371.004,319.609z M371.004,319.609"/>
	<path style="fill:#3C277A;" d="M353.98,350.184l10.395-6l12,20.785l-10.395,6c-5.738,3.312-13.078,1.347-16.39-4.391
		C346.277,360.836,348.242,353.496,353.98,350.184L353.98,350.184z M353.98,350.184"/>
	<path style="fill:#E0B334;" d="M433.922,338.199c-0.625,0.235-1.227,0.512-1.801,0.84l-11.461,6.602l6.301,10.918L529.5,318.16
		l-7.5-12.961L433.922,338.199z M433.922,338.199"/>
	<path style="fill:#211844;" d="M417.359,347.559c-9.734,5.57-21.757,5.246-31.179-0.84c-9.418-6.086-14.657-16.918-13.578-28.078
		l-1.622,0.961c-4.14,2.382-7.16,6.316-8.398,10.929c-1.238,4.614-0.59,9.531,1.797,13.668l12,20.762
		c2.387,4.137,6.32,7.16,10.933,8.398c4.614,1.239,9.532,0.59,13.668-1.8l25.981-15l-6.301-10.918L417.359,347.559z
		 M417.359,347.559"/>
	<path style="fill:#57B7EB;" d="M342,457v-12c0-3.312,2.688-6,6-6c3.312,0,6,2.688,6,6v12H342z M342,457"/>
	<path style="fill:#57B7EB;" d="M462,457v-12c0-3.312,2.688-6,6-6c3.312,0,6,2.688,6,6v12H462z M462,457"/>
	<path style="fill:#FFD246;" d="M510,229c-1.297,0-2.562-0.422-3.602-1.199c-2.648-1.989-3.187-5.75-1.199-8.403l18-24
		c0.957-1.269,2.375-2.113,3.953-2.339c1.575-0.223,3.176,0.187,4.45,1.14c2.648,1.989,3.187,5.75,1.199,8.403l-18,24
		C513.668,228.109,511.887,229,510,229L510,229z M510,229"/>
	<path style="fill:#FFD246;" d="M528,253c-1.887,0-3.668-0.891-4.801-2.398c-1.988-2.653-1.449-6.414,1.199-8.403l24-18
		c2.653-1.988,6.414-1.449,8.403,1.199c1.988,2.653,1.449,6.414-1.199,8.403l-24,18C530.562,252.578,529.297,253,528,253L528,253z
		 M528,253"/>
	<path style="fill:#FFD246;" d="M546,277c-3.312,0.332-6.27-2.086-6.602-5.398c-0.328-3.317,2.086-6.27,5.403-6.602l30-6
		c1.59-0.316,3.242,0.008,4.594,0.91c1.351,0.899,2.289,2.297,2.605,3.891c0.316,1.59-0.008,3.242-0.91,4.594
		c-0.899,1.351-2.297,2.289-3.891,2.605l-30,6H546z M546,277"/>
	<path style="fill:#FCBC04;" d="M354,193h-12c-3.312,0-6-2.688-6-6s2.688-6,6-6h12c3.312,0,6,2.688,6,6S357.312,193,354,193L354,193
		z M354,193"/>
	<path style="fill:#FCBC04;" d="M354,217h-24c-3.312,0-6-2.688-6-6c0-3.312,2.688-6,6-6h24c3.312,0,6,2.688,6,6
		C360,214.312,357.312,217,354,217L354,217z M354,217"/>
	<path style="fill:#FCBC04;" d="M354,241h-24c-3.312,0-6-2.688-6-6s2.688-6,6-6h24c3.312,0,6,2.688,6,6S357.312,241,354,241L354,241
		z M354,241"/>
	<path style="fill:#E59730;" d="M330,241h24c0.512-0.035,1.016-0.137,1.5-0.301c-8.586-1.097-16.488-5.25-22.262-11.699H330
		c-3.312,0-6,2.688-6,6S326.688,241,330,241L330,241z M330,241"/>
	<g>
		<path style="fill:#0093DD;" d="M605.597,335.654l-34.537-27.067c-2.242-1.764-1.752-3.187,1.097-3.187h75.01
			c2.848,0,3.339,1.423,1.097,3.187l-34.537,27.067C611.481,337.419,607.842,337.419,605.597,335.654L605.597,335.654z
			 M555.057,308.891c-0.464-0.655-2.784-0.29-4.938,1.574c-4.361,3.78-7.119,9.351-7.119,15.573v38.708
			c0,1.603,0.19,3.139,0.529,4.626c0.581,2.493,3.313,2.874,5.48,1.032l36.466-30.982c2.168-1.839,2.116-4.764-0.126-6.529
			l-29.283-22.957C555.664,309.636,555.335,309.281,555.057,308.891L555.057,308.891z M634.567,332.441
			c-2.245,1.764-2.319,4.687-0.152,6.538l36.124,30.96c2.168,1.852,4.8,1.561,5.319-0.819c0.313-1.4,0.477-2.861,0.477-4.374
			v-38.708c0-6.222-2.771-11.793-7.119-15.573c-2.155-1.864-4.487-2.229-4.952-1.574c-0.277,0.39-0.606,0.745-0.997,1.045
			L634.567,332.441z M611.494,350.195c-0.113,0.048-0.239,0.087-0.365,0.126c-0.464,0.139-0.958,0.239-1.448,0.239
			c-0.529,0-1.01-0.1-1.487-0.239c-0.126-0.039-0.239-0.077-0.365-0.126c-0.468-0.177-0.91-0.403-1.313-0.706
			c-0.035-0.026-2.455-1.929-4.748-3.729c-2.255-1.752-5.835-1.677-8.003,0.164l-38.076,32.344
			c-2.168,1.852-2.055,4.751,0.616,5.771c2.28,0.881,4.751,1.361,7.332,1.361h92.048c2.758,0,5.39-0.555,7.8-1.539
			c2.632-1.097,2.719-4.045,0.565-5.897l-37.924-32.482c-2.155-1.851-5.735-1.929-7.977-0.177l-5.268,4.132
			C612.403,349.792,611.961,350.018,611.494,350.195L611.494,350.195z M611.494,350.195"/>
	</g>
	<g>
		<path style="fill:#FFD246;" d="M501.844,102.676h-72.356c-7.255,0-13.156,5.9-13.156,13.156v59.2
			c0,7.255,5.9,13.156,13.156,13.156v13.149c0,1.276,0.737,2.434,1.894,2.98c0.441,0.204,0.921,0.309,1.395,0.309
			c0.756,0,1.506-0.257,2.105-0.763l18.819-15.675h48.143c7.255,0,13.156-5.9,13.156-13.156v-59.2
			C515,108.576,509.1,102.676,501.844,102.676z"/>
		<g>
			<path style="fill:#FAFAFA;" d="M439.356,161.876h-6.578c-1.815,0-3.289-1.473-3.289-3.289c0-1.815,1.473-3.289,3.289-3.289h6.578
				c1.815,0,3.289-1.473,3.289-3.289c0-1.815-1.473-3.289-3.289-3.289c-5.44,0-9.867-4.427-9.867-9.867s4.427-9.867,9.867-9.867
				h6.578c1.815,0,3.289,1.473,3.289,3.289c0,1.815-1.473,3.289-3.289,3.289h-6.578c-1.815,0-3.289,1.473-3.289,3.289
				c0,1.815,1.473,3.289,3.289,3.289c5.44,0,9.867,4.427,9.867,9.867S444.795,161.876,439.356,161.876z"/>
			<path style="fill:#FAFAFA;" d="M491.978,161.876H485.4c-1.815,0-3.289-1.473-3.289-3.289c0-1.815,1.473-3.289,3.289-3.289h6.578
				c1.809,0,3.289-1.473,3.289-3.289c0-1.815-1.48-3.289-3.289-3.289c-5.44,0-9.867-4.427-9.867-9.867s4.427-9.867,9.867-9.867
				h6.578c1.815,0,3.289,1.473,3.289,3.289c0,1.815-1.473,3.289-3.289,3.289h-6.578c-1.809,0-3.289,1.473-3.289,3.289
				c0,1.815,1.48,3.289,3.289,3.289c5.44,0,9.867,4.427,9.867,9.867S497.418,161.876,491.978,161.876z"/>
			<path style="fill:#FAFAFA;" d="M472.244,161.876c-1.815,0-3.289-1.473-3.289-3.289v-12.379l-0.349,0.697
				c-1.118,2.23-4.769,2.23-5.887,0l-0.342-0.697v12.379c0,1.815-1.473,3.289-3.289,3.289c-1.815,0-3.289-1.473-3.289-3.289v-26.311
				c0-1.526,1.052-2.855,2.532-3.203c1.467-0.355,3.013,0.368,3.697,1.73l3.638,7.275l3.638-7.268
				c0.678-1.375,2.184-2.085,3.697-1.737c1.487,0.349,2.532,1.677,2.532,3.203v26.311
				C475.533,160.403,474.06,161.876,472.244,161.876z"/>
		</g>
	</g>
	<path style="fill:#3C277A;" d="M649.429,173.722c-6.286,0-12.457-0.983-18.306-2.916c-2.866-0.978-6.389-0.081-8.138,1.716
		l-11.544,8.714c-13.388-7.146-21.634-15.39-28.683-28.677l8.458-11.243c2.197-2.195,2.986-5.4,2.041-8.408
		c-1.941-5.879-2.927-12.048-2.927-18.337c0-4.542-3.696-8.238-8.238-8.238h-18.855c-4.542,0-8.238,3.696-8.238,8.238
		C555,166.64,597.36,209,649.429,209c4.542,0,8.238-3.696,8.238-8.238V181.96C657.667,177.418,653.971,173.722,649.429,173.722z"/>
</g>
</svg>
