<?xml version="1.0" encoding="iso-8859-1"?>
<!-- Generator: Adobe Illustrator 19.0.0, SVG Export Plug-In . SVG Version: 6.00 Build 0)  -->
<svg version="1.1" id="Capa_1" xmlns="http://www.w3.org/2000/svg" xmlns:xlink="http://www.w3.org/1999/xlink" x="0px" y="0px"
	 viewBox="-49 141 512 512" style="enable-background:new -49 141 512 512;" xml:space="preserve">
<path style="fill:#FFD246;" d="M181.383,396.437c0-4.727,3.831-8.55,8.55-8.55h51.2v-59.699c0-4.727-3.831-8.55-8.55-8.55H79.017
	c-4.727,0-8.55,3.831-8.55,8.55v102.357c0,4.727,3.831,8.55,8.55,8.55h17.05v51.2l25.6-25.6l25.6-25.6h34.116V396.437z"/>
<g>
	<path style="fill:#0093DD;" d="M343.678,198.685c-1.621,0-3.26-0.461-4.71-1.425c-6.852-4.548-14.003-8.781-21.257-12.587
		c-4.173-2.185-5.786-7.347-3.601-11.52c2.193-4.173,7.347-5.777,11.52-3.593c7.765,4.07,15.428,8.61,22.775,13.483
		c3.925,2.603,4.992,7.902,2.389,11.827C349.148,197.354,346.435,198.685,343.678,198.685z"/>
	<path style="fill:#0093DD;" d="M277.579,167.726c-0.802,0-1.621-0.119-2.432-0.358c-14.652-4.352-29.833-7.305-45.107-8.772
		c-4.693-0.452-8.132-4.625-7.68-9.31c0.444-4.685,4.634-8.098,9.31-7.68c16.367,1.57,32.631,4.736,48.341,9.404
		c4.514,1.34,7.091,6.093,5.751,10.615C284.645,165.329,281.249,167.726,277.579,167.726z M136.506,167.701
		c-3.678,0-7.074-2.398-8.175-6.11c-1.34-4.514,1.237-9.267,5.751-10.607c15.718-4.668,31.983-7.825,48.35-9.387
		c4.693-0.435,8.858,2.995,9.301,7.689c0.444,4.693-2.995,8.858-7.68,9.301c-15.275,1.451-30.447,4.403-45.107,8.755
		C138.127,167.59,137.308,167.701,136.506,167.701z"/>
	<path style="fill:#0093DD;" d="M70.322,198.685c-2.765,0-5.478-1.34-7.117-3.814c-2.611-3.925-1.536-9.225,2.389-11.827
		c7.347-4.873,15.01-9.412,22.775-13.483c4.173-2.185,9.335-0.58,11.52,3.593c2.185,4.173,0.58,9.335-3.601,11.52
		c-7.245,3.797-14.404,8.03-21.257,12.587C73.581,198.233,71.943,198.685,70.322,198.685z"/>
	<path style="fill:#0093DD;" d="M419.352,532.023c-1.493,0-3.004-0.393-4.378-1.22c-4.045-2.423-5.35-7.663-2.935-11.708
		c4.224-7.049,8.124-14.387,11.588-21.811c1.997-4.267,7.074-6.127,11.341-4.122c4.267,1.997,6.118,7.074,4.122,11.341
		c-3.712,7.962-7.893,15.821-12.425,23.373C425.086,530.547,422.253,532.023,419.352,532.023z"/>
	<path style="fill:#0093DD;" d="M450.942,446.86c-0.478,0-0.964-0.034-1.442-0.119c-4.642-0.794-7.765-5.205-6.98-9.847
		c2.27-13.278,3.413-26.88,3.413-40.457c0-7.595-0.358-15.266-1.084-22.801c-0.444-4.693,2.995-8.858,7.689-9.301
		c4.71-0.401,8.858,2.995,9.301,7.689c0.768,8.064,1.16,16.282,1.16,24.414c0,14.532-1.229,29.107-3.661,43.332
		C458.631,443.925,455.021,446.86,450.942,446.86z"/>
	<path style="fill:#0093DD;" d="M438.492,317.461c-3.447,0-6.69-2.108-7.979-5.513c-2.901-7.654-6.246-15.266-9.941-22.613
		c-2.116-4.215-0.418-9.344,3.797-11.46c4.207-2.125,9.335-0.418,11.46,3.789c3.959,7.876,7.543,16.034,10.65,24.235
		c1.673,4.412-0.546,9.335-4.958,11.008C440.515,317.282,439.499,317.461,438.492,317.461z"/>
	<path style="fill:#0093DD;" d="M-24.492,317.461c-1.007,0-2.022-0.179-3.021-0.555c-4.412-1.673-6.63-6.596-4.958-11.008
		c3.106-8.201,6.69-16.358,10.65-24.235c2.116-4.207,7.245-5.914,11.46-3.789c4.207,2.116,5.914,7.245,3.797,11.46
		c-3.695,7.347-7.04,14.959-9.941,22.613C-17.802,315.362-21.045,317.461-24.492,317.461z"/>
	<path style="fill:#0093DD;" d="M-36.951,446.801c-4.087,0-7.689-2.935-8.405-7.1C-47.771,425.501-49,410.943-49,396.437
		c0-8.175,0.393-16.41,1.161-24.474c0.444-4.693,4.651-8.081,9.301-7.68c4.693,0.452,8.132,4.617,7.68,9.31
		c-0.708,7.526-1.075,15.215-1.075,22.844c0,13.551,1.143,27.145,3.405,40.397c0.794,4.642-2.33,9.054-6.98,9.847
		C-35.987,446.766-36.473,446.801-36.951,446.801z"/>
	<path style="fill:#0093DD;" d="M-5.352,532.023c-2.901,0-5.726-1.476-7.33-4.147c-4.531-7.552-8.704-15.411-12.425-23.373
		c-1.988-4.267-0.145-9.344,4.122-11.341c4.267-2.005,9.344-0.145,11.341,4.122c3.465,7.424,7.364,14.763,11.588,21.811
		c2.423,4.045,1.109,9.284-2.935,11.708C-2.348,531.63-3.859,532.023-5.352,532.023z"/>
	<path style="fill:#0093DD;" d="M119.491,636.462c-1.007,0-2.022-0.179-3.021-0.555c-8.192-3.098-16.35-6.682-24.235-10.65
		c-4.215-2.116-5.914-7.245-3.797-11.46c2.116-4.207,7.253-5.896,11.46-3.789c7.364,3.703,14.967,7.04,22.613,9.941
		c4.412,1.664,6.63,6.588,4.958,10.999C126.181,634.355,122.938,636.462,119.491,636.462z"/>
	<path style="fill:#0093DD;" d="M207,652.437c-10.274,0-20.634-0.623-30.805-1.843c-4.676-0.563-8.013-4.813-7.458-9.489
		c0.563-4.676,4.796-8.013,9.489-7.45c18.97,2.278,38.519,2.278,57.412,0.017c4.702-0.563,8.926,2.782,9.489,7.458
		c0.563,4.676-2.773,8.926-7.458,9.489C227.574,651.814,217.249,652.437,207,652.437z"/>
	<path style="fill:#0093DD;" d="M294.509,636.462c-3.447,0-6.69-2.108-7.987-5.513c-1.673-4.412,0.555-9.336,4.958-11
		c7.646-2.893,15.258-6.238,22.613-9.941c4.207-2.125,9.335-0.418,11.46,3.789c2.116,4.215,0.418,9.344-3.797,11.46
		c-7.885,3.959-16.043,7.543-24.235,10.65C296.532,636.283,295.516,636.462,294.509,636.462z"/>
</g>
<g>
	<path style="fill:#556080;" d="M420.35,575.637h-0.213c5.402-7.151,8.73-15.949,8.73-25.6c0-23.561-19.106-42.667-42.667-42.667
		s-42.667,19.106-42.667,42.667c0,9.651,3.328,18.449,8.73,25.6h-0.213c-18.842,0-34.116,15.275-34.116,34.116v34.15h136.533v-34.15
		C454.467,590.911,439.192,575.637,420.35,575.637z"/>
	<path style="fill:#556080;" d="M61.95,575.637h-0.213c5.402-7.151,8.73-15.949,8.73-25.6c0-23.561-19.106-42.667-42.667-42.667
		s-42.667,19.106-42.667,42.667c0,9.651,3.328,18.449,8.73,25.6H-6.35c-18.842,0-34.116,15.275-34.116,34.116v34.15H96.067v-34.15
		C96.067,590.911,80.792,575.637,61.95,575.637z"/>
	<path style="fill:#556080;" d="M61.95,217.237h-0.213c5.402-7.151,8.73-15.949,8.73-25.6c0-23.561-19.106-42.667-42.667-42.667
		s-42.667,19.106-42.667,42.667c0,9.651,3.328,18.449,8.73,25.6H-6.35c-18.842,0-34.116,15.275-34.116,34.116v34.15H96.067v-34.15
		C96.067,232.511,80.792,217.237,61.95,217.237z"/>
	<path style="fill:#556080;" d="M420.35,217.237h-0.213c5.402-7.151,8.73-15.949,8.73-25.6c0-23.561-19.106-42.667-42.667-42.667
		s-42.667,19.106-42.667,42.667c0,9.651,3.328,18.449,8.73,25.6h-0.213c-18.842,0-34.116,15.275-34.116,34.116v34.15h136.533v-34.15
		C454.467,232.511,439.192,217.237,420.35,217.237z"/>
</g>
<circle style="fill:#49398E;" cx="27.8" cy="191.637" r="42.667"/>
<path style="fill:#3C277A;" d="M61.95,217.237h-0.213c-7.791,10.308-20.028,17.067-33.937,17.067s-26.155-6.758-33.937-17.067H-6.35
	c-18.842,0-34.116,15.275-34.116,34.116v34.15H96.067v-34.15C96.067,232.511,80.792,217.237,61.95,217.237z"/>
<circle style="fill:#49398E;" cx="386.2" cy="191.637" r="42.667"/>
<path style="fill:#3C277A;" d="M420.35,217.237h-0.213c-7.791,10.308-20.028,17.067-33.937,17.067
	c-13.909,0-26.155-6.758-33.937-17.067h-0.213c-18.842,0-34.116,15.275-34.116,34.116v34.15h136.533v-34.15
	C454.467,232.511,439.192,217.237,420.35,217.237z"/>
<circle style="fill:#49398E;" cx="27.8" cy="550.037" r="42.667"/>
<path style="fill:#3C277A;" d="M61.95,575.637h-0.213c-7.791,10.308-20.028,17.067-33.937,17.067s-26.155-6.758-33.937-17.067H-6.35
	c-18.842,0-34.116,15.275-34.116,34.116v34.15H96.067v-34.15C96.067,590.911,80.792,575.637,61.95,575.637z"/>
<circle style="fill:#49398E;" cx="386.2" cy="550.037" r="42.667"/>
<path style="fill:#3C277A;" d="M420.35,575.637h-0.213c-7.791,10.308-20.028,17.067-33.937,17.067
	c-13.909,0-26.155-6.758-33.937-17.067h-0.213c-18.842,0-34.116,15.275-34.116,34.116v34.15h136.533v-34.15
	C454.467,590.911,439.192,575.637,420.35,575.637z"/>
<path style="fill:#0093DD;" d="M164.333,379.387v102.357c0,4.727,3.831,8.55,8.55,8.55H258.2l25.6,25.6l25.6,25.6v-51.2h17.05
	c4.727,0,8.55-3.831,8.55-8.55V379.387c0-4.727-3.831-8.55-8.55-8.55H172.884C168.165,370.837,164.333,374.66,164.333,379.387z"/>
<g>
	<path style="fill:#FFFFFF;" d="M249.667,422.037h-51.2c-4.71,0-8.533-3.823-8.533-8.533s3.823-8.533,8.533-8.533h51.2
		c4.71,0,8.533,3.823,8.533,8.533C258.2,418.214,254.377,422.037,249.667,422.037z"/>
	<path style="fill:#FFFFFF;" d="M300.867,422.037H283.8c-4.71,0-8.533-3.823-8.533-8.533s3.823-8.533,8.533-8.533h17.067
		c4.71,0,8.533,3.823,8.533,8.533C309.4,418.214,305.577,422.037,300.867,422.037z"/>
	<path style="fill:#FFFFFF;" d="M300.867,456.17h-51.2c-4.71,0-8.533-3.823-8.533-8.533s3.823-8.533,8.533-8.533h51.2
		c4.71,0,8.533,3.823,8.533,8.533S305.577,456.17,300.867,456.17z"/>
	<path style="fill:#FFFFFF;" d="M215.533,456.17h-17.067c-4.71,0-8.533-3.823-8.533-8.533s3.823-8.533,8.533-8.533h17.067
		c4.71,0,8.533,3.823,8.533,8.533S220.244,456.17,215.533,456.17z"/>
</g>
</svg>
