<?xml version="1.0" encoding="iso-8859-1"?>
<!-- Generator: Adobe Illustrator 19.0.0, SVG Export Plug-In . SVG Version: 6.00 Build 0)  -->
<svg xmlns="http://www.w3.org/2000/svg" xmlns:xlink="http://www.w3.org/1999/xlink" version="1.1" id="Layer_1" x="0px" y="0px" viewBox="0 0 511.96 511.96" style="enable-background:new 0 0 511.96 511.96;" xml:space="preserve" width="512" height="512">
<g id="XMLID_1307_">
	<g id="XMLID_1787_">
		
			<rect id="XMLID_2541_" x="61.787" y="322.395" transform="matrix(0.7071 0.7071 -0.7071 0.7071 293.971 -14.3103)" style="fill:#5DDEF5;" width="204.945" height="50.608"/>
		<path id="XMLID_2125_" style="fill:#FF6371;" d="M78.901,226.555L10,193.862l29.345-29.345    c43.734-43.734,104.395-66.172,166.061-61.425l0,0l203.46,203.46v0c4.747,61.666-17.691,122.328-61.425,166.061l-29.345,29.345    l-34.215-70.422L78.901,226.555z"/>
		<path id="XMLID_2251_" style="fill:#FFBE52;" d="M196.924,416.149L196.924,416.149c-34.253,34.253-80.813,53.337-129.253,52.978    l-24.685-0.183l-0.183-24.685c-0.359-48.44,18.725-95,52.978-129.253l0,0L196.924,416.149z"/>
		<path id="XMLID_1368_" style="fill:#FFFFFF;" d="M182.152,329.807l101.73,101.73l111.744-111.744    c80.394-80.394,118.499-193.797,102.965-306.425l0,0l0,0C385.963-2.167,272.56,35.939,192.166,116.333L80.422,228.077    L182.152,329.807z"/>
		<path id="XMLID_2457_" style="fill:#5DDEF5;" d="M498.591,13.368L498.591,13.368c-47.5-6.552-95.137-3.562-140.378,8.116    l132.262,132.262C502.153,108.505,505.142,60.868,498.591,13.368L498.591,13.368z"/>
		<g id="XMLID_1713_">
			<circle id="XMLID_1896_" style="fill:#FF6371;" cx="315.977" cy="196.056" r="86.321"/>
			<path id="XMLID_1765_" style="fill:#FED2A4;" d="M343.146,207.593l-4.838,4.838c-10.689,10.689-28.018,10.689-38.707,0v0l0,0     c-10.689-10.689-10.689-28.018,0-38.707l4.838-4.838c10.689-10.689,28.018-10.689,38.707,0l0,0     C353.835,179.575,353.835,196.905,343.146,207.593z"/>
			<path id="XMLID_1764_" style="fill:#5DDEF5;" d="M299.601,212.432L299.601,212.432c-18.892-18.892-46.769-23.297-69.87-13.249     c0.758,21.038,9.149,41.851,25.208,57.911c16.06,16.06,36.873,24.45,57.911,25.208     C322.897,259.201,318.493,231.324,299.601,212.432z"/>
		</g>
	</g>
	<g id="XMLID_548_">
		<path id="XMLID_584_" d="M508.497,12.002c-0.612-4.438-4.102-7.928-8.54-8.54c-48.758-6.725-98.951-3.603-146.566,8.97    c-0.226,0.053-0.452,0.109-0.675,0.178c-7.608,2.024-15.152,4.281-22.61,6.787c-46.768,15.715-90.424,40.932-127.525,73.496    c-63.412-3.853-125.3,19.545-170.306,64.552L2.929,186.791c-2.298,2.299-3.336,5.571-2.783,8.775    c0.554,3.203,2.63,5.938,5.567,7.331l67.388,31.976c0.084,0.091,0.161,0.188,0.25,0.276l22.2,22.2l-28.714,28.714    c-1.875,1.876-2.929,4.419-2.929,7.071s1.054,5.195,2.929,7.071l14.994,14.994c-31.615,35.19-49.381,81.696-49.029,129.134    l0.183,24.686c0.04,5.465,4.46,9.885,9.925,9.926l24.685,0.183c0.462,0.003,0.922,0.005,1.384,0.005    c46.957,0,92.903-17.728,127.75-49.034l15.025,15.025c1.953,1.952,4.512,2.929,7.071,2.929s5.119-0.977,7.071-2.929l28.714-28.714    l21.012,21.012l33.48,68.909c1.414,2.909,4.147,4.955,7.336,5.491c0.553,0.093,1.107,0.139,1.659,0.139    c2.629,0,5.18-1.038,7.07-2.929l29.346-29.345c45.006-45.007,68.404-106.899,64.552-170.307    c32.563-37.1,57.781-80.757,73.496-127.524C510.818,127.519,516.329,68.785,508.497,12.002z M489.645,22.314    c4.431,38.348,2.399,76.903-5.56,114.09L375.554,27.874C412.741,19.914,451.297,17.883,489.645,22.314z M46.416,171.588    c36.289-36.289,84.647-57.144,135.333-58.982L78.88,215.477l-51.782-24.57L46.416,171.588z M199.237,123.404    c42.966-42.966,96.228-73.613,153.666-89.897l125.549,125.549c-16.284,57.438-46.931,110.7-89.897,153.665l-76.388,76.388    l-45.517-45.517c-3.905-3.904-10.237-3.904-14.143,0c-3.905,3.905-3.905,10.237,0,14.143l45.517,45.517l-14.142,14.142    l-94.659-94.659h0l-94.659-94.658L199.237,123.404z M67.744,459.127l-14.832-0.109l-0.11-14.833    C52.49,402.068,68.136,360.775,96,329.368l86.561,86.56C151.148,443.79,109.827,459.419,67.744,459.127z M218.826,423.908    L102.859,307.943c-0.003-0.003-0.005-0.006-0.008-0.008s-0.006-0.005-0.008-0.008L88.05,293.133l21.643-21.643l43.592,43.592    l87.183,87.183L218.826,423.908z M340.371,465.543l-19.416,19.416l-24.966-51.386l103.363-103.364    C397.514,380.897,376.661,429.253,340.371,465.543z"/>
		<path id="XMLID_982_" d="M315.977,292.377c25.728,0,49.917-10.02,68.109-28.212c18.193-18.192,28.212-42.381,28.212-68.109    s-10.019-49.917-28.211-68.109c-37.556-37.555-98.663-37.555-136.219,0c-18.192,18.193-28.211,42.381-28.211,68.109    s10.019,49.917,28.211,68.109C266.06,282.357,290.249,292.377,315.977,292.377z M240.314,205.986    c18.458-5.329,38.338-0.362,52.216,13.517c13.878,13.878,18.847,33.757,13.517,52.216c-16.621-2.147-31.99-9.65-44.037-21.697    C249.963,237.976,242.461,222.607,240.314,205.986z M301.584,193.078c0-4.64,1.807-9.001,5.088-12.282l4.838-4.838    c3.386-3.386,7.834-5.08,12.282-5.08c4.448,0,8.896,1.693,12.282,5.08c6.773,6.772,6.773,17.792,0,24.564l-4.838,4.838    c-6.773,6.772-17.793,6.772-24.565,0C303.391,202.08,301.584,197.718,301.584,193.078z M262.01,142.089    c14.878-14.879,34.423-22.318,53.967-22.318s39.088,7.439,53.967,22.318c14.416,14.415,22.354,33.581,22.354,53.967    c0,20.386-7.938,39.552-22.354,53.966c0,0,0,0,0,0c-11.865,11.866-26.953,19.331-43.287,21.604    c2.881-14.004,1.577-28.367-3.611-41.428c8.163-0.892,16.089-4.452,22.333-10.696l4.838-4.838c14.57-14.571,14.57-38.279,0-52.85    s-38.279-14.569-52.849,0l-4.838,4.838c-6.083,6.082-9.803,13.894-10.717,22.325c-13.056-5.18-27.411-6.481-41.407-3.602    C242.679,169.042,250.144,153.955,262.01,142.089z"/>
		<path id="XMLID_1073_" d="M170.037,472.698l-22.149,22.148c-3.905,3.905-3.906,10.237,0,14.143    c1.953,1.952,4.512,2.929,7.071,2.929c2.559,0,5.119-0.977,7.071-2.929l22.149-22.148c3.905-3.905,3.906-10.237,0-14.143    C180.274,468.794,173.943,468.794,170.037,472.698z"/>
		<path id="XMLID_1111_" d="M39.252,327.77c-3.906-3.904-10.237-3.904-14.142,0L2.961,349.919c-3.905,3.905-3.906,10.237,0,14.143    c1.953,1.952,4.512,2.929,7.071,2.929c2.559,0,5.119-0.977,7.071-2.929l22.149-22.148    C43.157,338.007,43.157,331.675,39.252,327.77z"/>
		<path id="XMLID_1112_" d="M231.28,312.369c-2.63,0-5.21,1.06-7.07,2.93c-1.86,1.86-2.93,4.43-2.93,7.07    c0,2.63,1.07,5.21,2.93,7.069c1.86,1.86,4.44,2.931,7.07,2.931s5.21-1.07,7.07-2.931c1.86-1.859,2.93-4.439,2.93-7.069    c0-2.641-1.07-5.21-2.93-7.07C236.49,313.428,233.91,312.369,231.28,312.369z"/>
	</g>
</g>















</svg>
