<?xml version="1.0" encoding="iso-8859-1"?>
<!-- Generator: Adobe Illustrator 19.0.0, SVG Export Plug-In . SVG Version: 6.00 Build 0)  -->
<svg version="1.1" id="Capa_1" xmlns="http://www.w3.org/2000/svg" xmlns:xlink="http://www.w3.org/1999/xlink" x="0px" y="0px"
	 viewBox="-49 141 512 512" style="enable-background:new -49 141 512 512;" xml:space="preserve">
<path style="fill:#0093DD;" d="M211.333,288l-44.75-44.75V191c0-22.091-17.909-40-40-40H1c-22.091,0-40,17.909-40,40v88
	c0,22.091,17.909,40,40,40h125.583c18.995,0,34.886-13.245,38.971-31H211.333z"/>
<path style="fill:#FFD246;" d="M202.667,506l44.75,44.75V603c0,22.091,17.909,40,40,40H413c22.091,0,40-17.909,40-40v-88
	c0-22.091-17.909-40-40-40H287.417c-18.995,0-34.886,13.245-38.971,31H202.667z"/>
<path style="fill:#FFD246;" d="M124.276,517.426H43.85c-45.757,0-82.85,37.093-82.85,82.85V643h246.127v-42.724
	C207.127,554.519,170.034,517.426,124.276,517.426z"/>
<polygon style="fill:#FFFFFF;" points="129.971,517.426 84.063,563.333 38.156,517.426 "/>
<path style="fill:#0093DD;" d="M71.139,373.096h67.073v33.286c0,17.264-13.996,31.26-31.26,31.26H29.916V414.32
	C29.916,391.553,48.372,373.096,71.139,373.096z"/>
<path style="fill:#FFCDAC;" d="M138.211,437.642v25.636c0,29.905-24.243,54.148-54.148,54.148l0,0
	c-29.905,0-54.148-24.243-54.148-54.148v-25.636H138.211z"/>
<path style="fill:#0093DD;" d="M370.15,295.329h-80.426c-45.757,0-82.85,37.093-82.85,82.85v42.724H453V378.18
	C453,332.423,415.907,295.329,370.15,295.329z"/>
<polygon style="fill:#FFFFFF;" points="375.844,295.329 329.937,341.237 284.029,295.329 "/>
<path style="fill:#FFD246;" d="M317.012,151h67.073v33.286c0,17.264-13.996,31.26-31.26,31.26h-77.036v-23.323
	C275.789,169.456,294.245,151,317.012,151z"/>
<path style="fill:#FFCDAC;" d="M384.084,215.546v25.636c0,29.905-24.243,54.148-54.148,54.148l0,0
	c-29.905,0-54.148-24.243-54.148-54.148v-25.636H384.084z"/>
</svg>
