<?xml version="1.0" encoding="utf-8"?>
<!-- Generator: Adobe Illustrator 22.1.0, SVG Export Plug-In . SVG Version: 6.00 Build 0)  -->
<svg version="1.1" id="Layer_1" xmlns="http://www.w3.org/2000/svg" xmlns:xlink="http://www.w3.org/1999/xlink" x="0px" y="0px"
	 viewBox="0 0 4809.7 606" style="enable-background:new 0 0 4809.7 606;" xml:space="preserve">
<style type="text/css">
	.st0{fill:#229E82;}
	.st1{fill:#F78F35;}
	.st2{fill:#FCB53E;}
	.st3{fill:#FFCA43;}
	.st4{fill:#808285;}
</style>
<g>
	<path class="st0" d="M507.8,99.7c1.9-83.1,34.8-99.3,34.8-99.3s-71.4-2.4-87.1,5c-72.8,26.6-84.3,108.4-84.4,161.1v0.3v-0.3
		c0.1-7.8-0.6-155.3-159.3-165.6C207,0.6,0,0.4,0,0.4s33.2,16.2,34.9,99.3l0,250.9c5.2-56,30.3-122.6,90.8-199.1
		c51.7,65.4,77.6,123.6,87.2,174.1c36.8-30.6,87.6-56.6,157.7-72c0,0,8,95.8-31.5,184c44.6-11.5,97.6-13.7,160-0.1
		c4.7-16.6,7.8-34,8.8-52L507.8,99.7z"/>
	<path class="st1" d="M119.2,552.5c-2-50.3,4.7-152.6,93.7-226.9c-9.7-50.5-35.5-108.7-87.2-174.1C65.2,228,40.1,294.6,34.9,350.6
		C34.9,350.6,19.7,470.6,119.2,552.5"/>
	<path class="st2" d="M370.6,253.6c-70.1,15.5-120.9,41.4-157.7,72c-89.1,74.3-95.8,176.6-93.7,226.9c2.5,2.5,37.3,25.2,37.3,25.2
		c27.4-44.5,84.6-114.8,182.6-140.1C378.7,349.4,370.6,253.6,370.6,253.6"/>
	<path class="st3" d="M339.1,437.6c-98,25.3-155.3,95.6-182.6,140.1c0.1,0,0.3,0.1,0.4,0.2c57.9,32.2,118.5,28,118.5,28
		c106.2-0.1,195.7-71.2,223.7-168.4C436.7,423.8,383.7,426.1,339.1,437.6"/>
</g>
<g>
	<path class="st1" d="M1523.6,188.3v-6.2l-53.2,0v6.2c10,2.7,13.2,8.3,13.2,14.8c0,8.5-3.5,17.3-7.4,27.5l-31.8,83.6l-50.1-120
		c-3.2-7.1-10.6-12.1-19.2-12.1l-46.6,0v6.1c14.9,1.7,21.9,11.9,30.3,32.5l67.3,162h7.4l64.7-162
		C1505.4,202.6,1511.9,191.5,1523.6,188.3z"/>
	<path class="st1" d="M1701.3,363.8c-3.4-5.1-10.7-22-10.7-22l-65.3-159.7l-27.4,0l-63.6,162.3c-6.9,17.6-13.3,28.7-24.2,32.2v6.1
		h46.1v-6.1c-9.1-2-11.1-5.7-11.1-11.3c0-7.1,3.1-13.8,5.9-20.9l12.3-30l71.1,0l23.1,56.1c3.4,7.4,10.9,11.8,19.5,12.3h44.8v-6.1
		C1713,375.8,1706.7,372,1701.3,363.8z M1569.8,296.5l27.7-71.9l29.6,71.9L1569.8,296.5z"/>
	<path class="st1" d="M1291.4,349.1c0-26.1,0.1-145.3,0-145.7c-0.7-11.9-11-21.3-23.5-21.3h-0.1h0l-41.1,0v6.1
		c14.9,2.8,17.6,12.7,17.6,32.1l0,127.8c-0.5,16.8-4.1,25.8-17.9,28.4v6.1l83,0v-6.1C1295.7,374,1292.1,365.3,1291.4,349.1z"/>
	<path class="st1" d="M800.9,188.2c14.8,2.8,17.6,12.7,17.6,32.1l0,112c-17.6,19.2-36.9,28.6-56.5,28.6c-27,0-36.9-15.1-36.9-47.7
		v-36.3h0c0-36.9,0-73.3,0-73.5c-0.7-11.9-11-21.3-23.5-21.3h-0.1h0l-39.5,0v6.1c14.9,2.8,17.6,12.7,17.6,32.1l0,80.1h0v15.4
		c0,45,21.4,66.9,65.6,66.9c28.1,0,51.9-9.4,73.4-29.3l0,8.7c0.7,11.5,10.6,20.6,22.7,20.6h0h0l39.8,0v-6.1
		c-13.6-2.6-16.7-11.2-17-28.2l0-128.1c0-19.5,2.7-29.3,17.5-32.1v-6.1l-80.7,0L800.9,188.2z"/>
	<path class="st1" d="M1937.8,344.5v-80.1h0v-15.4c0-45-21.4-66.9-65.6-66.9c-28.1,0-51.9,9.4-73.4,29.3l0-8.7
		c-0.7-11.5-10.6-20.6-22.7-20.6h0h0l-39.8,0v6.1c13.6,2.6,16.7,11.2,17,28.2v128.1c0,19.5-2.7,29.3-17.5,32.1v6.1l80.7,0v-6.1
		c-14.8-2.8-17.6-12.7-17.6-32.1v-112c17.6-19.2,36.9-28.6,56.5-28.6c27,0,36.9,15.1,36.9,47.7v36.3h0c0,36.9,0,73.3,0,73.5
		c0.7,11.9,11,21.3,23.5,21.3h0.1h0l39.5,0v-6.1C1940.5,373.8,1937.8,363.9,1937.8,344.5z"/>
	<path class="st1" d="M1089.1,182.1h-17.3v6.2l17.5,0c14.6,2.9,17.3,12.7,17.3,32.1v171.7c-0.4,8.2-3.4,15.8-8.2,22
		c0,0.1-0.1,0.1-0.1,0.2c-0.6,0.7-1.2,1.5-1.8,2.2c0,0-0.1,0.1-0.1,0.1c-2.6,2.8-5.5,5.3-8.8,7.4c-0.2,0.1-0.3,0.2-0.5,0.3
		c-0.2,0.1-0.5,0.3-0.7,0.4c-4.8,2.7-10.3,4.4-16.3,4.8c-2.5,0.1-4.5,0.2-6.6,0v6c4.5,0.4,9.3,0.6,14.9,0.4
		c10.8-0.3,19-1.7,26.6-4.3c0.5-0.2,1.1-0.3,1.6-0.5c26.2-9.3,44.8-33.1,45.6-61.2V220.4c0-19.4,2.8-29.2,17.3-32.1h17.5v-6.2h-17.2
		L1089.1,182.1z"/>
	<path class="st1" d="M941.9,182.1l-17.3,0v6.2h17.5c14.6,2.9,17.3,12.7,17.3,32.1v171.7c-0.4,8.2-3.4,15.8-8.2,22
		c0,0.1-0.1,0.1-0.1,0.2c-0.6,0.7-1.2,1.5-1.8,2.2c0,0-0.1,0.1-0.1,0.1c-2.6,2.8-5.5,5.3-8.8,7.4c-0.2,0.1-0.3,0.2-0.5,0.3
		c-0.2,0.1-0.5,0.3-0.7,0.4c-4.8,2.7-10.3,4.4-16.3,4.8c-2.5,0.1-4.5,0.2-6.6,0v6c4.5,0.4,9.3,0.6,14.9,0.4
		c10.8-0.3,19-1.7,26.6-4.3c0.5-0.2,1.1-0.3,1.6-0.5c26.2-9.3,44.8-33.1,45.6-61.2l0-149.5c0-19.4,2.8-29.2,17.3-32.1l17.5,0v-6.2
		h-17.2L941.9,182.1z"/>
</g>
<g>
	<path class="st0" d="M2080.2,362.8c29.3,0,43.9-10,43.9-30.1c0-6.2-1.3-11.4-3.9-15.8c-2.6-4.3-6.1-8.1-10.6-11.3
		c-4.4-3.2-9.5-5.9-15.2-8.2c-5.7-2.3-11.7-4.6-18.1-6.9c-7.3-2.5-14.3-5.3-20.8-8.5c-6.6-3.2-12.2-6.9-17.1-11.3
		c-4.8-4.3-8.6-9.5-11.4-15.5c-2.8-6-4.2-13.2-4.2-21.7c0-17.5,6-31.2,17.9-41.1c11.9-9.8,28.4-14.8,49.4-14.8
		c12.1,0,23.2,1.3,33.1,3.9c9.9,2.6,17.2,5.4,21.8,8.5l-8.9,22.8c-4-2.5-10.1-5-18.1-7.4c-8-2.4-17.3-3.6-27.9-3.6
		c-5.4,0-10.4,0.6-15,1.7c-4.6,1.2-8.7,2.9-12.1,5.2c-3.5,2.3-6.2,5.3-8.2,8.8c-2,3.6-3,7.8-3,12.6c0,5.4,1.1,9.9,3.2,13.6
		c2.1,3.7,5.1,6.9,9,9.7c3.9,2.8,8.3,5.3,13.4,7.7c5.1,2.3,10.7,4.6,16.9,6.9c8.7,3.5,16.6,6.9,23.9,10.4
		c7.2,3.5,13.5,7.6,18.8,12.4c5.3,4.8,9.4,10.5,12.3,17.2c2.9,6.6,4.3,14.7,4.3,24.1c0,17.5-6.4,31-19.2,40.5
		c-12.8,9.5-30.9,14.2-54.2,14.2c-7.9,0-15.2-0.5-21.8-1.6c-6.6-1.1-12.6-2.3-17.8-3.7c-5.2-1.4-9.7-3-13.4-4.6
		c-3.8-1.6-6.7-3-8.8-4.2l8.4-23.1c4.4,2.5,11.2,5.3,20.2,8.4C2056,361.2,2067.1,362.8,2080.2,362.8z"/>
	<path class="st0" d="M2265.8,354.9c-1.9-4.6-4.5-10.5-7.7-17.6c-3.2-7.1-6.6-14.8-10.3-23.1c-3.7-8.3-7.6-16.8-11.7-25.6
		c-4.2-8.8-8.1-17-11.7-24.9c-3.7-7.8-7.1-14.8-10.3-21c-3.2-6.2-5.7-10.9-7.7-14.2c-2.1,22.7-3.8,47.4-5.2,73.9
		c-1.3,26.5-2.5,53.2-3.4,80.2l-27.5,0c0.8-17.3,1.6-34.8,2.6-52.5c1-17.6,2.1-35,3.3-52c1.2-17.1,2.6-33.7,4-49.9
		c1.4-16.2,3-31.5,4.7-46l24.6,0c5.2,8.5,10.8,18.5,16.8,30.1c6,11.6,12,23.7,17.9,36.3c6,12.6,11.8,25.2,17.4,37.9
		c5.6,12.6,10.7,24.1,15.3,34.5c4.6-10.4,9.7-21.9,15.3-34.5c5.6-12.6,11.4-25.2,17.3-37.9c6-12.6,11.9-24.7,17.9-36.3
		c6-11.6,11.6-21.6,16.8-30.1l24.6,0c6.6,64.6,11.5,131.3,14.8,200.3l-27.5,0c-1-27-2.2-53.7-3.5-80.2c-1.4-26.5-3.1-51.1-5.2-73.8
		c-1.9,3.3-4.5,8-7.7,14.2c-3.2,6.2-6.6,13.2-10.2,21c-3.7,7.8-7.6,16.1-11.7,24.9c-4.1,8.8-8,17.3-11.7,25.6
		c-3.7,8.3-7.1,16-10.2,23.1c-3.2,7.1-5.7,13-7.7,17.6L2265.8,354.9z"/>
	<path class="st0" d="M2549.9,382.5c-3.3-8.7-6.4-17.2-9.3-25.6s-5.9-16.9-9-25.6l-90.8,0l-18.2,51.2l-29.2,0
		c7.7-21.2,14.9-40.8,21.6-58.8c6.7-18,13.3-35.1,19.8-51.3c6.4-16.2,12.8-31.7,19.2-46.4c6.4-14.7,13-29.3,19.9-43.8l25.7,0
		c6.9,14.4,13.6,29,20,43.8c6.4,14.7,12.8,30.2,19.2,46.4c6.5,16.2,13.1,33.3,19.8,51.3c6.8,18,14,37.6,21.7,58.8L2549.9,382.5z
		 M2523.6,308.2c-6.2-16.8-12.3-33-18.4-48.7c-6.1-15.7-12.4-30.8-19-45.2c-6.7,14.5-13.1,29.5-19.2,45.2
		c-6.1,15.7-12.1,31.9-18,48.7L2523.6,308.2z"/>
	<path class="st0" d="M2716.7,358.1l0,24.3l-120.5,0.1l-0.1-200.3l28,0l0.1,176L2716.7,358.1z"/>
	<path class="st0" d="M2855.1,358l0,24.3l-120.5,0.1l-0.1-200.3l28,0l0.1,176L2855.1,358z"/>
	<path class="st0" d="M2928.3,382.3l-0.1-200.3l120.8-0.1l0,24l-92.8,0l0,60.4l82.4,0l0,23.7l-82.4,0l0,92.2L2928.3,382.3z"/>
	<path class="st0" d="M3071.8,181.9l28,0l0.1,200.3l-28,0L3071.8,181.9z"/>
	<path class="st0" d="M3275.4,382.1c-4.2-7.1-9.1-15.1-14.6-24c-5.5-8.9-11.4-18.1-17.8-27.6c-6.4-9.5-13-19.2-19.8-29
		c-6.8-9.8-13.6-19.3-20.4-28.5c-6.8-9.1-13.3-17.8-19.7-25.9c-6.4-8.1-12.2-15.2-17.6-21.4l0.1,156.4l-27.5,0l-0.1-200.3l22.3,0
		c9.1,9.6,18.7,20.9,29.1,33.7c10.3,12.8,20.5,26,30.7,39.6c10.1,13.6,19.7,26.9,28.6,40c9,13.1,16.5,24.8,22.7,35l-0.1-148.3
		l27.5,0l0.1,200.3L3275.4,382.1z"/>
	<path class="st0" d="M3470.8,382c-3.3-8.7-6.4-17.2-9.3-25.6c-2.9-8.4-5.9-16.9-9-25.6l-90.8,0l-18.2,51.2l-29.2,0
		c7.7-21.2,14.9-40.8,21.6-58.8c6.7-18,13.3-35.1,19.8-51.3c6.4-16.2,12.8-31.7,19.2-46.4c6.4-14.7,13-29.3,19.9-43.8l25.7,0
		c6.9,14.4,13.6,29,20,43.8c6.4,14.7,12.8,30.2,19.2,46.4c6.5,16.2,13.1,33.3,19.8,51.3c6.8,18,14,37.6,21.7,58.8L3470.8,382z
		 M3444.5,307.7c-6.2-16.8-12.3-33-18.4-48.7c-6.1-15.7-12.4-30.8-19-45.2c-6.7,14.5-13.1,29.5-19.2,45.2
		c-6.1,15.7-12.1,31.9-18,48.7L3444.5,307.7z"/>
	<path class="st0" d="M3654.3,381.9c-4.2-7.1-9.1-15.1-14.6-24c-5.5-8.9-11.4-18.1-17.8-27.6c-6.4-9.5-13-19.2-19.8-29
		c-6.8-9.8-13.6-19.3-20.4-28.5c-6.8-9.1-13.3-17.8-19.7-25.9c-6.4-8.1-12.2-15.2-17.6-21.4l0.1,156.4l-27.5,0l-0.1-200.3l22.3,0
		c9.1,9.6,18.7,20.9,29.1,33.7c10.3,12.8,20.5,26,30.7,39.6c10.1,13.6,19.7,26.9,28.6,40c9,13.1,16.5,24.8,22.7,35l-0.1-148.3
		l27.5,0l0.1,200.3L3654.3,381.9z"/>
	<path class="st0" d="M3802,386.2c-14.1,0-26.9-2.3-38.4-6.9c-11.6-4.6-21.5-11.4-29.8-20.2c-8.3-8.9-14.7-19.8-19.2-32.8
		c-4.5-13-6.8-27.9-6.8-44.7c0-16.8,2.5-31.7,7.6-44.7c5.1-13,12-23.9,20.7-32.8c8.7-8.9,18.8-15.6,30.3-20.2
		c11.6-4.6,23.9-6.9,37-7c8.3,0,15.8,0.6,22.4,1.7c6.6,1.2,12.4,2.5,17.3,4c4.9,1.5,8.9,3.1,12,4.6c3.1,1.5,5.2,2.7,6.4,3.5
		l-8.1,23.1c-1.7-1.2-4.2-2.4-7.5-3.8c-3.3-1.3-7-2.7-11.1-4c-4.1-1.3-8.7-2.5-13.6-3.3c-4.9-0.9-9.9-1.3-14.9-1.3
		c-10.6,0-20.1,1.8-28.6,5.5c-8.5,3.7-15.7,9-21.7,15.9c-6,6.9-10.5,15.4-13.7,25.3c-3.2,9.9-4.8,21.1-4.8,33.4
		c0,12,1.4,22.8,4.2,32.7c2.8,9.8,7,18.3,12.6,25.3c5.6,7,12.6,12.5,21,16.3c8.4,3.9,18.2,5.8,29.3,5.8c12.9,0,23.6-1.4,32.1-4.1
		c8.5-2.7,14.8-5.1,19.1-7.2l7.2,23.1c-1.3,1-3.8,2.2-7.2,3.6c-3.5,1.4-7.8,2.8-13,4.2c-5.2,1.3-11.3,2.5-18.2,3.5
		C3817.6,385.7,3810.1,386.2,3802,386.2z"/>
	<path class="st0" d="M3883.5,381.8l-0.1-200.3l122.3-0.1l0,24l-94.2,0l0,59.5l83.8,0l0,23.4l-83.8,0l0,69.4l101.5-0.1l0,24
		L3883.5,381.8z"/>
	<path class="st0" d="M4146.3,383.4c-4,0-8.4-0.1-13.2-0.3c-4.7-0.2-9.4-0.5-14.2-0.9c-4.7-0.4-9.4-0.9-14-1.4
		c-4.6-0.6-8.9-1.3-12.7-2.3l-0.1-194.2c3.9-1,8.1-1.7,12.7-2.3c4.6-0.6,9.3-1.1,14-1.5c4.7-0.4,9.4-0.7,14-0.9
		c4.6-0.2,9-0.3,13-0.3c11.6,0,22.4,0.9,32.5,2.6c10.1,1.7,18.9,4.7,26.3,8.8c7.4,4.1,13.3,9.6,17.5,16.3c4.2,6.7,6.4,15,6.4,24.9
		c0,11-2.6,20-7.8,27c-5.2,7-12.1,12.3-20.8,15.8c11.8,3.5,21.1,8.9,28,16.5c6.9,7.5,10.4,18.1,10.4,31.8c0,20-7.4,35.1-22.1,45.2
		C4201.6,378.3,4178.3,383.4,4146.3,383.4z M4119.9,265.8l29.5,0c6.9,0,13.5-0.5,19.7-1.5c6.2-1,11.5-2.7,16-5.2
		c4.5-2.5,8.1-5.8,10.7-9.8c2.6-4,3.9-9.2,3.9-15.3c0-5.8-1.4-10.6-4.1-14.6c-2.7-3.9-6.4-7.1-11.1-9.5c-4.7-2.4-10.3-4.2-16.6-5.3
		c-6.4-1.2-13.1-1.7-20.2-1.7c-7.1,0-12.7,0.1-16.8,0.3c-4,0.2-7.7,0.5-11,0.9L4119.9,265.8z M4119.9,288.3l0,70.5
		c2.1,0.2,4.6,0.4,7.5,0.6c2.5,0.2,5.4,0.3,8.8,0.4c3.4,0.1,7.3,0.1,11.7,0.1c8.3,0,16.1-0.5,23.6-1.6c7.4-1.1,13.9-2.9,19.5-5.6
		c5.6-2.7,10.1-6.5,13.4-11.3c3.4-4.8,5.1-10.9,5-18.2c0-6.5-1.3-12.1-3.8-16.6c-2.5-4.5-6.1-8.1-10.8-10.8
		c-4.7-2.7-10.4-4.6-16.9-5.8c-6.6-1.2-13.9-1.7-22-1.7L4119.9,288.3z"/>
	<path class="st0" d="M4400.4,381.5c-3.3-8.7-6.4-17.2-9.3-25.6c-2.9-8.4-5.9-16.9-9-25.6l-90.8,0l-18.2,51.2l-29.2,0
		c7.7-21.2,14.9-40.8,21.6-58.8c6.7-18,13.3-35.1,19.8-51.3c6.4-16.2,12.8-31.7,19.2-46.4c6.4-14.7,13-29.3,19.9-43.8l25.7,0
		c6.9,14.4,13.6,29,20,43.8c6.4,14.7,12.8,30.2,19.2,46.4c6.5,16.2,13.1,33.3,19.8,51.3c6.8,18,14,37.6,21.7,58.8L4400.4,381.5z
		 M4374,307.3c-6.2-16.8-12.3-33-18.4-48.7c-6.1-15.7-12.4-30.8-19-45.2c-6.7,14.5-13.1,29.5-19.2,45.2c-6.1,15.7-12.1,31.9-18,48.7
		L4374,307.3z"/>
	<path class="st0" d="M4583.9,381.4c-4.2-7.1-9.1-15.1-14.6-24c-5.5-8.9-11.4-18.1-17.8-27.6c-6.4-9.5-13-19.2-19.8-29
		c-6.8-9.8-13.6-19.3-20.4-28.5c-6.8-9.1-13.3-17.8-19.7-25.9c-6.4-8.1-12.2-15.2-17.6-21.4l0.1,156.4l-27.5,0l-0.1-200.3l22.3,0
		c9.1,9.6,18.7,20.9,29.1,33.7c10.3,12.8,20.5,26,30.7,39.6c10.1,13.6,19.7,26.9,28.6,40c9,13.1,16.5,24.8,22.7,35l-0.1-148.3
		l27.5,0l0.1,200.3L4583.9,381.4z"/>
	<path class="st0" d="M4793.6,181c-6,6.6-12.7,13.8-20.2,21.8c-7.5,8-15.4,16.2-23.5,24.6c-8.2,8.4-16.3,16.6-24.4,24.7
		c-8.1,8.1-15.7,15.6-22.8,22.6c8.3,5.8,17.1,12.9,26.3,21.4c9.3,8.5,18.3,17.5,27.2,27.2c8.9,9.6,17.2,19.5,25,29.5
		c7.8,10,14.3,19.6,19.5,28.6l-33,0c-5.8-9.1-12.4-18.2-20-27.3c-7.5-9.1-15.5-17.9-23.9-26.3c-8.4-8.4-16.9-16.1-25.4-23.3
		c-8.6-7.1-16.9-13.2-25-18.2l0,95.1l-28,0l-0.1-200.3l28,0l0,88.4c6.7-6.4,14.2-13.5,22.2-21.5c8.1-8,16.1-16,24-24.1
		c7.9-8.1,15.4-15.9,22.4-23.3c7-7.4,13-13.9,17.8-19.5L4793.6,181z"/>
</g>
<g>
	<g>
		<path class="st4" d="M3360.2,604.9c-2.6,0-5.4-0.1-8.4-0.2c-3-0.1-6-0.3-9-0.6c-3-0.2-6-0.6-8.9-0.9c-2.9-0.4-5.6-0.8-8.1-1.5
			V478.1c2.5-0.6,5.2-1.1,8.1-1.5c2.9-0.4,5.9-0.7,8.9-0.9c3-0.2,6-0.4,8.9-0.5c3-0.1,5.7-0.2,8.3-0.2c7.4,0,14.3,0.6,20.7,1.7
			s12,3,16.8,5.6c4.7,2.6,8.4,6.1,11.1,10.4c2.7,4.3,4,9.6,4,15.8c0,7-1.7,12.7-5,17.2c-3.3,4.5-7.7,7.8-13.3,10
			c7.5,2.2,13.4,5.7,17.9,10.5c4.4,4.8,6.6,11.5,6.6,20.2c0,12.8-4.7,22.3-14.1,28.8C3395.4,601.7,3380.5,604.9,3360.2,604.9z
			 M3343.4,530h18.8c4.4,0,8.6-0.3,12.5-0.9c3.9-0.6,7.3-1.7,10.2-3.3c2.9-1.6,5.2-3.7,6.8-6.3c1.7-2.6,2.5-5.8,2.5-9.7
			c0-3.7-0.9-6.8-2.6-9.3s-4.1-4.5-7.1-6.1c-3-1.5-6.5-2.7-10.6-3.4c-4-0.7-8.3-1.1-12.9-1.1c-4.6,0-8.1,0.1-10.7,0.2
			c-2.6,0.1-4.9,0.3-7,0.6V530z M3343.4,544.4v44.9c1.4,0.1,3,0.3,4.8,0.4c1.6,0.1,3.5,0.2,5.6,0.3c2.1,0.1,4.6,0.1,7.5,0.1
			c5.3,0,10.3-0.4,15-1c4.7-0.7,8.9-1.9,12.4-3.6c3.6-1.7,6.4-4.1,8.6-7.2c2.1-3.1,3.2-6.9,3.2-11.6c0-4.2-0.8-7.7-2.4-10.6
			c-1.6-2.9-3.9-5.2-6.9-6.9c-3-1.7-6.6-2.9-10.8-3.7c-4.2-0.7-8.8-1.1-14-1.1H3343.4z"/>
		<path class="st4" d="M3519.2,601c-3.9,1-9.1,2-15.6,3.1c-6.4,1.1-13.9,1.7-22.3,1.7c-7.4,0-13.6-1.1-18.6-3.2s-9.1-5.2-12.1-9.1
			c-3.1-3.9-5.3-8.6-6.6-13.9c-1.3-5.3-2-11.3-2-17.8v-53.7l17.1,0v50c0,11.7,1.8,20,5.5,25c3.7,5,9.9,7.5,18.6,7.5
			c1.8,0,3.8-0.1,5.7-0.2c2-0.1,3.8-0.3,5.5-0.5c1.7-0.2,3.3-0.4,4.7-0.5c1.4-0.2,2.4-0.4,3-0.7v-80.8h17.1V601z"/>
		<path class="st4" d="M3557.1,490.8c-3.1,0-5.7-1-7.8-3c-2.1-2-3.2-4.7-3.2-8.2c0-3.4,1.1-6.2,3.2-8.2c2.2-2,4.8-3,7.8-3
			c3.1,0,5.7,1,7.8,3c2.2,2,3.2,4.7,3.2,8.2s-1.1,6.2-3.2,8.2C3562.7,489.8,3560.1,490.8,3557.1,490.8z M3565.7,603.8h-17.1v-95.7
			h17.1V603.8z"/>
		<path class="st4" d="M3623.8,605.7c-10.5-0.3-18-2.5-22.4-6.8c-4.4-4.3-6.6-11-6.6-20.1l0-114.8l17.1-2.9v115c0,2.8,0.2,5.1,0.7,7
			c0.5,1.8,1.3,3.3,2.4,4.4c1.1,1.1,2.6,1.9,4.4,2.5c1.8,0.5,4.1,1,6.8,1.4L3623.8,605.7z"/>
		<path class="st4" d="M3707.2,464l17.1-2.9l0,140c-3.9,1.1-9,2.2-15.1,3.3c-6.1,1.1-13.2,1.7-21.2,1.7c-7.4,0-14-1.2-19.9-3.5
			c-5.9-2.3-10.9-5.6-15.1-9.9c-4.2-4.3-7.4-9.5-9.7-15.7c-2.3-6.2-3.4-13.2-3.4-20.9c0-7.4,0.9-14.1,2.8-20.2
			c1.9-6.1,4.7-11.4,8.4-15.8c3.7-4.4,8.2-7.9,13.5-10.3c5.3-2.5,11.4-3.7,18.3-3.7c5.5,0,10.4,0.7,14.6,2.2
			c4.2,1.5,7.4,2.9,9.5,4.2V464z M3707.2,528.4c-2.1-1.7-5.1-3.4-9-5c-3.9-1.6-8.2-2.4-12.9-2.4c-4.9,0-9.1,0.9-12.6,2.7
			c-3.5,1.8-6.3,4.2-8.6,7.4c-2.2,3.1-3.8,6.8-4.8,11.1c-1,4.3-1.5,8.9-1.5,13.8c0,11.2,2.8,19.8,8.3,25.8
			c5.5,6.1,12.9,9.1,22.1,9.1c4.7,0,8.6-0.2,11.7-0.6c3.1-0.4,5.5-0.9,7.3-1.4V528.4z"/>
		<path class="st4" d="M3827.2,505.7c6.8,0,12.6,0.9,17.4,2.7c4.7,1.8,8.5,4.3,11.4,7.5c2.9,3.2,4.9,7.1,6.1,11.6
			c1.2,4.5,1.8,9.4,1.8,14.8v59.8c-1.5,0.3-3.5,0.6-6.2,1c-2.6,0.4-5.6,0.8-8.9,1.2c-3.3,0.4-6.9,0.7-10.8,1
			c-3.9,0.3-7.7,0.5-11.5,0.5c-5.4,0-10.4-0.6-14.9-1.7c-4.5-1.1-8.4-2.9-11.8-5.2c-3.3-2.4-5.9-5.6-7.7-9.5
			c-1.8-3.9-2.8-8.6-2.8-14.2c0-5.3,1.1-9.8,3.2-13.6c2.2-3.8,5.1-6.9,8.8-9.2c3.7-2.3,8-4,12.9-5.2c4.9-1.1,10.1-1.7,15.4-1.7
			c1.7,0,3.5,0.1,5.4,0.3c1.8,0.2,3.6,0.4,5.3,0.7c1.7,0.3,3.1,0.6,4.3,0.8c1.2,0.2,2.1,0.4,2.6,0.5v-4.8c0-2.8-0.3-5.6-0.9-8.4
			c-0.6-2.8-1.7-5.2-3.3-7.4c-1.6-2.1-3.8-3.9-6.5-5.1c-2.7-1.3-6.3-1.9-10.8-1.9c-5.6,0-10.6,0.4-14.8,1.2
			c-4.2,0.8-7.4,1.6-9.5,2.5l-2-14.2c2.2-1,5.9-1.9,11.1-2.9S3821.2,505.7,3827.2,505.7z M3828.7,591.5c4,0,7.6-0.1,10.8-0.3
			c3.1-0.2,5.7-0.5,7.8-1v-28.5c-1.2-0.6-3.2-1.1-6-1.6c-2.7-0.4-6.1-0.6-10-0.6c-2.6,0-5.3,0.2-8.2,0.5c-2.9,0.4-5.5,1.1-7.9,2.3
			c-2.4,1.2-4.4,2.8-6,4.8c-1.6,2-2.4,4.7-2.4,8c0,6.1,2,10.4,5.9,12.8C3816.6,590.3,3821.9,591.5,3828.7,591.5z"/>
		<path class="st4" d="M3970.3,604.9c-2.6,0-5.4-0.1-8.4-0.2c-3-0.1-6-0.3-9-0.6c-3-0.2-6-0.6-8.9-0.9c-2.9-0.4-5.6-0.8-8.1-1.5
			V478.1c2.5-0.6,5.2-1.1,8.1-1.5c2.9-0.4,5.9-0.7,8.9-0.9c3-0.2,6-0.4,8.9-0.5c3-0.1,5.7-0.2,8.3-0.2c7.4,0,14.3,0.6,20.7,1.7
			s12,3,16.8,5.6c4.7,2.6,8.4,6.1,11.1,10.4c2.7,4.3,4,9.6,4,15.8c0,7-1.7,12.7-5,17.2c-3.3,4.5-7.7,7.8-13.3,10
			c7.5,2.2,13.4,5.7,17.9,10.5c4.4,4.8,6.6,11.5,6.6,20.2c0,12.8-4.7,22.3-14.1,28.8C4005.5,601.7,3990.7,604.9,3970.3,604.9z
			 M3953.6,530h18.8c4.4,0,8.6-0.3,12.5-0.9c3.9-0.6,7.3-1.7,10.2-3.3c2.9-1.6,5.2-3.7,6.8-6.3c1.7-2.6,2.5-5.8,2.5-9.7
			c0-3.7-0.9-6.8-2.6-9.3c-1.7-2.5-4.1-4.5-7.1-6.1c-3-1.5-6.5-2.7-10.6-3.4c-4-0.7-8.3-1.1-12.9-1.1c-4.6,0-8.1,0.1-10.7,0.2
			c-2.6,0.1-4.9,0.3-7,0.6V530z M3953.6,544.4v44.9c1.4,0.1,3,0.3,4.8,0.4c1.6,0.1,3.5,0.2,5.6,0.3c2.1,0.1,4.6,0.1,7.5,0.1
			c5.3,0,10.3-0.4,15-1c4.7-0.7,8.9-1.9,12.4-3.6c3.6-1.7,6.4-4.1,8.6-7.2c2.1-3.1,3.2-6.9,3.2-11.6c0-4.2-0.8-7.7-2.4-10.6
			c-1.6-2.9-3.9-5.2-6.9-6.9c-3-1.7-6.6-2.9-10.8-3.7s-8.8-1.1-14-1.1H3953.6z"/>
		<path class="st4" d="M4047.8,556.2c0-8.5,1.2-15.9,3.7-22.2c2.5-6.3,5.7-11.6,9.7-15.7c4-4.2,8.7-7.3,14-9.4
			c5.3-2.1,10.7-3.1,16.2-3.1c12.9,0,22.7,4,29.6,12.1c6.8,8,10.3,20.3,10.3,36.7c0,0.7,0,1.7,0,2.9s-0.1,2.2-0.2,3.2h-65.5
			c0.7,9.9,3.6,17.5,8.6,22.6c5,5.2,12.9,7.7,23.6,7.7c6,0,11.1-0.5,15.2-1.6c4.1-1,7.2-2.1,9.3-3l2.4,14.4c-2.1,1.1-5.7,2.3-11,3.5
			c-5.2,1.2-11.1,1.8-17.7,1.8c-8.3,0-15.5-1.3-21.6-3.8c-6.1-2.5-11.1-6-15-10.4c-3.9-4.4-6.8-9.7-8.8-15.7
			C4048.7,570,4047.8,563.4,4047.8,556.2z M4113.5,546.8c0.1-7.7-1.8-14.1-5.8-19c-4-5-9.5-7.5-16.5-7.5c-3.9,0-7.4,0.8-10.4,2.3
			c-3,1.5-5.5,3.5-7.6,6c-2.1,2.5-3.7,5.3-4.9,8.5c-1.2,3.2-1.9,6.5-2.3,9.8L4113.5,546.8z"/>
		<path class="st4" d="M4172,508.1l36.2,0v14.4l-36.2,0l0,44.1c0,4.8,0.4,8.7,1.1,11.9c0.7,3.1,1.8,5.6,3.3,7.4
			c1.5,1.8,3.3,3,5.5,3.8c2.2,0.7,4.8,1.1,7.7,1.1c5.2,0,9.3-0.6,12.4-1.8c3.1-1.2,5.3-2,6.5-2.5l3.3,14.2c-1.7,0.9-4.7,1.9-9,3.2
			c-4.3,1.3-9.2,1.9-14.7,1.9c-6.5,0-11.9-0.8-16.1-2.5c-4.2-1.7-7.6-4.1-10.2-7.5c-2.6-3.3-4.4-7.4-5.4-12.2
			c-1.1-4.8-1.6-10.5-1.6-16.8v-85.4l17.1-2.9V508.1z"/>
		<path class="st4" d="M4246,508.1l36.2,0v14.4l-36.2,0v44.1c0,4.8,0.4,8.7,1.1,11.9c0.7,3.1,1.8,5.6,3.3,7.4c1.5,1.8,3.3,3,5.5,3.8
			c2.2,0.7,4.8,1.1,7.7,1.1c5.2,0,9.3-0.6,12.4-1.8c3.1-1.2,5.3-2,6.5-2.5l3.3,14.2c-1.7,0.9-4.7,1.9-9,3.2
			c-4.3,1.3-9.2,1.9-14.7,1.9c-6.5,0-11.9-0.8-16.1-2.5c-4.2-1.7-7.6-4.1-10.2-7.5s-4.4-7.4-5.4-12.2c-1.1-4.8-1.6-10.5-1.6-16.8
			v-85.4l17.1-2.9V508.1z"/>
		<path class="st4" d="M4296.8,556.2c0-8.5,1.2-15.9,3.7-22.2c2.5-6.3,5.7-11.6,9.7-15.7c4-4.2,8.7-7.3,14-9.4
			c5.3-2.1,10.7-3.1,16.2-3.1c12.9,0,22.7,4,29.6,12.1c6.8,8,10.3,20.3,10.3,36.7c0,0.7,0,1.7,0,2.9c0,1.2-0.1,2.2-0.2,3.2l-65.5,0
			c0.7,9.9,3.6,17.5,8.6,22.6c5,5.2,12.9,7.7,23.6,7.7c6,0,11.1-0.5,15.2-1.6c4.1-1,7.2-2.1,9.3-3l2.4,14.4c-2.1,1.1-5.7,2.3-11,3.5
			c-5.2,1.2-11.1,1.8-17.7,1.8c-8.3,0-15.5-1.3-21.6-3.8c-6.1-2.5-11.1-6-15-10.4c-3.9-4.4-6.8-9.7-8.8-15.7
			C4297.7,570,4296.8,563.4,4296.8,556.2z M4362.4,546.8c0.1-7.7-1.8-14.1-5.8-19c-4-5-9.5-7.5-16.5-7.5c-3.9,0-7.4,0.8-10.4,2.3
			c-3,1.5-5.5,3.5-7.6,6c-2.1,2.5-3.7,5.3-4.9,8.5c-1.2,3.2-1.9,6.5-2.3,9.8L4362.4,546.8z"/>
		<path class="st4" d="M4440.3,506.1c1.5,0,3.2,0.1,5.1,0.3c1.9,0.2,3.8,0.4,5.6,0.7c1.8,0.3,3.5,0.6,5.1,0.9
			c1.5,0.3,2.7,0.6,3.4,0.8l-2.9,14.9c-1.4-0.5-3.6-1.1-6.7-1.8c-3.2-0.7-7.2-1-12.1-1c-3.2,0-6.3,0.4-9.5,1
			c-3.1,0.7-5.2,1.1-6.2,1.4v80.4h-17.1v-91.6c4-1.5,9.1-2.9,15.1-4.1C4426,506.7,4432.8,506.1,4440.3,506.1z"/>
		<path class="st4" d="M4596.3,588.4v15.4l-76.7,0V476.3h17.8v112.1H4596.3z"/>
		<path class="st4" d="M4622.4,490.8c-3.1,0-5.7-1-7.8-3c-2.1-2-3.2-4.7-3.2-8.2s1.1-6.2,3.2-8.2c2.2-2,4.8-3,7.8-3
			c3.1,0,5.7,1,7.8,3c2.2,2,3.2,4.7,3.2,8.2c0,3.4-1.1,6.2-3.2,8.2C4628.1,489.8,4625.5,490.8,4622.4,490.8z M4631,603.8l-17.1,0
			v-95.7h17.1V603.8z"/>
		<path class="st4" d="M4697.9,461c5,0,9.3,0.4,13,1.1c3.6,0.7,6.1,1.4,7.6,2l-3.2,14.7c-1.5-0.7-3.5-1.4-6.2-2.1
			c-2.7-0.7-6-1-9.9-1c-8,0-13.5,2.2-16.7,6.5c-3.2,4.4-4.8,10.2-4.8,17.6v8.3l36.8,0v14.4h-36.8v81.3h-17.1V499.5
			c0-12.3,3-21.7,9-28.4C4675.5,464.4,4685,461,4697.9,461z"/>
		<path class="st4" d="M4726.2,556.2c0-8.5,1.2-15.9,3.7-22.2c2.5-6.3,5.7-11.6,9.7-15.7c4-4.2,8.7-7.3,14-9.4
			c5.3-2.1,10.7-3.1,16.2-3.1c12.9,0,22.7,4,29.6,12.1c6.8,8,10.3,20.3,10.3,36.7c0,0.7,0,1.7,0,2.9s-0.1,2.2-0.2,3.2l-65.5,0
			c0.7,9.9,3.6,17.5,8.6,22.6c5,5.2,12.9,7.7,23.6,7.7c6,0,11.1-0.5,15.2-1.6c4.1-1,7.2-2.1,9.3-3l2.4,14.4c-2.1,1.1-5.7,2.3-11,3.5
			c-5.2,1.2-11.1,1.8-17.7,1.8c-8.3,0-15.5-1.3-21.6-3.8c-6.1-2.5-11.1-6-15-10.4c-4-4.4-6.8-9.7-8.8-15.7
			C4727.1,570,4726.2,563.4,4726.2,556.2z M4791.9,546.8c0.1-7.7-1.8-14.1-5.8-19c-4-5-9.5-7.5-16.5-7.5c-3.9,0-7.4,0.8-10.4,2.3
			c-3,1.5-5.5,3.5-7.6,6c-2.1,2.5-3.7,5.3-4.9,8.5c-1.2,3.2-1.9,6.5-2.3,9.8H4791.9z"/>
	</g>
</g>
</svg>
